<svg width="45" height="43" viewBox="0 0 45 43" fill="none" xmlns="http://www.w3.org/2000/svg">
<g clipPath="url(#clip0)">
<path d="M1 21.1853C1 13.3896 2.90686 8.42744 6.32284 5.38236C9.76387 2.31494 14.9461 1 21.9383 1C29.0518 1 34.2934 2.31623 37.7633 5.38497C41.2059 8.42961 43.1127 13.3896 43.1127 21.1853C43.1127 28.6365 41.2668 33.6724 37.8331 36.8667C34.3847 40.0748 29.1413 41.6084 21.9394 41.6085C14.2396 41.6001 9.08396 40.2195 5.82807 37.1228C2.58461 34.0378 1 29.0304 1 21.1853Z" fill="white" stroke="black" stroke-width="2"/>
<path d="M24.6897 23.2097H19.1163L21.8665 16.2977L24.6897 23.2097ZM27.4886 30H31.1636L23.7162 12.647H20.0168L12.7154 30H16.4391L17.9481 26.1546H25.9066L27.4886 30Z" fill="black"/>
</g>
<defs>
<clipPath id="clip0">
<rect width="44.1127" height="42.5915" fill="white"/>
</clipPath>
</defs>
</svg>
