<svg width="24" height="24" viewBox="0 0 24 24" fill="none" xmlns="http://www.w3.org/2000/svg">
<path d="M2.33787 12.499C2.12015 12.1967 2.12015 11.8033 2.33787 11.501C3.37521 10.061 6.76465 6 12 6C17.2353 6 20.6248 10.061 21.6621 11.501C21.8799 11.8033 21.8799 12.1967 21.6621 12.499C20.6248 13.939 17.2353 18 12 18C6.76465 18 3.37521 13.939 2.33787 12.499Z" stroke="black" stroke-width="1.5" stroke-linecap="round" stroke-linejoin="round"/>
<path d="M12 15C13.6569 15 15 13.6569 15 12C15 10.3431 13.6569 9 12 9C10.3431 9 9 10.3431 9 12C9 13.6569 10.3431 15 12 15Z" fill="#64A2FE" stroke="black" stroke-width="1.5" stroke-linecap="round" stroke-linejoin="round"/>
</svg>
