<svg width="22" height="22" viewBox="0 0 22 22" fill="none" xmlns="http://www.w3.org/2000/svg">
<path d="M9.16797 12.0453C9.53053 12.5334 9.9931 12.9373 10.5243 13.2296C11.0555 13.5218 11.6429 13.6956 12.2466 13.7391C12.8504 13.7827 13.4564 13.695 14.0235 13.4819C14.5907 13.2689 15.1057 12.9355 15.5336 12.5044L18.0664 9.95392C18.8353 9.15221 19.2608 8.07844 19.2511 6.96389C19.2415 5.84933 18.7976 4.78318 18.0149 3.99504C17.2323 3.2069 16.1735 2.75985 15.0667 2.75016C13.9599 2.74048 12.8936 3.16893 12.0975 3.94326L10.6454 5.39704" stroke="black" stroke-width="1.375" stroke-linecap="round" stroke-linejoin="round"/>
<path d="M12.8333 9.95467C12.4708 9.46657 12.0082 9.06269 11.477 8.77044C10.9458 8.47819 10.3584 8.3044 9.75465 8.26086C9.1509 8.21732 8.5449 8.30504 7.97777 8.51808C7.41064 8.73112 6.89564 9.06449 6.4677 9.49558L3.93495 12.0461C3.16602 12.8478 2.74054 13.9216 2.75016 15.0361C2.75978 16.1507 3.20372 17.2168 3.98637 18.005C4.76903 18.7931 5.82777 19.2402 6.93456 19.2498C8.04136 19.2595 9.10766 18.8311 9.90379 18.0567L11.3475 16.603" stroke="black" stroke-width="1.375" stroke-linecap="round" stroke-linejoin="round"/>
</svg>
