<svg width="24" height="24" viewBox="0 0 24 24" fill="none" xmlns="http://www.w3.org/2000/svg">
<path d="M5.63158 22L7.31354 17.8426C5.01551 16.2967 3.5 13.6463 3.5 10.6364C3.5 5.86663 7.30558 2 12 2C16.6944 2 20.5 5.86663 20.5 10.6364C20.5 13.6463 18.9845 16.2967 16.6865 17.8426L18.3684 22H5.63158Z" stroke="black" stroke-width="1.5" stroke-linejoin="round"/>
<path d="M10.75 19C10.75 18.5858 10.4142 18.25 10 18.25C9.58579 18.25 9.25 18.5858 9.25 19H10.75ZM9.25 22V22.75H10.75V22H9.25ZM9.25 19V22H10.75V19H9.25Z" fill="black"/>
<path d="M14.75 19C14.75 18.5858 14.4142 18.25 14 18.25C13.5858 18.25 13.25 18.5858 13.25 19H14.75ZM13.25 22V22.75H14.75V22H13.25ZM13.25 19V22H14.75V19H13.25Z" fill="black"/>
<path d="M8.5 11.5C9.32843 11.5 10 10.8284 10 10C10 9.17157 9.32843 8.5 8.5 8.5C7.67157 8.5 7 9.17157 7 10C7 10.8284 7.67157 11.5 8.5 11.5Z" stroke="black" stroke-width="1.5" stroke-linejoin="round"/>
<path d="M15.5 11.5C16.3284 11.5 17 10.8284 17 10C17 9.17157 16.3284 8.5 15.5 8.5C14.6716 8.5 14 9.17157 14 10C14 10.8284 14.6716 11.5 15.5 11.5Z" stroke="black" stroke-width="1.5" stroke-linejoin="round"/>
</svg>
