<svg width="45" height="43" viewBox="0 0 45 43" fill="none" xmlns="http://www.w3.org/2000/svg">
<g clipPath="url(#clip0)">
<path d="M0.445312 21.1853C0.445312 5.30058 8.21899 0 22.3836 0C36.7843 0 44.558 5.30058 44.558 21.1853C44.558 36.3905 37.0204 42.6085 22.3836 42.6085C6.83625 42.5916 0.445312 37.0701 0.445312 21.1853Z" fill="#00638D"/>
<path d="M27.7659 23.6582H23.9448C23.6284 26.1893 22.2898 27.6253 19.1989 27.6253C15.9133 27.6253 14.1123 25.8242 14.1123 22.3196V21.5894C14.1123 17.7927 15.9619 15.9917 19.2476 15.9917C22.1195 15.9917 23.5797 17.3303 23.8961 19.6424H27.6685C27.0114 15.0668 23.9448 12.8034 19.2476 12.8034C13.9175 12.8034 10.4615 15.9187 10.4615 21.4434V22.4413C10.4615 28.1607 13.6742 30.9352 19.0042 30.9352C24.6263 30.9352 27.2061 28.185 27.7659 23.6582ZM33.7314 30.5215V11.8786H30.1537V30.5215H33.7314Z" fill="#FFBB1F"/>
</g>
<defs>
<clipPath id="clip0">
<rect width="44.1127" height="42.5915" fill="white" transform="translate(0.445312)"/>
</clipPath>
</defs>
</svg>
