<svg width="321" height="61" viewBox="0 0 321 61" fill="none" xmlns="http://www.w3.org/2000/svg">
<path d="M320 54.5C301.652 63.9369 285.946 58.432 280.386 54.5C274.131 50.568 258.007 45.0632 243.551 54.5C229.095 63.9368 214.825 58.432 209.497 54.5C203.473 50.568 188.508 45.0632 176.832 54.5C165.156 63.9368 149.264 58.432 142.778 54.5C137.681 50.3496 123.457 44.539 107.333 54.5C91.2096 64.461 75.5955 58.6504 69.8039 54.5C64.7073 50.3496 51.1782 44.5391 37.8344 54.5C24.4906 64.4609 7.71822 58.6504 0.999995 54.5" stroke="#171515" stroke-width="0.4"/>
<path d="M320 30C301.652 40.2948 285.946 34.2895 280.386 30C274.131 25.7106 258.007 19.7053 243.551 30C229.095 40.2947 214.825 34.2894 209.497 30C203.473 25.7106 188.508 19.7053 176.832 30C165.156 40.2947 149.264 34.2894 142.778 30C137.681 25.4723 123.457 19.1334 107.333 30C91.2096 40.8666 75.5955 34.5277 69.8039 30C64.7073 25.4723 51.1782 19.1335 37.8344 30C24.4906 40.8665 7.71822 34.5277 0.999995 30" stroke="#171515" stroke-width="0.4"/>
<path d="M320 6.5C301.652 15.9369 285.946 10.432 280.386 6.5C274.131 2.56801 258.007 -2.93677 243.551 6.5C229.095 15.9368 214.825 10.432 209.497 6.5C203.473 2.56801 188.508 -2.93677 176.832 6.5C165.156 15.9368 149.264 10.432 142.778 6.5C137.681 2.34957 123.457 -3.46103 107.333 6.5C91.2096 16.461 75.5955 10.6504 69.8039 6.5C64.7073 2.34962 51.1782 -3.46092 37.8344 6.5C24.4906 16.4609 7.71822 10.6504 0.999995 6.5" stroke="#171515" stroke-width="0.4"/>
<path d="M320 41.5C301.652 50.9369 285.946 45.432 280.386 41.5C274.131 37.568 258.007 32.0632 243.551 41.5C229.095 50.9368 214.825 45.432 209.497 41.5C203.473 37.568 188.508 32.0632 176.832 41.5C165.156 50.9368 149.264 45.432 142.778 41.5C137.681 37.3496 123.457 31.539 107.333 41.5C91.2096 51.461 75.5955 45.6504 69.8039 41.5C64.7073 37.3496 51.1782 31.5391 37.8344 41.5C24.4906 51.4609 7.71822 45.6504 0.999995 41.5" stroke="#171515" stroke-width="0.4"/>
<path d="M320 19.5C301.652 28.9369 285.946 23.432 280.386 19.5C274.131 15.568 258.007 10.0632 243.551 19.5C229.095 28.9368 214.825 23.432 209.497 19.5C203.473 15.568 188.508 10.0632 176.832 19.5C165.156 28.9368 149.264 23.432 142.778 19.5C137.681 15.3496 123.457 9.53897 107.333 19.5C91.2096 29.461 75.5955 23.6504 69.8039 19.5C64.7073 15.3496 51.1782 9.53908 37.8344 19.5C24.4906 29.4609 7.71822 23.6504 0.999995 19.5" stroke="#171515" stroke-width="0.4"/>
</svg>
