<svg width="668" height="117" viewBox="0 0 668 117" fill="none" xmlns="http://www.w3.org/2000/svg">
<path d="M667 104.808C660.418 97.2515 642.091 86.6722 621.436 104.808C600.78 122.944 582.453 112.365 575.871 104.808C569.29 97.6958 550.963 87.7385 530.307 104.808C509.651 121.878 489.805 111.921 482.464 104.808C475.123 97.2513 455.733 86.6716 436.9 104.808C418.066 122.945 400.195 112.365 393.613 104.808C387.285 96.8069 369.616 85.605 349.568 104.808C329.52 124.011 312.357 112.809 306.282 104.808C299.447 96.807 281.829 85.6053 266.033 104.808C250.237 124.011 234.644 112.809 228.822 104.808C222.241 96.807 205.888 85.6053 193.13 104.808C180.372 124.011 163.007 112.809 155.919 104.808C150.35 96.3625 134.808 84.5385 117.189 104.808C99.5711 125.078 82.5097 113.254 76.1813 104.808C70.6123 96.3625 55.8292 84.5387 41.2486 104.808C26.668 125.078 8.34096 113.254 1.00002 104.808" stroke="#171515" stroke-width="0.8"/>
<path d="M667 58.5001C660.418 50.9434 642.091 40.3641 621.436 58.5001C600.78 76.636 582.453 66.0567 575.871 58.5001C569.29 51.3877 550.963 41.4304 530.307 58.5001C509.651 75.5698 489.805 65.6124 482.464 58.5001C475.123 50.9432 455.733 40.3635 436.9 58.5001C418.066 76.6366 400.195 66.0569 393.613 58.5001C387.285 50.4988 369.616 39.2969 349.568 58.5001C329.52 77.7032 312.357 66.5014 306.282 58.5001C299.447 50.4989 281.829 39.2972 266.033 58.5001C250.237 77.7029 234.644 66.5013 228.822 58.5001C222.241 50.4989 205.888 39.2972 193.13 58.5001C180.372 77.7029 163.007 66.5013 155.919 58.5001C150.35 50.0543 134.808 38.2304 117.189 58.5001C99.5711 78.7698 82.5097 66.9458 76.1813 58.5001C70.6123 50.0544 55.8292 38.2306 41.2486 58.5001C26.668 78.7695 8.34096 66.9457 1.00002 58.5001" stroke="#171515" stroke-width="0.8"/>
<path d="M667 12.192C660.418 4.63529 642.091 -5.94404 621.436 12.192C600.78 30.3279 582.453 19.7486 575.871 12.192C569.29 5.07957 550.963 -4.87775 530.307 12.192C509.651 29.2617 489.805 19.3043 482.464 12.192C475.123 4.63507 455.733 -5.94457 436.9 12.192C418.066 30.3285 400.195 19.7488 393.613 12.192C387.285 4.19065 369.616 -7.01116 349.568 12.192C329.52 31.3951 312.357 20.1932 306.282 12.192C299.447 4.19075 281.829 -7.01093 266.033 12.192C250.237 31.3948 234.644 20.1932 228.822 12.192C222.241 4.19075 205.888 -7.01093 193.13 12.192C180.372 31.3948 163.007 20.1932 155.919 12.192C150.35 3.74624 134.808 -8.07775 117.189 12.192C99.5711 32.4617 82.5097 20.6377 76.1813 12.192C70.6123 3.74634 55.8292 -8.07752 41.2486 12.192C26.668 32.4614 8.34096 20.6376 1.00002 12.192" stroke="#171515" stroke-width="0.8"/>
<path d="M667 81.6539C660.418 74.0972 642.091 63.5179 621.436 81.6539C600.78 99.7899 582.453 89.2105 575.871 81.6539C569.29 74.5415 550.963 64.5842 530.307 81.6539C509.651 98.7236 489.805 88.7662 482.464 81.6539C475.123 74.097 455.733 63.5173 436.9 81.6539C418.066 99.7904 400.195 89.2107 393.613 81.6539C387.285 73.6526 369.616 62.4508 349.568 81.6539C329.52 100.857 312.357 89.6552 306.282 81.6539C299.447 73.6527 281.829 62.451 266.033 81.6539C250.237 100.857 234.644 89.6551 228.822 81.6539C222.241 73.6527 205.888 62.451 193.13 81.6539C180.372 100.857 163.007 89.6551 155.919 81.6539C150.35 73.2082 134.808 61.3842 117.189 81.6539C99.5711 101.924 82.5097 90.0996 76.1813 81.6539C70.6123 73.2083 55.8292 61.3844 41.2486 81.6539C26.668 101.923 8.34096 90.0995 1.00002 81.6539" stroke="#171515" stroke-width="0.8"/>
<path d="M667 35.3458C660.418 27.7891 642.091 17.2098 621.436 35.3458C600.78 53.4817 582.453 42.9024 575.871 35.3458C569.29 28.2334 550.963 18.2761 530.307 35.3458C509.651 52.4155 489.805 42.4581 482.464 35.3458C475.123 27.7889 455.733 17.2092 436.9 35.3458C418.066 53.4823 400.195 42.9026 393.613 35.3458C387.285 27.3445 369.616 16.1426 349.568 35.3458C329.52 54.5489 312.357 43.3471 306.282 35.3458C299.447 27.3446 281.829 16.1429 266.033 35.3458C250.237 54.5486 234.644 43.347 228.822 35.3458C222.241 27.3446 205.888 16.1429 193.13 35.3458C180.372 54.5486 163.007 43.347 155.919 35.3458C150.35 26.9 134.808 15.0761 117.189 35.3458C99.5711 55.6155 82.5097 43.7915 76.1813 35.3458C70.6123 26.9001 55.8292 15.0763 41.2486 35.3458C26.668 55.6152 8.34096 43.7914 1.00002 35.3458" stroke="#171515" stroke-width="0.8"/>
</svg>
