<svg width="319" height="59" viewBox="0 0 319 59" fill="none" xmlns="http://www.w3.org/2000/svg">
<line x1="263.811" y1="4.68928e-09" x2="263.811" y2="59" stroke="#171515" stroke-width="0.4"/>
<line x1="197.908" y1="4.68928e-09" x2="197.908" y2="59" stroke="#171515" stroke-width="0.4"/>
<line x1="132.006" y1="4.68928e-09" x2="132.006" y2="59" stroke="#171515" stroke-width="0.4"/>
<line x1="66.1023" y1="4.68928e-09" x2="66.1023" y2="59" stroke="#171515" stroke-width="0.4"/>
<line x1="208.891" y1="4.68928e-09" x2="208.891" y2="59" stroke="#171515" stroke-width="0.4"/>
<line x1="274.793" y1="4.68928e-09" x2="274.793" y2="59" stroke="#171515" stroke-width="0.4"/>
<line x1="77.0857" y1="4.68928e-09" x2="77.0857" y2="59" stroke="#171515" stroke-width="0.4"/>
<line x1="142.987" y1="4.68928e-09" x2="142.987" y2="59" stroke="#171515" stroke-width="0.4"/>
<line x1="11.1814" y1="4.68928e-09" x2="11.1814" y2="59" stroke="#171515" stroke-width="0.4"/>
<line x1="219.876" y1="4.68928e-09" x2="219.876" y2="59" stroke="#171515" stroke-width="0.4"/>
<line x1="88.0701" y1="4.68928e-09" x2="88.0701" y2="59" stroke="#171515" stroke-width="0.4"/>
<line x1="285.78" y1="4.68928e-09" x2="285.78" y2="59" stroke="#171515" stroke-width="0.4"/>
<line x1="153.974" y1="4.68928e-09" x2="153.974" y2="59" stroke="#171515" stroke-width="0.4"/>
<line x1="22.1688" y1="4.68928e-09" x2="22.1687" y2="59" stroke="#171515" stroke-width="0.4"/>
<line x1="230.859" y1="4.68928e-09" x2="230.859" y2="59" stroke="#171515" stroke-width="0.4"/>
<line x1="99.0535" y1="4.68928e-09" x2="99.0535" y2="59" stroke="#171515" stroke-width="0.4"/>
<line x1="296.762" y1="4.68928e-09" x2="296.762" y2="59" stroke="#171515" stroke-width="0.4"/>
<line x1="164.956" y1="4.68928e-09" x2="164.956" y2="59" stroke="#171515" stroke-width="0.4"/>
<line x1="33.1521" y1="4.68928e-09" x2="33.1521" y2="59" stroke="#171515" stroke-width="0.4"/>
<line x1="241.843" y1="4.68928e-09" x2="241.843" y2="59" stroke="#171515" stroke-width="0.4"/>
<line x1="110.038" y1="4.68928e-09" x2="110.038" y2="59" stroke="#171515" stroke-width="0.4"/>
<line x1="307.746" y1="4.68928e-09" x2="307.746" y2="59" stroke="#171515" stroke-width="0.4"/>
<line x1="175.941" y1="4.68928e-09" x2="175.941" y2="59" stroke="#171515" stroke-width="0.4"/>
<line x1="44.1355" y1="4.68928e-09" x2="44.1355" y2="59" stroke="#171515" stroke-width="0.4"/>
<line x1="252.825" y1="4.68928e-09" x2="252.825" y2="59" stroke="#171515" stroke-width="0.4"/>
<line x1="121.021" y1="4.68928e-09" x2="121.021" y2="59" stroke="#171515" stroke-width="0.4"/>
<line x1="186.923" y1="4.68928e-09" x2="186.923" y2="59" stroke="#171515" stroke-width="0.4"/>
<line x1="55.1189" y1="4.68928e-09" x2="55.1189" y2="59" stroke="#171515" stroke-width="0.4"/>
<line y1="37.5539" x2="319" y2="37.5539" stroke="#171515" stroke-width="0.4"/>
<line y1="49.4768" x2="319" y2="49.4768" stroke="#171515" stroke-width="0.4"/>
<line y1="24.6384" x2="319" y2="24.6384" stroke="#171515" stroke-width="0.4"/>
<line y1="12.716" x2="319" y2="12.716" stroke="#171515" stroke-width="0.4"/>
</svg>
