<svg width="440" height="116" viewBox="0 0 440 116" fill="none" xmlns="http://www.w3.org/2000/svg">
<line x1="294.505" y1="1.65923e-08" x2="294.505" y2="116" stroke="#171515" stroke-width="0.8"/>
<line x1="147.453" y1="1.65923e-08" x2="147.453" y2="116" stroke="#171515" stroke-width="0.8"/>
<line x1="171.961" y1="1.65923e-08" x2="171.961" y2="116" stroke="#171515" stroke-width="0.8"/>
<line x1="319.014" y1="1.65923e-08" x2="319.014" y2="116" stroke="#171515" stroke-width="0.8"/>
<line x1="24.9078" y1="1.65923e-08" x2="24.9078" y2="116" stroke="#171515" stroke-width="0.8"/>
<line x1="196.47" y1="1.65923e-08" x2="196.47" y2="116" stroke="#171515" stroke-width="0.8"/>
<line x1="343.523" y1="1.65923e-08" x2="343.523" y2="116" stroke="#171515" stroke-width="0.8"/>
<line x1="49.4161" y1="1.65923e-08" x2="49.4161" y2="116" stroke="#171515" stroke-width="0.8"/>
<line x1="220.979" y1="1.65923e-08" x2="220.979" y2="116" stroke="#171515" stroke-width="0.8"/>
<line x1="368.032" y1="1.65923e-08" x2="368.032" y2="116" stroke="#171515" stroke-width="0.8"/>
<line x1="73.9259" y1="1.65923e-08" x2="73.9259" y2="116" stroke="#171515" stroke-width="0.8"/>
<line x1="245.486" y1="1.65923e-08" x2="245.486" y2="116" stroke="#171515" stroke-width="0.8"/>
<line x1="392.54" y1="1.65923e-08" x2="392.54" y2="116" stroke="#171515" stroke-width="0.8"/>
<line x1="98.4337" y1="1.65923e-08" x2="98.4337" y2="116" stroke="#171515" stroke-width="0.8"/>
<line x1="269.996" y1="1.65923e-08" x2="269.996" y2="116" stroke="#171515" stroke-width="0.8"/>
<line x1="417.049" y1="1.65923e-08" x2="417.049" y2="116" stroke="#171515" stroke-width="0.8"/>
<line x1="122.944" y1="1.65923e-08" x2="122.944" y2="116" stroke="#171515" stroke-width="0.8"/>
<line y1="72.6" x2="440" y2="72.6" stroke="#171515" stroke-width="0.8"/>
<line y1="97.6" x2="440" y2="97.6" stroke="#171515" stroke-width="0.8"/>
<line y1="48.6" x2="440" y2="48.6" stroke="#171515" stroke-width="0.8"/>
<line y1="23.6" x2="440" y2="23.6" stroke="#171515" stroke-width="0.8"/>
</svg>
