<svg width="666" height="116" viewBox="0 0 666 116" fill="none" xmlns="http://www.w3.org/2000/svg">
<line y1="114.6" x2="63.2833" y2="114.6" stroke="#171515" stroke-width="0.8"/>
<line y1="100.35" x2="63.2833" y2="100.35" stroke="#171515" stroke-width="0.8"/>
<line y1="86.1" x2="63.2833" y2="86.1" stroke="#171515" stroke-width="0.8"/>
<line y1="71.849" x2="63.2833" y2="71.849" stroke="#171515" stroke-width="0.8"/>
<line y1="57.599" x2="63.2833" y2="57.599" stroke="#171515" stroke-width="0.8"/>
<line x1="0.000976562" y1="43.349" x2="63.2843" y2="43.349" stroke="#171515" stroke-width="0.8"/>
<line x1="150.674" y1="114.6" x2="213.957" y2="114.6" stroke="#171515" stroke-width="0.8"/>
<line x1="150.674" y1="100.35" x2="213.957" y2="100.35" stroke="#171515" stroke-width="0.8"/>
<line x1="150.674" y1="86.1" x2="213.957" y2="86.1" stroke="#171515" stroke-width="0.8"/>
<line x1="150.674" y1="71.849" x2="213.957" y2="71.849" stroke="#171515" stroke-width="0.8"/>
<line x1="150.674" y1="57.599" x2="213.957" y2="57.599" stroke="#171515" stroke-width="0.8"/>
<line x1="150.674" y1="43.349" x2="213.957" y2="43.349" stroke="#171515" stroke-width="0.8"/>
<line x1="75.6807" y1="114.6" x2="138.964" y2="114.6" stroke="#171515" stroke-width="0.8"/>
<line x1="75.6807" y1="100.35" x2="138.964" y2="100.35" stroke="#171515" stroke-width="0.8"/>
<line x1="75.6807" y1="86.1" x2="138.964" y2="86.1" stroke="#171515" stroke-width="0.8"/>
<line x1="75.6807" y1="71.849" x2="138.964" y2="71.849" stroke="#171515" stroke-width="0.8"/>
<line x1="75.6807" y1="57.599" x2="138.964" y2="57.599" stroke="#171515" stroke-width="0.8"/>
<line x1="75.6807" y1="43.349" x2="138.964" y2="43.349" stroke="#171515" stroke-width="0.8"/>
<line x1="301.351" y1="114.6" x2="364.634" y2="114.6" stroke="#171515" stroke-width="0.8"/>
<line x1="301.351" y1="100.35" x2="364.634" y2="100.35" stroke="#171515" stroke-width="0.8"/>
<line x1="301.351" y1="86.1" x2="364.634" y2="86.1" stroke="#171515" stroke-width="0.8"/>
<line x1="301.351" y1="71.849" x2="364.634" y2="71.849" stroke="#171515" stroke-width="0.8"/>
<line x1="301.351" y1="57.599" x2="364.634" y2="57.599" stroke="#171515" stroke-width="0.8"/>
<line x1="301.351" y1="43.349" x2="364.634" y2="43.349" stroke="#171515" stroke-width="0.8"/>
<line x1="226.013" y1="114.601" x2="289.296" y2="114.601" stroke="#171515" stroke-width="0.8"/>
<line x1="226.013" y1="100.351" x2="289.296" y2="100.351" stroke="#171515" stroke-width="0.8"/>
<line x1="226.013" y1="86.1" x2="289.296" y2="86.1" stroke="#171515" stroke-width="0.8"/>
<line x1="226.013" y1="71.85" x2="289.296" y2="71.85" stroke="#171515" stroke-width="0.8"/>
<line x1="226.013" y1="57.6" x2="289.296" y2="57.6" stroke="#171515" stroke-width="0.8"/>
<line x1="226.013" y1="43.351" x2="289.296" y2="43.351" stroke="#171515" stroke-width="0.8"/>
<line x1="376.688" y1="114.6" x2="439.971" y2="114.6" stroke="#171515" stroke-width="0.8"/>
<line x1="376.688" y1="100.35" x2="439.971" y2="100.35" stroke="#171515" stroke-width="0.8"/>
<line x1="376.688" y1="86.1" x2="439.971" y2="86.1" stroke="#171515" stroke-width="0.8"/>
<line x1="376.688" y1="71.849" x2="439.971" y2="71.849" stroke="#171515" stroke-width="0.8"/>
<line x1="376.688" y1="57.599" x2="439.971" y2="57.599" stroke="#171515" stroke-width="0.8"/>
<line x1="376.688" y1="43.349" x2="439.971" y2="43.349" stroke="#171515" stroke-width="0.8"/>
<line x1="452.024" y1="114.6" x2="515.308" y2="114.6" stroke="#171515" stroke-width="0.8"/>
<line x1="452.024" y1="100.35" x2="515.308" y2="100.35" stroke="#171515" stroke-width="0.8"/>
<line x1="452.024" y1="86.1" x2="515.308" y2="86.1" stroke="#171515" stroke-width="0.8"/>
<line x1="452.024" y1="71.849" x2="515.308" y2="71.849" stroke="#171515" stroke-width="0.8"/>
<line x1="452.024" y1="57.599" x2="515.308" y2="57.599" stroke="#171515" stroke-width="0.8"/>
<line x1="452.025" y1="43.349" x2="515.309" y2="43.349" stroke="#171515" stroke-width="0.8"/>
<line x1="602.697" y1="114.6" x2="665.981" y2="114.6" stroke="#171515" stroke-width="0.8"/>
<line x1="602.697" y1="100.35" x2="665.981" y2="100.35" stroke="#171515" stroke-width="0.8"/>
<line x1="602.697" y1="86.1" x2="665.981" y2="86.1" stroke="#171515" stroke-width="0.8"/>
<line x1="602.697" y1="71.849" x2="665.981" y2="71.849" stroke="#171515" stroke-width="0.8"/>
<line x1="602.697" y1="57.599" x2="665.981" y2="57.599" stroke="#171515" stroke-width="0.8"/>
<line x1="602.697" y1="43.349" x2="665.981" y2="43.349" stroke="#171515" stroke-width="0.8"/>
<line x1="527.361" y1="71.849" x2="590.645" y2="71.849" stroke="#171515" stroke-width="0.8"/>
<line x1="527.361" y1="57.599" x2="590.645" y2="57.599" stroke="#171515" stroke-width="0.8"/>
<line x1="527.361" y1="43.349" x2="590.645" y2="43.349" stroke="#171515" stroke-width="0.8"/>
<line x1="527.361" y1="29.1" x2="590.645" y2="29.1" stroke="#171515" stroke-width="0.8"/>
<line x1="527.361" y1="14.85" x2="590.645" y2="14.85" stroke="#171515" stroke-width="0.8"/>
<line x1="527.361" y1="0.6" x2="590.645" y2="0.6" stroke="#171515" stroke-width="0.8"/>
</svg>
