<svg width="320" height="59" viewBox="0 0 320 59" fill="none" xmlns="http://www.w3.org/2000/svg">
<path d="M144.473 13.9781C139.682 9.32428 136.963 6.90477 136.963 3.49883C136.963 0.092883 140.589 0.00610804 144.732 4.24758" stroke="#171515" stroke-width="0.4" stroke-linecap="round"/>
<path d="M144.473 35.65C139.682 30.9962 136.963 28.5766 136.963 25.1707C136.963 21.7648 140.589 21.678 144.732 25.9195" stroke="#171515" stroke-width="0.4" stroke-linecap="round"/>
<path d="M144.473 58.0001C139.682 53.3463 136.963 50.9267 136.963 47.5208C136.963 44.1149 140.589 44.0281 144.732 48.2696" stroke="#171515" stroke-width="0.4" stroke-linecap="round"/>
<path d="M130.877 13.9781C126.086 9.32428 123.366 6.90477 123.366 3.49883C123.366 0.092883 126.992 0.00610804 131.136 4.24758" stroke="#171515" stroke-width="0.4" stroke-linecap="round"/>
<path d="M130.877 35.65C126.086 30.9962 123.366 28.5766 123.366 25.1707C123.366 21.7648 126.992 21.678 131.136 25.9195" stroke="#171515" stroke-width="0.4" stroke-linecap="round"/>
<path d="M130.877 58.0001C126.086 53.3463 123.366 50.9267 123.366 47.5208C123.366 44.1149 126.992 44.0281 131.136 48.2696" stroke="#171515" stroke-width="0.4" stroke-linecap="round"/>
<path d="M117.281 13.9781C112.49 9.32428 109.771 6.90477 109.771 3.49883C109.771 0.092883 113.396 0.00610804 117.54 4.24758" stroke="#171515" stroke-width="0.4" stroke-linecap="round"/>
<path d="M117.281 35.65C112.49 30.9962 109.771 28.5766 109.771 25.1707C109.771 21.7648 113.396 21.678 117.54 25.9195" stroke="#171515" stroke-width="0.4" stroke-linecap="round"/>
<path d="M117.281 58.0001C112.49 53.3463 109.771 50.9267 109.771 47.5208C109.771 44.1149 113.396 44.0281 117.54 48.2696" stroke="#171515" stroke-width="0.4" stroke-linecap="round"/>
<path d="M103.684 13.9781C98.8931 9.32428 96.1738 6.90477 96.1738 3.49883C96.1738 0.092883 99.7996 0.00610804 103.943 4.24758" stroke="#171515" stroke-width="0.4" stroke-linecap="round"/>
<path d="M103.684 35.65C98.8931 30.9962 96.1738 28.5766 96.1738 25.1707C96.1738 21.7648 99.7996 21.678 103.943 25.9195" stroke="#171515" stroke-width="0.4" stroke-linecap="round"/>
<path d="M103.684 58.0001C98.8931 53.3463 96.1738 50.9267 96.1738 47.5208C96.1738 44.1149 99.7996 44.0281 103.943 48.2696" stroke="#171515" stroke-width="0.4" stroke-linecap="round"/>
<path d="M90.0886 13.9781C85.2974 9.32428 82.5781 6.90477 82.5781 3.49883C82.5781 0.092883 86.2038 0.00610804 90.3475 4.24758" stroke="#171515" stroke-width="0.4" stroke-linecap="round"/>
<path d="M90.0886 35.65C85.2974 30.9962 82.5781 28.5766 82.5781 25.1707C82.5781 21.7648 86.2038 21.678 90.3475 25.9195" stroke="#171515" stroke-width="0.4" stroke-linecap="round"/>
<path d="M90.0886 58.0001C85.2974 53.3463 82.5781 50.9267 82.5781 47.5208C82.5781 44.1149 86.2038 44.0281 90.3475 48.2696" stroke="#171515" stroke-width="0.4" stroke-linecap="round"/>
<path d="M76.4919 13.9781C71.7007 9.32428 68.9814 6.90477 68.9814 3.49883C68.9814 0.092883 72.6072 0.00610804 76.7509 4.24758" stroke="#171515" stroke-width="0.4" stroke-linecap="round"/>
<path d="M76.4919 35.65C71.7007 30.9962 68.9814 28.5766 68.9814 25.1707C68.9814 21.7648 72.6072 21.678 76.7509 25.9195" stroke="#171515" stroke-width="0.4" stroke-linecap="round"/>
<path d="M76.4919 58.0001C71.7007 53.3463 68.9814 50.9267 68.9814 47.5208C68.9814 44.1149 72.6072 44.0281 76.7509 48.2696" stroke="#171515" stroke-width="0.4" stroke-linecap="round"/>
<path d="M62.8952 13.9781C58.1041 9.32428 55.3848 6.90477 55.3848 3.49883C55.3848 0.092883 59.0105 0.00610804 63.1542 4.24758" stroke="#171515" stroke-width="0.4" stroke-linecap="round"/>
<path d="M62.8952 35.65C58.1041 30.9962 55.3848 28.5766 55.3848 25.1707C55.3848 21.7648 59.0105 21.678 63.1542 25.9195" stroke="#171515" stroke-width="0.4" stroke-linecap="round"/>
<path d="M62.8952 58.0001C58.1041 53.3463 55.3848 50.9267 55.3848 47.5208C55.3848 44.1149 59.0105 44.0281 63.1542 48.2696" stroke="#171515" stroke-width="0.4" stroke-linecap="round"/>
<path d="M49.2995 13.9781C44.5084 9.32428 41.7891 6.90477 41.7891 3.49883C41.7891 0.092883 45.4148 0.00610804 49.5585 4.24758" stroke="#171515" stroke-width="0.4" stroke-linecap="round"/>
<path d="M49.2995 35.65C44.5084 30.9962 41.7891 28.5766 41.7891 25.1707C41.7891 21.7648 45.4148 21.678 49.5585 25.9195" stroke="#171515" stroke-width="0.4" stroke-linecap="round"/>
<path d="M49.2995 58.0001C44.5084 53.3463 41.7891 50.9267 41.7891 47.5208C41.7891 44.1149 45.4148 44.0281 49.5585 48.2696" stroke="#171515" stroke-width="0.4" stroke-linecap="round"/>
<path d="M35.7028 13.9781C30.9117 9.32428 28.1924 6.90477 28.1924 3.49883C28.1924 0.092883 31.8181 0.00610804 35.9618 4.24758" stroke="#171515" stroke-width="0.4" stroke-linecap="round"/>
<path d="M35.7028 35.65C30.9117 30.9962 28.1924 28.5766 28.1924 25.1707C28.1924 21.7648 31.8181 21.678 35.9618 25.9195" stroke="#171515" stroke-width="0.4" stroke-linecap="round"/>
<path d="M35.7028 58.0001C30.9117 53.3463 28.1924 50.9267 28.1924 47.5208C28.1924 44.1149 31.8181 44.0281 35.9618 48.2696" stroke="#171515" stroke-width="0.4" stroke-linecap="round"/>
<path d="M22.1071 13.9781C17.316 9.32428 14.5967 6.90477 14.5967 3.49883C14.5967 0.092883 18.2224 0.00610804 22.3661 4.24758" stroke="#171515" stroke-width="0.4" stroke-linecap="round"/>
<path d="M22.1071 35.65C17.316 30.9962 14.5967 28.5766 14.5967 25.1707C14.5967 21.7648 18.2224 21.678 22.3661 25.9195" stroke="#171515" stroke-width="0.4" stroke-linecap="round"/>
<path d="M22.1071 58.0001C17.316 53.3463 14.5967 50.9267 14.5967 47.5208C14.5967 44.1149 18.2224 44.0281 22.3661 48.2696" stroke="#171515" stroke-width="0.4" stroke-linecap="round"/>
<path d="M8.51043 13.978C3.71929 9.32424 1 6.90473 1 3.49879C1 0.0928424 4.62572 0.00606751 8.76941 4.24754" stroke="#171515" stroke-width="0.4" stroke-linecap="round"/>
<path d="M8.51043 35.65C3.71929 30.9962 1 28.5766 1 25.1707C1 21.7648 4.62572 21.678 8.76941 25.9195" stroke="#171515" stroke-width="0.4" stroke-linecap="round"/>
<path d="M8.51043 58.0001C3.71929 53.3463 1 50.9267 1 47.5208C1 44.1149 4.62572 44.0281 8.76941 48.2696" stroke="#171515" stroke-width="0.4" stroke-linecap="round"/>
<path d="M157.313 13.9781C152.522 9.32428 149.803 6.90477 149.803 3.49883C149.803 0.092883 153.428 0.00610835 157.572 4.24758" stroke="#171515" stroke-width="0.4" stroke-linecap="round"/>
<path d="M161.93 13.9781C166.721 9.32428 169.44 6.90477 169.44 3.49883C169.44 0.092883 165.815 0.00610835 161.671 4.24758" stroke="#171515" stroke-width="0.4" stroke-linecap="round"/>
<path d="M157.313 35.65C152.522 30.9962 149.803 28.5766 149.803 25.1707C149.803 21.7648 153.428 21.678 157.572 25.9195" stroke="#171515" stroke-width="0.4" stroke-linecap="round"/>
<path d="M161.93 35.65C166.721 30.9962 169.44 28.5766 169.44 25.1707C169.44 21.7648 165.815 21.678 161.671 25.9195" stroke="#171515" stroke-width="0.4" stroke-linecap="round"/>
<path d="M157.313 58.0001C152.522 53.3463 149.803 50.9267 149.803 47.5208C149.803 44.1149 153.428 44.0281 157.572 48.2696" stroke="#171515" stroke-width="0.4" stroke-linecap="round"/>
<path d="M161.93 58.0001C166.721 53.3463 169.44 50.9267 169.44 47.5208C169.44 44.1149 165.815 44.0281 161.671 48.2696" stroke="#171515" stroke-width="0.4" stroke-linecap="round"/>
<path d="M175.526 13.9781C180.317 9.32428 183.036 6.90477 183.036 3.49883C183.036 0.092883 179.41 0.00610835 175.267 4.24758" stroke="#171515" stroke-width="0.4" stroke-linecap="round"/>
<path d="M175.526 35.65C180.317 30.9962 183.036 28.5766 183.036 25.1707C183.036 21.7648 179.41 21.678 175.267 25.9195" stroke="#171515" stroke-width="0.4" stroke-linecap="round"/>
<path d="M175.526 58.0001C180.317 53.3463 183.036 50.9267 183.036 47.5208C183.036 44.1149 179.41 44.0281 175.267 48.2696" stroke="#171515" stroke-width="0.4" stroke-linecap="round"/>
<path d="M189.122 13.9781C193.914 9.32428 196.633 6.90477 196.633 3.49883C196.633 0.092883 193.007 0.00610835 188.863 4.24758" stroke="#171515" stroke-width="0.4" stroke-linecap="round"/>
<path d="M189.122 35.65C193.914 30.9962 196.633 28.5766 196.633 25.1707C196.633 21.7648 193.007 21.678 188.863 25.9195" stroke="#171515" stroke-width="0.4" stroke-linecap="round"/>
<path d="M189.122 58.0001C193.914 53.3463 196.633 50.9267 196.633 47.5208C196.633 44.1149 193.007 44.0281 188.863 48.2696" stroke="#171515" stroke-width="0.4" stroke-linecap="round"/>
<path d="M202.718 13.9781C207.509 9.32428 210.229 6.90477 210.229 3.49883C210.229 0.092883 206.603 0.00610835 202.459 4.24758" stroke="#171515" stroke-width="0.4" stroke-linecap="round"/>
<path d="M202.718 35.65C207.509 30.9962 210.229 28.5766 210.229 25.1707C210.229 21.7648 206.603 21.678 202.459 25.9195" stroke="#171515" stroke-width="0.4" stroke-linecap="round"/>
<path d="M202.718 58.0001C207.509 53.3463 210.229 50.9267 210.229 47.5208C210.229 44.1149 206.603 44.0281 202.459 48.2696" stroke="#171515" stroke-width="0.4" stroke-linecap="round"/>
<path d="M216.315 13.9781C221.106 9.32428 223.825 6.90477 223.825 3.49883C223.825 0.092883 220.199 0.00610835 216.056 4.24758" stroke="#171515" stroke-width="0.4" stroke-linecap="round"/>
<path d="M216.315 35.65C221.106 30.9962 223.825 28.5766 223.825 25.1707C223.825 21.7648 220.199 21.678 216.056 25.9195" stroke="#171515" stroke-width="0.4" stroke-linecap="round"/>
<path d="M216.315 58.0001C221.106 53.3463 223.825 50.9267 223.825 47.5208C223.825 44.1149 220.199 44.0281 216.056 48.2696" stroke="#171515" stroke-width="0.4" stroke-linecap="round"/>
<path d="M229.911 13.9781C234.703 9.32428 237.422 6.90477 237.422 3.49883C237.422 0.092883 233.796 0.00610835 229.652 4.24758" stroke="#171515" stroke-width="0.4" stroke-linecap="round"/>
<path d="M229.911 35.65C234.703 30.9962 237.422 28.5766 237.422 25.1707C237.422 21.7648 233.796 21.678 229.652 25.9195" stroke="#171515" stroke-width="0.4" stroke-linecap="round"/>
<path d="M229.911 58.0001C234.703 53.3463 237.422 50.9267 237.422 47.5208C237.422 44.1149 233.796 44.0281 229.652 48.2696" stroke="#171515" stroke-width="0.4" stroke-linecap="round"/>
<path d="M243.508 13.9781C248.299 9.32428 251.019 6.90477 251.019 3.49883C251.019 0.092883 247.393 0.00610835 243.249 4.24758" stroke="#171515" stroke-width="0.4" stroke-linecap="round"/>
<path d="M243.508 35.65C248.299 30.9962 251.019 28.5766 251.019 25.1707C251.019 21.7648 247.393 21.678 243.249 25.9195" stroke="#171515" stroke-width="0.4" stroke-linecap="round"/>
<path d="M243.508 58.0001C248.299 53.3463 251.019 50.9267 251.019 47.5208C251.019 44.1149 247.393 44.0281 243.249 48.2696" stroke="#171515" stroke-width="0.4" stroke-linecap="round"/>
<path d="M257.105 13.9781C261.896 9.32428 264.615 6.90477 264.615 3.49883C264.615 0.092883 260.99 0.00610835 256.846 4.24758" stroke="#171515" stroke-width="0.4" stroke-linecap="round"/>
<path d="M257.105 35.65C261.896 30.9962 264.615 28.5766 264.615 25.1707C264.615 21.7648 260.99 21.678 256.846 25.9195" stroke="#171515" stroke-width="0.4" stroke-linecap="round"/>
<path d="M257.105 58.0001C261.896 53.3463 264.615 50.9267 264.615 47.5208C264.615 44.1149 260.99 44.0281 256.846 48.2696" stroke="#171515" stroke-width="0.4" stroke-linecap="round"/>
<path d="M270.701 13.9781C275.492 9.32428 278.211 6.90477 278.211 3.49883C278.211 0.092883 274.585 0.00610835 270.442 4.24758" stroke="#171515" stroke-width="0.4" stroke-linecap="round"/>
<path d="M270.701 35.65C275.492 30.9962 278.211 28.5766 278.211 25.1707C278.211 21.7648 274.585 21.678 270.442 25.9195" stroke="#171515" stroke-width="0.4" stroke-linecap="round"/>
<path d="M270.701 58.0001C275.492 53.3463 278.211 50.9267 278.211 47.5208C278.211 44.1149 274.585 44.0281 270.442 48.2696" stroke="#171515" stroke-width="0.4" stroke-linecap="round"/>
<path d="M284.297 13.9781C289.088 9.32428 291.808 6.90477 291.808 3.49883C291.808 0.092883 288.182 0.00610835 284.038 4.24758" stroke="#171515" stroke-width="0.4" stroke-linecap="round"/>
<path d="M284.297 35.65C289.088 30.9962 291.808 28.5766 291.808 25.1707C291.808 21.7648 288.182 21.678 284.038 25.9195" stroke="#171515" stroke-width="0.4" stroke-linecap="round"/>
<path d="M284.297 58.0001C289.088 53.3463 291.808 50.9267 291.808 47.5208C291.808 44.1149 288.182 44.0281 284.038 48.2696" stroke="#171515" stroke-width="0.4" stroke-linecap="round"/>
<path d="M297.893 13.9781C302.684 9.32428 305.403 6.90477 305.403 3.49883C305.403 0.092883 301.778 0.00610835 297.634 4.24758" stroke="#171515" stroke-width="0.4" stroke-linecap="round"/>
<path d="M297.893 35.65C302.684 30.9962 305.403 28.5766 305.403 25.1707C305.403 21.7648 301.778 21.678 297.634 25.9195" stroke="#171515" stroke-width="0.4" stroke-linecap="round"/>
<path d="M297.893 58.0001C302.684 53.3463 305.403 50.9267 305.403 47.5208C305.403 44.1149 301.778 44.0281 297.634 48.2696" stroke="#171515" stroke-width="0.4" stroke-linecap="round"/>
<path d="M311.49 13.9781C316.281 9.32428 319 6.90477 319 3.49883C319 0.092883 315.374 0.00610835 311.231 4.24758" stroke="#171515" stroke-width="0.4" stroke-linecap="round"/>
<path d="M311.49 35.65C316.281 30.9962 319 28.5766 319 25.1707C319 21.7648 315.374 21.678 311.231 25.9195" stroke="#171515" stroke-width="0.4" stroke-linecap="round"/>
<path d="M311.49 58.0001C316.281 53.3463 319 50.9267 319 47.5208C319 44.1149 315.374 44.0281 311.231 48.2696" stroke="#171515" stroke-width="0.4" stroke-linecap="round"/>
</svg>
