<svg width="440" height="118" viewBox="0 0 440 118" fill="none" xmlns="http://www.w3.org/2000/svg">
<path d="M439 52.9401C434.672 49.423 422.619 44.4989 409.034 52.9401C395.45 61.3813 383.397 56.4573 379.068 52.9401C374.74 49.6297 362.687 44.9952 349.103 52.9401C335.518 60.885 322.466 56.2505 317.639 52.9401C312.811 49.4229 300.059 44.4987 287.673 52.9401C275.287 61.3815 263.534 56.4574 259.205 52.9401C255.043 49.216 243.423 44.0023 230.238 52.9401C217.053 61.8779 205.766 56.6642 201.771 52.9401C197.276 49.216 185.689 44.0024 175.301 52.9401C164.913 61.8778 154.658 56.6642 150.829 52.9401C146.501 49.216 135.746 44.0024 127.356 52.9401C118.965 61.8778 107.545 56.6642 102.884 52.9401C99.2212 49.0092 88.9995 43.5058 77.4128 52.9401C65.826 62.3744 54.6055 56.871 50.4436 52.9401C46.7811 49.0092 37.0588 43.5059 27.4698 52.9401C17.8807 62.3743 5.82782 56.871 0.999994 52.9401" stroke="#171515" stroke-width="0.8" stroke-linecap="round"/>
<path d="M439 111.593C434.672 108.076 422.619 103.152 409.034 111.593C395.45 120.034 383.397 115.11 379.068 111.593C374.74 108.283 362.687 103.648 349.103 111.593C335.518 119.538 322.466 114.903 317.639 111.593C312.811 108.076 300.059 103.152 287.673 111.593C275.287 120.034 263.534 115.11 259.205 111.593C255.043 107.869 243.423 102.655 230.238 111.593C217.053 120.531 205.766 115.317 201.771 111.593C197.276 107.869 185.689 102.655 175.301 111.593C164.913 120.531 154.658 115.317 150.829 111.593C146.501 107.869 135.746 102.655 127.356 111.593C118.965 120.531 107.545 115.317 102.884 111.593C99.2212 107.662 88.9995 102.159 77.4128 111.593C65.826 121.027 54.6055 115.524 50.4436 111.593C46.7811 107.662 37.0588 102.159 27.4698 111.593C17.8807 121.027 5.82782 115.524 0.999994 111.593" stroke="#171515" stroke-width="0.8" stroke-linecap="round"/>
<path d="M439 29.4777C434.672 25.9606 422.619 21.0365 409.034 29.4777C395.45 37.9189 383.397 32.9948 379.068 29.4777C374.74 26.1673 362.687 21.5328 349.103 29.4777C335.518 37.4226 322.466 32.7881 317.639 29.4777C312.811 25.9604 300.059 21.0363 287.673 29.4777C275.287 37.9191 263.534 32.995 259.205 29.4777C255.043 25.7536 243.423 20.5399 230.238 29.4777C217.053 38.4155 205.766 33.2018 201.771 29.4777C197.276 25.7536 185.689 20.54 175.301 29.4777C164.913 38.4154 154.658 33.2018 150.829 29.4777C146.501 25.7536 135.746 20.54 127.356 29.4777C118.965 38.4154 107.545 33.2018 102.884 29.4777C99.2212 25.5468 88.9995 20.0434 77.4128 29.4777C65.826 38.912 54.6055 33.4086 50.4436 29.4777C46.7811 25.5468 37.0588 20.0435 27.4698 29.4777C17.8807 38.9119 5.82782 33.4086 0.999994 29.4777" stroke="#171515" stroke-width="0.8" stroke-linecap="round"/>
<path d="M439 88.132C434.672 84.6148 422.619 79.6908 409.034 88.132C395.45 96.5732 383.397 91.6491 379.068 88.132C374.74 84.8216 362.687 80.1871 349.103 88.132C335.518 96.0769 322.466 91.4424 317.639 88.132C312.811 84.6147 300.059 79.6906 287.673 88.132C275.287 96.5734 263.534 91.6492 259.205 88.132C255.043 84.4079 243.423 79.1942 230.238 88.132C217.053 97.0698 205.766 91.8561 201.771 88.132C197.276 84.4079 185.689 79.1943 175.301 88.132C164.913 97.0697 154.658 91.856 150.829 88.132C146.501 84.4079 135.746 79.1943 127.356 88.132C118.965 97.0697 107.545 91.856 102.884 88.132C99.2212 84.2011 88.9995 78.6977 77.4128 88.132C65.826 97.5663 54.6055 92.0629 50.4436 88.132C46.7811 84.2011 37.0588 78.6978 27.4698 88.132C17.8807 97.5662 5.82782 92.0629 0.999994 88.132" stroke="#171515" stroke-width="0.8" stroke-linecap="round"/>
<path d="M439 6.40739C434.672 2.89024 422.619 -2.03377 409.034 6.40739C395.45 14.8485 383.397 9.92454 379.068 6.40739C374.74 3.09703 362.687 -1.53748 349.103 6.40739C335.518 14.3523 322.466 9.71775 317.639 6.40739C312.811 2.89014 300.059 -2.03402 287.673 6.40739C275.287 14.8488 263.534 9.92464 259.205 6.40739C255.043 2.68329 243.423 -2.53045 230.238 6.40739C217.053 15.3452 205.766 10.1315 201.771 6.40739C197.276 2.68333 185.689 -2.53034 175.301 6.40739C164.913 15.3451 154.658 10.1314 150.829 6.40739C146.501 2.68333 135.746 -2.53034 127.356 6.40739C118.965 15.3451 107.545 10.1314 102.884 6.40739C99.2212 2.47644 88.9995 -3.02688 77.4128 6.40739C65.826 15.8417 54.6055 10.3383 50.4436 6.40739C46.7811 2.47649 37.0588 -3.02677 27.4698 6.40739C17.8807 15.8415 5.82782 10.3383 0.999994 6.40739" stroke="#171515" stroke-width="0.8" stroke-linecap="round"/>
<path d="M439 64.6701C434.672 61.1529 422.619 56.2289 409.034 64.6701C395.45 73.1112 383.397 68.1872 379.068 64.6701C374.74 61.3597 362.687 56.7252 349.103 64.6701C335.518 72.6149 322.466 67.9804 317.639 64.6701C312.811 61.1528 300.059 56.2287 287.673 64.6701C275.287 73.1115 263.534 68.1873 259.205 64.6701C255.043 60.946 243.423 55.7322 230.238 64.6701C217.053 73.6079 205.766 68.3942 201.771 64.6701C197.276 60.946 185.689 55.7324 175.301 64.6701C164.913 73.6078 154.658 68.3941 150.829 64.6701C146.501 60.946 135.746 55.7324 127.356 64.6701C118.965 73.6078 107.545 68.3941 102.884 64.6701C99.2212 60.7391 88.9995 55.2358 77.4128 64.6701C65.826 74.1043 54.6055 68.601 50.4436 64.6701C46.7811 60.7392 37.0588 55.2359 27.4698 64.6701C17.8807 74.1042 5.82782 68.601 0.999994 64.6701" stroke="#171515" stroke-width="0.8" stroke-linecap="round"/>
<path d="M439 41.2087C434.672 37.6915 422.619 32.7675 409.034 41.2087C395.45 49.6498 383.397 44.7258 379.068 41.2087C374.74 37.8983 362.687 33.2638 349.103 41.2087C335.518 49.1535 322.466 44.519 317.639 41.2087C312.811 37.6914 300.059 32.7673 287.673 41.2087C275.287 49.6501 263.534 44.7259 259.205 41.2087C255.043 37.4846 243.423 32.2708 230.238 41.2087C217.053 50.1465 205.766 44.9328 201.771 41.2087C197.276 37.4846 185.689 32.2709 175.301 41.2087C164.913 50.1464 154.658 44.9327 150.829 41.2087C146.501 37.4846 135.746 32.2709 127.356 41.2087C118.965 50.1464 107.545 44.9327 102.884 41.2087C99.2212 37.2777 88.9995 31.7744 77.4128 41.2087C65.826 50.6429 54.6055 45.1396 50.4436 41.2087C46.7811 37.2778 37.0588 31.7745 27.4698 41.2087C17.8807 50.6428 5.82782 45.1396 0.999994 41.2087" stroke="#171515" stroke-width="0.8" stroke-linecap="round"/>
<path d="M439 99.8625C434.672 96.3453 422.619 91.4213 409.034 99.8625C395.45 108.304 383.397 103.38 379.068 99.8625C374.74 96.5521 362.687 91.9176 349.103 99.8625C335.518 107.807 322.466 103.173 317.639 99.8625C312.811 96.3452 300.059 91.4211 287.673 99.8625C275.287 108.304 263.534 103.38 259.205 99.8625C255.043 96.1384 243.423 90.9246 230.238 99.8625C217.053 108.8 205.766 103.587 201.771 99.8625C197.276 96.1384 185.689 90.9247 175.301 99.8625C164.913 108.8 154.658 103.587 150.829 99.8625C146.501 96.1384 135.746 90.9247 127.356 99.8625C118.965 108.8 107.545 103.587 102.884 99.8625C99.2212 95.9315 88.9995 90.4282 77.4128 99.8625C65.826 109.297 54.6055 103.793 50.4436 99.8625C46.7811 95.9316 37.0588 90.4283 27.4698 99.8625C17.8807 109.297 5.82782 103.793 0.999994 99.8625" stroke="#171515" stroke-width="0.8" stroke-linecap="round"/>
<path d="M439 17.7472C434.672 14.2301 422.619 9.30607 409.034 17.7472C395.45 26.1884 383.397 21.2644 379.068 17.7472C374.74 14.4369 362.687 9.80236 349.103 17.7472C335.518 25.6921 322.466 21.0576 317.639 17.7472C312.811 14.23 300.059 9.30583 287.673 17.7472C275.287 26.1886 263.534 21.2645 259.205 17.7472C255.043 14.0231 243.423 8.8094 230.238 17.7472C217.053 26.6851 205.766 21.4713 201.771 17.7472C197.276 14.0232 185.689 8.8095 175.301 17.7472C164.913 26.685 154.658 21.4713 150.829 17.7472C146.501 14.0232 135.746 8.8095 127.356 17.7472C118.965 26.685 107.545 21.4713 102.884 17.7472C99.2212 13.8163 88.9995 8.31297 77.4128 17.7472C65.826 27.1815 54.6055 21.6782 50.4436 17.7472C46.7811 13.8163 37.0588 8.31307 27.4698 17.7472C17.8807 27.1814 5.82782 21.6781 0.999994 17.7472" stroke="#171515" stroke-width="0.8" stroke-linecap="round"/>
<path d="M439 76.401C434.672 72.8839 422.619 67.9599 409.034 76.401C395.45 84.8422 383.397 79.9182 379.068 76.401C374.74 73.0907 362.687 68.4562 349.103 76.401C335.518 84.3459 322.466 79.7114 317.639 76.401C312.811 72.8838 300.059 67.9596 287.673 76.401C275.287 84.8424 263.534 79.9183 259.205 76.401C255.043 72.6769 243.423 67.4632 230.238 76.401C217.053 85.3389 205.766 80.1251 201.771 76.401C197.276 72.677 185.689 67.4633 175.301 76.401C164.913 85.3388 154.658 80.1251 150.829 76.401C146.501 72.677 135.746 67.4633 127.356 76.401C118.965 85.3388 107.545 80.1251 102.884 76.401C99.2212 72.4701 88.9995 66.9668 77.4128 76.401C65.826 85.8353 54.6055 80.332 50.4436 76.401C46.7811 72.4701 37.0588 66.9669 27.4698 76.401C17.8807 85.8352 5.82782 80.3319 0.999994 76.401" stroke="#171515" stroke-width="0.8" stroke-linecap="round"/>
</svg>
