<svg width="320" height="59" viewBox="0 0 320 59" fill="none" xmlns="http://www.w3.org/2000/svg">
<line y1="52.2116" x2="30.32" y2="52.2116" stroke="#171515" stroke-width="0.4"/>
<line y1="46.4099" x2="30.32" y2="46.4099" stroke="#171515" stroke-width="0.4"/>
<line y1="40.6086" x2="30.32" y2="40.6086" stroke="#171515" stroke-width="0.4"/>
<line y1="34.8073" x2="30.32" y2="34.8073" stroke="#171515" stroke-width="0.4"/>
<line y1="29.0056" x2="30.32" y2="29.0056" stroke="#171515" stroke-width="0.4"/>
<line y1="23.2043" x2="30.32" y2="23.2043" stroke="#171515" stroke-width="0.4"/>
<line x1="72.1914" y1="52.2116" x2="102.511" y2="52.2116" stroke="#171515" stroke-width="0.4"/>
<line x1="72.1914" y1="46.4099" x2="102.511" y2="46.4099" stroke="#171515" stroke-width="0.4"/>
<line x1="72.1914" y1="40.6086" x2="102.511" y2="40.6086" stroke="#171515" stroke-width="0.4"/>
<line x1="72.1914" y1="34.8073" x2="102.511" y2="34.8073" stroke="#171515" stroke-width="0.4"/>
<line x1="72.1914" y1="29.0056" x2="102.511" y2="29.0056" stroke="#171515" stroke-width="0.4"/>
<line x1="72.1914" y1="23.2043" x2="102.511" y2="23.2043" stroke="#171515" stroke-width="0.4"/>
<line x1="36.2598" y1="52.2116" x2="66.5798" y2="52.2116" stroke="#171515" stroke-width="0.4"/>
<line x1="36.2598" y1="46.4099" x2="66.5798" y2="46.4099" stroke="#171515" stroke-width="0.4"/>
<line x1="36.2598" y1="40.6086" x2="66.5798" y2="40.6086" stroke="#171515" stroke-width="0.4"/>
<line x1="36.2598" y1="34.8073" x2="66.5798" y2="34.8073" stroke="#171515" stroke-width="0.4"/>
<line x1="36.2598" y1="29.0056" x2="66.5798" y2="29.0056" stroke="#171515" stroke-width="0.4"/>
<line x1="36.2598" y1="23.2043" x2="66.5798" y2="23.2043" stroke="#171515" stroke-width="0.4"/>
<line x1="144.382" y1="52.2116" x2="174.702" y2="52.2116" stroke="#171515" stroke-width="0.4"/>
<line x1="144.382" y1="46.4099" x2="174.702" y2="46.4099" stroke="#171515" stroke-width="0.4"/>
<line x1="144.382" y1="40.6086" x2="174.702" y2="40.6086" stroke="#171515" stroke-width="0.4"/>
<line x1="144.382" y1="34.8073" x2="174.702" y2="34.8073" stroke="#171515" stroke-width="0.4"/>
<line x1="144.382" y1="29.0056" x2="174.702" y2="29.0056" stroke="#171515" stroke-width="0.4"/>
<line x1="144.382" y1="23.2043" x2="174.702" y2="23.2043" stroke="#171515" stroke-width="0.4"/>
<line x1="108.287" y1="52.2111" x2="138.607" y2="52.2111" stroke="#171515" stroke-width="0.4"/>
<line x1="108.287" y1="46.4099" x2="138.607" y2="46.4099" stroke="#171515" stroke-width="0.4"/>
<line x1="108.287" y1="40.6086" x2="138.607" y2="40.6086" stroke="#171515" stroke-width="0.4"/>
<line x1="108.287" y1="34.8073" x2="138.607" y2="34.8073" stroke="#171515" stroke-width="0.4"/>
<line x1="108.287" y1="29.0051" x2="138.607" y2="29.0051" stroke="#171515" stroke-width="0.4"/>
<line x1="108.287" y1="23.2043" x2="138.607" y2="23.2043" stroke="#171515" stroke-width="0.4"/>
<line x1="180.478" y1="52.2116" x2="210.798" y2="52.2116" stroke="#171515" stroke-width="0.4"/>
<line x1="180.478" y1="46.4099" x2="210.798" y2="46.4099" stroke="#171515" stroke-width="0.4"/>
<line x1="180.478" y1="40.6086" x2="210.798" y2="40.6086" stroke="#171515" stroke-width="0.4"/>
<line x1="180.478" y1="34.8073" x2="210.798" y2="34.8073" stroke="#171515" stroke-width="0.4"/>
<line x1="180.478" y1="29.0056" x2="210.798" y2="29.0056" stroke="#171515" stroke-width="0.4"/>
<line x1="180.478" y1="23.2043" x2="210.798" y2="23.2043" stroke="#171515" stroke-width="0.4"/>
<line x1="216.572" y1="52.2116" x2="246.892" y2="52.2116" stroke="#171515" stroke-width="0.4"/>
<line x1="216.572" y1="46.4099" x2="246.892" y2="46.4099" stroke="#171515" stroke-width="0.4"/>
<line x1="216.572" y1="40.6086" x2="246.892" y2="40.6086" stroke="#171515" stroke-width="0.4"/>
<line x1="216.572" y1="34.8073" x2="246.892" y2="34.8073" stroke="#171515" stroke-width="0.4"/>
<line x1="216.572" y1="29.0056" x2="246.892" y2="29.0056" stroke="#171515" stroke-width="0.4"/>
<line x1="216.573" y1="23.2043" x2="246.893" y2="23.2043" stroke="#171515" stroke-width="0.4"/>
<line x1="288.762" y1="52.2116" x2="319.082" y2="52.2116" stroke="#171515" stroke-width="0.4"/>
<line x1="288.762" y1="46.4099" x2="319.082" y2="46.4099" stroke="#171515" stroke-width="0.4"/>
<line x1="288.762" y1="40.6086" x2="319.082" y2="40.6086" stroke="#171515" stroke-width="0.4"/>
<line x1="288.762" y1="34.8073" x2="319.082" y2="34.8073" stroke="#171515" stroke-width="0.4"/>
<line x1="288.762" y1="29.0056" x2="319.082" y2="29.0056" stroke="#171515" stroke-width="0.4"/>
<line x1="288.762" y1="23.2043" x2="319.082" y2="23.2043" stroke="#171515" stroke-width="0.4"/>
<line x1="252.667" y1="34.8073" x2="282.987" y2="34.8073" stroke="#171515" stroke-width="0.4"/>
<line x1="252.667" y1="29.0056" x2="282.987" y2="29.0056" stroke="#171515" stroke-width="0.4"/>
<line x1="252.667" y1="23.2043" x2="282.987" y2="23.2043" stroke="#171515" stroke-width="0.4"/>
<line x1="252.667" y1="17.4025" x2="282.987" y2="17.4025" stroke="#171515" stroke-width="0.4"/>
<line x1="252.667" y1="11.6018" x2="282.987" y2="11.6018" stroke="#171515" stroke-width="0.4"/>
<line x1="252.667" y1="5.8" x2="282.987" y2="5.8" stroke="#171515" stroke-width="0.4"/>
</svg>
