<svg width="668" height="116" viewBox="0 0 668 116" fill="none" xmlns="http://www.w3.org/2000/svg">
<path d="M312.579 20.6453C305.947 13.9593 302.184 10.4832 302.184 5.59C302.184 0.696769 307.202 0.572102 312.937 6.66572" stroke="#171515" stroke-width="0.8" stroke-linecap="round"/>
<path d="M312.579 51.781C305.947 45.095 302.184 41.619 302.184 36.7257C302.184 31.8325 307.202 31.7078 312.937 37.8015" stroke="#171515" stroke-width="0.8" stroke-linecap="round"/>
<path d="M312.579 83.8904C305.947 77.2044 302.184 73.7283 302.184 68.8351C302.184 63.9419 307.202 63.8172 312.937 69.9108" stroke="#171515" stroke-width="0.8" stroke-linecap="round"/>
<path d="M312.579 115C305.947 108.314 302.184 104.838 302.184 99.9445C302.184 95.0513 307.202 94.9266 312.937 101.02" stroke="#171515" stroke-width="0.8" stroke-linecap="round"/>
<path d="M293.76 20.6453C287.129 13.9593 283.365 10.4832 283.365 5.59C283.365 0.696769 288.384 0.572102 294.119 6.66572" stroke="#171515" stroke-width="0.8" stroke-linecap="round"/>
<path d="M293.76 51.781C287.129 45.095 283.365 41.619 283.365 36.7257C283.365 31.8325 288.384 31.7078 294.119 37.8015" stroke="#171515" stroke-width="0.8" stroke-linecap="round"/>
<path d="M293.76 83.8904C287.129 77.2044 283.365 73.7283 283.365 68.8351C283.365 63.9419 288.384 63.8172 294.119 69.9108" stroke="#171515" stroke-width="0.8" stroke-linecap="round"/>
<path d="M293.76 115C287.129 108.314 283.365 104.838 283.365 99.9445C283.365 95.0513 288.384 94.9266 294.119 101.02" stroke="#171515" stroke-width="0.8" stroke-linecap="round"/>
<path d="M274.942 20.6453C268.311 13.9593 264.547 10.4832 264.547 5.59C264.547 0.696769 269.565 0.572102 275.3 6.66572" stroke="#171515" stroke-width="0.8" stroke-linecap="round"/>
<path d="M274.942 51.781C268.311 45.095 264.547 41.619 264.547 36.7257C264.547 31.8325 269.565 31.7078 275.3 37.8015" stroke="#171515" stroke-width="0.8" stroke-linecap="round"/>
<path d="M274.942 83.8904C268.311 77.2044 264.547 73.7283 264.547 68.8351C264.547 63.9419 269.565 63.8172 275.3 69.9108" stroke="#171515" stroke-width="0.8" stroke-linecap="round"/>
<path d="M274.942 115C268.311 108.314 264.547 104.838 264.547 99.9445C264.547 95.0513 269.565 94.9266 275.3 101.02" stroke="#171515" stroke-width="0.8" stroke-linecap="round"/>
<path d="M256.124 20.6453C249.492 13.9593 245.729 10.4832 245.729 5.59C245.729 0.696769 250.747 0.572102 256.482 6.66572" stroke="#171515" stroke-width="0.8" stroke-linecap="round"/>
<path d="M256.124 51.781C249.492 45.095 245.729 41.619 245.729 36.7257C245.729 31.8325 250.747 31.7078 256.482 37.8015" stroke="#171515" stroke-width="0.8" stroke-linecap="round"/>
<path d="M256.124 83.8904C249.492 77.2044 245.729 73.7283 245.729 68.8351C245.729 63.9419 250.747 63.8172 256.482 69.9108" stroke="#171515" stroke-width="0.8" stroke-linecap="round"/>
<path d="M256.124 115C249.492 108.314 245.729 104.838 245.729 99.9445C245.729 95.0513 250.747 94.9266 256.482 101.02" stroke="#171515" stroke-width="0.8" stroke-linecap="round"/>
<path d="M237.305 20.6453C230.674 13.9593 226.91 10.4832 226.91 5.59C226.91 0.696769 231.928 0.572102 237.664 6.66572" stroke="#171515" stroke-width="0.8" stroke-linecap="round"/>
<path d="M237.305 51.781C230.674 45.095 226.91 41.619 226.91 36.7257C226.91 31.8325 231.928 31.7078 237.664 37.8015" stroke="#171515" stroke-width="0.8" stroke-linecap="round"/>
<path d="M237.305 83.8904C230.674 77.2044 226.91 73.7283 226.91 68.8351C226.91 63.9419 231.928 63.8172 237.664 69.9108" stroke="#171515" stroke-width="0.8" stroke-linecap="round"/>
<path d="M237.305 115C230.674 108.314 226.91 104.838 226.91 99.9445C226.91 95.0513 231.928 94.9266 237.664 101.02" stroke="#171515" stroke-width="0.8" stroke-linecap="round"/>
<path d="M218.487 20.6453C211.856 13.9593 208.092 10.4832 208.092 5.59C208.092 0.696769 213.11 0.572102 218.845 6.66572" stroke="#171515" stroke-width="0.8" stroke-linecap="round"/>
<path d="M105.487 20.6453C98.8555 13.9593 95.0918 10.4832 95.0918 5.59C95.0918 0.696769 100.11 0.572102 105.845 6.66572" stroke="#171515" stroke-width="0.8" stroke-linecap="round"/>
<path d="M218.487 51.781C211.856 45.095 208.092 41.619 208.092 36.7257C208.092 31.8325 213.11 31.7078 218.845 37.8015" stroke="#171515" stroke-width="0.8" stroke-linecap="round"/>
<path d="M105.487 51.781C98.8555 45.095 95.0918 41.619 95.0918 36.7257C95.0918 31.8325 100.11 31.7078 105.845 37.8015" stroke="#171515" stroke-width="0.8" stroke-linecap="round"/>
<path d="M218.487 83.8904C211.856 77.2044 208.092 73.7283 208.092 68.8351C208.092 63.9419 213.11 63.8172 218.845 69.9108" stroke="#171515" stroke-width="0.8" stroke-linecap="round"/>
<path d="M105.487 83.8904C98.8555 77.2044 95.0918 73.7283 95.0918 68.8351C95.0918 63.9419 100.11 63.8172 105.845 69.9108" stroke="#171515" stroke-width="0.8" stroke-linecap="round"/>
<path d="M218.487 115C211.856 108.314 208.092 104.838 208.092 99.9445C208.092 95.0513 213.11 94.9266 218.845 101.02" stroke="#171515" stroke-width="0.8" stroke-linecap="round"/>
<path d="M105.487 115C98.8555 108.314 95.0918 104.838 95.0918 99.9445C95.0918 95.0513 100.11 94.9266 105.845 101.02" stroke="#171515" stroke-width="0.8" stroke-linecap="round"/>
<path d="M199.668 20.6453C193.037 13.9593 189.273 10.4832 189.273 5.59C189.273 0.696769 194.292 0.572102 200.027 6.66572" stroke="#171515" stroke-width="0.8" stroke-linecap="round"/>
<path d="M86.6685 20.6453C80.0372 13.9593 76.2734 10.4832 76.2734 5.59C76.2734 0.696769 81.2917 0.572102 87.0269 6.66572" stroke="#171515" stroke-width="0.8" stroke-linecap="round"/>
<path d="M199.668 51.781C193.037 45.095 189.273 41.619 189.273 36.7257C189.273 31.8325 194.292 31.7078 200.027 37.8015" stroke="#171515" stroke-width="0.8" stroke-linecap="round"/>
<path d="M86.6685 51.781C80.0372 45.095 76.2734 41.619 76.2734 36.7257C76.2734 31.8325 81.2917 31.7078 87.0269 37.8015" stroke="#171515" stroke-width="0.8" stroke-linecap="round"/>
<path d="M199.668 83.8904C193.037 77.2044 189.273 73.7283 189.273 68.8351C189.273 63.9419 194.292 63.8172 200.027 69.9108" stroke="#171515" stroke-width="0.8" stroke-linecap="round"/>
<path d="M86.6685 83.8904C80.0372 77.2044 76.2734 73.7283 76.2734 68.8351C76.2734 63.9419 81.2917 63.8172 87.0269 69.9108" stroke="#171515" stroke-width="0.8" stroke-linecap="round"/>
<path d="M199.668 115C193.037 108.314 189.273 104.838 189.273 99.9445C189.273 95.0513 194.292 94.9266 200.027 101.02" stroke="#171515" stroke-width="0.8" stroke-linecap="round"/>
<path d="M86.6685 115C80.0372 108.314 76.2734 104.838 76.2734 99.9445C76.2734 95.0513 81.2917 94.9266 87.0269 101.02" stroke="#171515" stroke-width="0.8" stroke-linecap="round"/>
<path d="M180.85 20.6453C174.219 13.9593 170.455 10.4832 170.455 5.59C170.455 0.696769 175.473 0.572102 181.209 6.66572" stroke="#171515" stroke-width="0.8" stroke-linecap="round"/>
<path d="M67.8501 20.6453C61.2188 13.9593 57.4551 10.4832 57.4551 5.59C57.4551 0.696769 62.4734 0.572102 68.2086 6.66572" stroke="#171515" stroke-width="0.8" stroke-linecap="round"/>
<path d="M180.85 51.781C174.219 45.095 170.455 41.619 170.455 36.7257C170.455 31.8325 175.473 31.7078 181.209 37.8015" stroke="#171515" stroke-width="0.8" stroke-linecap="round"/>
<path d="M67.8501 51.781C61.2188 45.095 57.4551 41.619 57.4551 36.7257C57.4551 31.8325 62.4734 31.7078 68.2086 37.8015" stroke="#171515" stroke-width="0.8" stroke-linecap="round"/>
<path d="M180.85 83.8904C174.219 77.2044 170.455 73.7283 170.455 68.8351C170.455 63.9419 175.473 63.8172 181.209 69.9108" stroke="#171515" stroke-width="0.8" stroke-linecap="round"/>
<path d="M67.8501 83.8904C61.2188 77.2044 57.4551 73.7283 57.4551 68.8351C57.4551 63.9419 62.4734 63.8172 68.2086 69.9108" stroke="#171515" stroke-width="0.8" stroke-linecap="round"/>
<path d="M180.85 115C174.219 108.314 170.455 104.838 170.455 99.9445C170.455 95.0513 175.473 94.9266 181.209 101.02" stroke="#171515" stroke-width="0.8" stroke-linecap="round"/>
<path d="M67.8501 115C61.2188 108.314 57.4551 104.838 57.4551 99.9445C57.4551 95.0513 62.4734 94.9266 68.2086 101.02" stroke="#171515" stroke-width="0.8" stroke-linecap="round"/>
<path d="M162.032 20.6453C155.4 13.9593 151.637 10.4832 151.637 5.59C151.637 0.696769 156.655 0.572102 162.39 6.66572" stroke="#171515" stroke-width="0.8" stroke-linecap="round"/>
<path d="M49.0318 20.6453C42.4004 13.9593 38.6367 10.4832 38.6367 5.59C38.6367 0.696769 43.655 0.572102 49.3902 6.66572" stroke="#171515" stroke-width="0.8" stroke-linecap="round"/>
<path d="M162.032 51.781C155.4 45.095 151.637 41.619 151.637 36.7257C151.637 31.8325 156.655 31.7078 162.39 37.8015" stroke="#171515" stroke-width="0.8" stroke-linecap="round"/>
<path d="M49.0318 51.781C42.4004 45.095 38.6367 41.619 38.6367 36.7257C38.6367 31.8325 43.655 31.7078 49.3902 37.8015" stroke="#171515" stroke-width="0.8" stroke-linecap="round"/>
<path d="M162.032 83.8904C155.4 77.2044 151.637 73.7283 151.637 68.8351C151.637 63.9419 156.655 63.8172 162.39 69.9108" stroke="#171515" stroke-width="0.8" stroke-linecap="round"/>
<path d="M49.0318 83.8904C42.4004 77.2044 38.6367 73.7283 38.6367 68.8351C38.6367 63.9419 43.655 63.8172 49.3902 69.9108" stroke="#171515" stroke-width="0.8" stroke-linecap="round"/>
<path d="M162.032 115C155.4 108.314 151.637 104.838 151.637 99.9445C151.637 95.0513 156.655 94.9266 162.39 101.02" stroke="#171515" stroke-width="0.8" stroke-linecap="round"/>
<path d="M49.0318 115C42.4004 108.314 38.6367 104.838 38.6367 99.9445C38.6367 95.0513 43.655 94.9266 49.3902 101.02" stroke="#171515" stroke-width="0.8" stroke-linecap="round"/>
<path d="M143.213 20.6453C136.582 13.9593 132.818 10.4832 132.818 5.59C132.818 0.696769 137.837 0.572102 143.572 6.66572" stroke="#171515" stroke-width="0.8" stroke-linecap="round"/>
<path d="M30.2134 20.6453C23.5821 13.9593 19.8184 10.4832 19.8184 5.59C19.8184 0.696769 24.8367 0.572102 30.5719 6.66572" stroke="#171515" stroke-width="0.8" stroke-linecap="round"/>
<path d="M143.213 51.781C136.582 45.095 132.818 41.619 132.818 36.7257C132.818 31.8325 137.837 31.7078 143.572 37.8015" stroke="#171515" stroke-width="0.8" stroke-linecap="round"/>
<path d="M30.2134 51.781C23.5821 45.095 19.8184 41.619 19.8184 36.7257C19.8184 31.8325 24.8367 31.7078 30.5719 37.8015" stroke="#171515" stroke-width="0.8" stroke-linecap="round"/>
<path d="M143.213 83.8904C136.582 77.2044 132.818 73.7283 132.818 68.8351C132.818 63.9419 137.837 63.8172 143.572 69.9108" stroke="#171515" stroke-width="0.8" stroke-linecap="round"/>
<path d="M30.2134 83.8904C23.5821 77.2044 19.8184 73.7283 19.8184 68.8351C19.8184 63.9419 24.8367 63.8172 30.5719 69.9108" stroke="#171515" stroke-width="0.8" stroke-linecap="round"/>
<path d="M143.213 115C136.582 108.314 132.818 104.838 132.818 99.9445C132.818 95.0513 137.837 94.9266 143.572 101.02" stroke="#171515" stroke-width="0.8" stroke-linecap="round"/>
<path d="M30.2134 115C23.5821 108.314 19.8184 104.838 19.8184 99.9445C19.8184 95.0513 24.8367 94.9266 30.5719 101.02" stroke="#171515" stroke-width="0.8" stroke-linecap="round"/>
<path d="M124.395 20.6452C117.764 13.9592 114 10.4832 114 5.58994C114 0.696711 119.018 0.572044 124.753 6.66566" stroke="#171515" stroke-width="0.8" stroke-linecap="round"/>
<path d="M11.395 20.6452C4.76372 13.9592 1 10.4832 1 5.58994C1 0.696711 6.0183 0.572044 11.7535 6.66566" stroke="#171515" stroke-width="0.8" stroke-linecap="round"/>
<path d="M124.395 51.781C117.764 45.095 114 41.619 114 36.7257C114 31.8325 119.018 31.7078 124.753 37.8015" stroke="#171515" stroke-width="0.8" stroke-linecap="round"/>
<path d="M11.395 51.781C4.76372 45.095 1 41.619 1 36.7257C1 31.8325 6.0183 31.7078 11.7535 37.8015" stroke="#171515" stroke-width="0.8" stroke-linecap="round"/>
<path d="M124.395 83.8904C117.764 77.2044 114 73.7283 114 68.8351C114 63.9419 119.018 63.8172 124.753 69.9108" stroke="#171515" stroke-width="0.8" stroke-linecap="round"/>
<path d="M11.395 83.8904C4.76372 77.2044 1 73.7283 1 68.8351C1 63.9419 6.0183 63.8172 11.7535 69.9108" stroke="#171515" stroke-width="0.8" stroke-linecap="round"/>
<path d="M124.395 115C117.764 108.314 114 104.838 114 99.9445C114 95.0513 119.018 94.9266 124.753 101.02" stroke="#171515" stroke-width="0.8" stroke-linecap="round"/>
<path d="M11.395 115C4.76372 108.314 1 104.838 1 99.9445C1 95.0513 6.0183 94.9266 11.7535 101.02" stroke="#171515" stroke-width="0.8" stroke-linecap="round"/>
<path d="M330.35 20.6453C323.719 13.9593 319.955 10.4832 319.955 5.59C319.955 0.696769 324.973 0.572103 330.709 6.66572" stroke="#171515" stroke-width="0.8" stroke-linecap="round"/>
<path d="M336.74 20.6453C343.371 13.9593 347.135 10.4832 347.135 5.59C347.135 0.696769 342.116 0.572103 336.381 6.66572" stroke="#171515" stroke-width="0.8" stroke-linecap="round"/>
<path d="M330.35 51.781C323.719 45.095 319.955 41.619 319.955 36.7257C319.955 31.8325 324.973 31.7078 330.709 37.8015" stroke="#171515" stroke-width="0.8" stroke-linecap="round"/>
<path d="M336.74 51.781C343.371 45.095 347.135 41.619 347.135 36.7257C347.135 31.8325 342.116 31.7078 336.381 37.8015" stroke="#171515" stroke-width="0.8" stroke-linecap="round"/>
<path d="M330.35 83.8904C323.719 77.2044 319.955 73.7283 319.955 68.8351C319.955 63.9419 324.973 63.8172 330.709 69.9108" stroke="#171515" stroke-width="0.8" stroke-linecap="round"/>
<path d="M336.74 83.8904C343.371 77.2044 347.135 73.7283 347.135 68.8351C347.135 63.9419 342.116 63.8172 336.381 69.9108" stroke="#171515" stroke-width="0.8" stroke-linecap="round"/>
<path d="M330.35 115C323.719 108.314 319.955 104.838 319.955 99.9445C319.955 95.0513 324.973 94.9266 330.709 101.02" stroke="#171515" stroke-width="0.8" stroke-linecap="round"/>
<path d="M336.74 115C343.371 108.314 347.135 104.838 347.135 99.9445C347.135 95.0513 342.116 94.9266 336.381 101.02" stroke="#171515" stroke-width="0.8" stroke-linecap="round"/>
<path d="M355.558 20.6453C362.189 13.9593 365.953 10.4832 365.953 5.59C365.953 0.696769 360.935 0.572103 355.2 6.66572" stroke="#171515" stroke-width="0.8" stroke-linecap="round"/>
<path d="M355.558 51.781C362.189 45.095 365.953 41.619 365.953 36.7257C365.953 31.8325 360.935 31.7078 355.2 37.8015" stroke="#171515" stroke-width="0.8" stroke-linecap="round"/>
<path d="M355.558 83.8904C362.189 77.2044 365.953 73.7283 365.953 68.8351C365.953 63.9419 360.935 63.8172 355.2 69.9108" stroke="#171515" stroke-width="0.8" stroke-linecap="round"/>
<path d="M355.558 115C362.189 108.314 365.953 104.838 365.953 99.9445C365.953 95.0513 360.935 94.9266 355.2 101.02" stroke="#171515" stroke-width="0.8" stroke-linecap="round"/>
<path d="M374.376 20.6453C381.008 13.9593 384.771 10.4832 384.771 5.59C384.771 0.696769 379.753 0.572103 374.018 6.66572" stroke="#171515" stroke-width="0.8" stroke-linecap="round"/>
<path d="M374.376 51.781C381.008 45.095 384.771 41.619 384.771 36.7257C384.771 31.8325 379.753 31.7078 374.018 37.8015" stroke="#171515" stroke-width="0.8" stroke-linecap="round"/>
<path d="M374.376 83.8904C381.008 77.2044 384.771 73.7283 384.771 68.8351C384.771 63.9419 379.753 63.8172 374.018 69.9108" stroke="#171515" stroke-width="0.8" stroke-linecap="round"/>
<path d="M374.376 115C381.008 108.314 384.771 104.838 384.771 99.9445C384.771 95.0513 379.753 94.9266 374.018 101.02" stroke="#171515" stroke-width="0.8" stroke-linecap="round"/>
<path d="M393.195 20.6453C399.826 13.9593 403.59 10.4832 403.59 5.59C403.59 0.696769 398.572 0.572103 392.836 6.66572" stroke="#171515" stroke-width="0.8" stroke-linecap="round"/>
<path d="M393.195 51.781C399.826 45.095 403.59 41.619 403.59 36.7257C403.59 31.8325 398.572 31.7078 392.836 37.8015" stroke="#171515" stroke-width="0.8" stroke-linecap="round"/>
<path d="M393.195 83.8904C399.826 77.2044 403.59 73.7283 403.59 68.8351C403.59 63.9419 398.572 63.8172 392.836 69.9108" stroke="#171515" stroke-width="0.8" stroke-linecap="round"/>
<path d="M393.195 115C399.826 108.314 403.59 104.838 403.59 99.9445C403.59 95.0513 398.572 94.9266 392.836 101.02" stroke="#171515" stroke-width="0.8" stroke-linecap="round"/>
<path d="M412.013 20.6453C418.644 13.9593 422.408 10.4832 422.408 5.59C422.408 0.696769 417.39 0.572103 411.655 6.66572" stroke="#171515" stroke-width="0.8" stroke-linecap="round"/>
<path d="M412.013 51.781C418.644 45.095 422.408 41.619 422.408 36.7257C422.408 31.8325 417.39 31.7078 411.655 37.8015" stroke="#171515" stroke-width="0.8" stroke-linecap="round"/>
<path d="M412.013 83.8904C418.644 77.2044 422.408 73.7283 422.408 68.8351C422.408 63.9419 417.39 63.8172 411.655 69.9108" stroke="#171515" stroke-width="0.8" stroke-linecap="round"/>
<path d="M412.013 115C418.644 108.314 422.408 104.838 422.408 99.9445C422.408 95.0513 417.39 94.9266 411.655 101.02" stroke="#171515" stroke-width="0.8" stroke-linecap="round"/>
<path d="M430.832 20.6453C437.463 13.9593 441.227 10.4832 441.227 5.59C441.227 0.696769 436.208 0.572103 430.473 6.66572" stroke="#171515" stroke-width="0.8" stroke-linecap="round"/>
<path d="M430.832 51.781C437.463 45.095 441.227 41.619 441.227 36.7257C441.227 31.8325 436.208 31.7078 430.473 37.8015" stroke="#171515" stroke-width="0.8" stroke-linecap="round"/>
<path d="M430.832 83.8904C437.463 77.2044 441.227 73.7283 441.227 68.8351C441.227 63.9419 436.208 63.8172 430.473 69.9108" stroke="#171515" stroke-width="0.8" stroke-linecap="round"/>
<path d="M430.832 115C437.463 108.314 441.227 104.838 441.227 99.9445C441.227 95.0513 436.208 94.9266 430.473 101.02" stroke="#171515" stroke-width="0.8" stroke-linecap="round"/>
<path d="M449.651 20.6453C456.282 13.9593 460.046 10.4832 460.046 5.59C460.046 0.696769 455.028 0.572103 449.292 6.66572" stroke="#171515" stroke-width="0.8" stroke-linecap="round"/>
<path d="M562.359 20.6453C568.99 13.9593 572.754 10.4832 572.754 5.59C572.754 0.696769 567.736 0.572103 562 6.66572" stroke="#171515" stroke-width="0.8" stroke-linecap="round"/>
<path d="M449.651 51.781C456.282 45.095 460.046 41.619 460.046 36.7257C460.046 31.8325 455.028 31.7078 449.292 37.8015" stroke="#171515" stroke-width="0.8" stroke-linecap="round"/>
<path d="M562.359 51.781C568.99 45.095 572.754 41.619 572.754 36.7257C572.754 31.8325 567.736 31.7078 562 37.8015" stroke="#171515" stroke-width="0.8" stroke-linecap="round"/>
<path d="M449.651 83.8904C456.282 77.2044 460.046 73.7283 460.046 68.8351C460.046 63.9419 455.028 63.8172 449.292 69.9108" stroke="#171515" stroke-width="0.8" stroke-linecap="round"/>
<path d="M562.359 83.8904C568.99 77.2044 572.754 73.7283 572.754 68.8351C572.754 63.9419 567.736 63.8172 562 69.9108" stroke="#171515" stroke-width="0.8" stroke-linecap="round"/>
<path d="M449.651 115C456.282 108.314 460.046 104.838 460.046 99.9445C460.046 95.0513 455.028 94.9266 449.292 101.02" stroke="#171515" stroke-width="0.8" stroke-linecap="round"/>
<path d="M562.359 115C568.99 108.314 572.754 104.838 572.754 99.9445C572.754 95.0513 567.736 94.9266 562 101.02" stroke="#171515" stroke-width="0.8" stroke-linecap="round"/>
<path d="M468.469 20.6453C475.101 13.9593 478.864 10.4832 478.864 5.59C478.864 0.696769 473.846 0.572103 468.111 6.66572" stroke="#171515" stroke-width="0.8" stroke-linecap="round"/>
<path d="M581.177 20.6453C587.809 13.9593 591.572 10.4832 591.572 5.59C591.572 0.696769 586.554 0.572103 580.819 6.66572" stroke="#171515" stroke-width="0.8" stroke-linecap="round"/>
<path d="M468.469 51.781C475.101 45.095 478.864 41.619 478.864 36.7257C478.864 31.8325 473.846 31.7078 468.111 37.8015" stroke="#171515" stroke-width="0.8" stroke-linecap="round"/>
<path d="M581.177 51.781C587.809 45.095 591.572 41.619 591.572 36.7257C591.572 31.8325 586.554 31.7078 580.819 37.8015" stroke="#171515" stroke-width="0.8" stroke-linecap="round"/>
<path d="M468.469 83.8904C475.101 77.2044 478.864 73.7283 478.864 68.8351C478.864 63.9419 473.846 63.8172 468.111 69.9108" stroke="#171515" stroke-width="0.8" stroke-linecap="round"/>
<path d="M581.177 83.8904C587.809 77.2044 591.572 73.7283 591.572 68.8351C591.572 63.9419 586.554 63.8172 580.819 69.9108" stroke="#171515" stroke-width="0.8" stroke-linecap="round"/>
<path d="M468.469 115C475.101 108.314 478.864 104.838 478.864 99.9445C478.864 95.0513 473.846 94.9266 468.111 101.02" stroke="#171515" stroke-width="0.8" stroke-linecap="round"/>
<path d="M581.177 115C587.809 108.314 591.572 104.838 591.572 99.9445C591.572 95.0513 586.554 94.9266 580.819 101.02" stroke="#171515" stroke-width="0.8" stroke-linecap="round"/>
<path d="M487.288 20.6453C493.919 13.9593 497.683 10.4832 497.683 5.59C497.683 0.696769 492.664 0.572103 486.929 6.66572" stroke="#171515" stroke-width="0.8" stroke-linecap="round"/>
<path d="M599.996 20.6453C606.627 13.9593 610.391 10.4832 610.391 5.59C610.391 0.696769 605.372 0.572103 599.637 6.66572" stroke="#171515" stroke-width="0.8" stroke-linecap="round"/>
<path d="M487.288 51.781C493.919 45.095 497.683 41.619 497.683 36.7257C497.683 31.8325 492.664 31.7078 486.929 37.8015" stroke="#171515" stroke-width="0.8" stroke-linecap="round"/>
<path d="M599.996 51.781C606.627 45.095 610.391 41.619 610.391 36.7257C610.391 31.8325 605.372 31.7078 599.637 37.8015" stroke="#171515" stroke-width="0.8" stroke-linecap="round"/>
<path d="M487.288 83.8904C493.919 77.2044 497.683 73.7283 497.683 68.8351C497.683 63.9419 492.664 63.8172 486.929 69.9108" stroke="#171515" stroke-width="0.8" stroke-linecap="round"/>
<path d="M599.996 83.8904C606.627 77.2044 610.391 73.7283 610.391 68.8351C610.391 63.9419 605.372 63.8172 599.637 69.9108" stroke="#171515" stroke-width="0.8" stroke-linecap="round"/>
<path d="M487.288 115C493.919 108.314 497.683 104.838 497.683 99.9445C497.683 95.0513 492.664 94.9266 486.929 101.02" stroke="#171515" stroke-width="0.8" stroke-linecap="round"/>
<path d="M599.996 115C606.627 108.314 610.391 104.838 610.391 99.9445C610.391 95.0513 605.372 94.9266 599.637 101.02" stroke="#171515" stroke-width="0.8" stroke-linecap="round"/>
<path d="M506.106 20.6453C512.737 13.9593 516.501 10.4832 516.501 5.59C516.501 0.696769 511.483 0.572103 505.747 6.66572" stroke="#171515" stroke-width="0.8" stroke-linecap="round"/>
<path d="M618.814 20.6453C625.445 13.9593 629.209 10.4832 629.209 5.59C629.209 0.696769 624.191 0.572103 618.455 6.66572" stroke="#171515" stroke-width="0.8" stroke-linecap="round"/>
<path d="M506.106 51.781C512.737 45.095 516.501 41.619 516.501 36.7257C516.501 31.8325 511.483 31.7078 505.747 37.8015" stroke="#171515" stroke-width="0.8" stroke-linecap="round"/>
<path d="M618.814 51.781C625.445 45.095 629.209 41.619 629.209 36.7257C629.209 31.8325 624.191 31.7078 618.455 37.8015" stroke="#171515" stroke-width="0.8" stroke-linecap="round"/>
<path d="M506.106 83.8904C512.737 77.2044 516.501 73.7283 516.501 68.8351C516.501 63.9419 511.483 63.8172 505.747 69.9108" stroke="#171515" stroke-width="0.8" stroke-linecap="round"/>
<path d="M618.814 83.8904C625.445 77.2044 629.209 73.7283 629.209 68.8351C629.209 63.9419 624.191 63.8172 618.455 69.9108" stroke="#171515" stroke-width="0.8" stroke-linecap="round"/>
<path d="M506.106 115C512.737 108.314 516.501 104.838 516.501 99.9445C516.501 95.0513 511.483 94.9266 505.747 101.02" stroke="#171515" stroke-width="0.8" stroke-linecap="round"/>
<path d="M618.814 115C625.445 108.314 629.209 104.838 629.209 99.9445C629.209 95.0513 624.191 94.9266 618.455 101.02" stroke="#171515" stroke-width="0.8" stroke-linecap="round"/>
<path d="M524.924 20.6453C531.556 13.9593 535.319 10.4832 535.319 5.59C535.319 0.696769 530.301 0.572103 524.566 6.66572" stroke="#171515" stroke-width="0.8" stroke-linecap="round"/>
<path d="M637.632 20.6453C644.264 13.9593 648.027 10.4832 648.027 5.59C648.027 0.696769 643.009 0.572103 637.274 6.66572" stroke="#171515" stroke-width="0.8" stroke-linecap="round"/>
<path d="M524.924 51.781C531.556 45.095 535.319 41.619 535.319 36.7257C535.319 31.8325 530.301 31.7078 524.566 37.8015" stroke="#171515" stroke-width="0.8" stroke-linecap="round"/>
<path d="M637.632 51.781C644.264 45.095 648.027 41.619 648.027 36.7257C648.027 31.8325 643.009 31.7078 637.274 37.8015" stroke="#171515" stroke-width="0.8" stroke-linecap="round"/>
<path d="M524.924 83.8904C531.556 77.2044 535.319 73.7283 535.319 68.8351C535.319 63.9419 530.301 63.8172 524.566 69.9108" stroke="#171515" stroke-width="0.8" stroke-linecap="round"/>
<path d="M637.632 83.8904C644.264 77.2044 648.027 73.7283 648.027 68.8351C648.027 63.9419 643.009 63.8172 637.274 69.9108" stroke="#171515" stroke-width="0.8" stroke-linecap="round"/>
<path d="M524.924 115C531.556 108.314 535.319 104.838 535.319 99.9445C535.319 95.0513 530.301 94.9266 524.566 101.02" stroke="#171515" stroke-width="0.8" stroke-linecap="round"/>
<path d="M637.632 115C644.264 108.314 648.027 104.838 648.027 99.9445C648.027 95.0513 643.009 94.9266 637.274 101.02" stroke="#171515" stroke-width="0.8" stroke-linecap="round"/>
<path d="M543.743 20.6453C550.374 13.9593 554.138 10.4832 554.138 5.59C554.138 0.696769 549.119 0.572103 543.384 6.66572" stroke="#171515" stroke-width="0.8" stroke-linecap="round"/>
<path d="M656.451 20.6453C663.082 13.9593 666.846 10.4832 666.846 5.59C666.846 0.696769 661.827 0.572103 656.092 6.66572" stroke="#171515" stroke-width="0.8" stroke-linecap="round"/>
<path d="M543.743 51.781C550.374 45.095 554.138 41.619 554.138 36.7257C554.138 31.8325 549.119 31.7078 543.384 37.8015" stroke="#171515" stroke-width="0.8" stroke-linecap="round"/>
<path d="M656.451 51.781C663.082 45.095 666.846 41.619 666.846 36.7257C666.846 31.8325 661.827 31.7078 656.092 37.8015" stroke="#171515" stroke-width="0.8" stroke-linecap="round"/>
<path d="M543.743 83.8904C550.374 77.2044 554.138 73.7283 554.138 68.8351C554.138 63.9419 549.119 63.8172 543.384 69.9108" stroke="#171515" stroke-width="0.8" stroke-linecap="round"/>
<path d="M656.451 83.8904C663.082 77.2044 666.846 73.7283 666.846 68.8351C666.846 63.9419 661.827 63.8172 656.092 69.9108" stroke="#171515" stroke-width="0.8" stroke-linecap="round"/>
<path d="M543.743 115C550.374 108.314 554.138 104.838 554.138 99.9445C554.138 95.0513 549.119 94.9266 543.384 101.02" stroke="#171515" stroke-width="0.8" stroke-linecap="round"/>
<path d="M656.451 115C663.082 108.314 666.846 104.838 666.846 99.9445C666.846 95.0513 661.827 94.9266 656.092 101.02" stroke="#171515" stroke-width="0.8" stroke-linecap="round"/>
</svg>
