<svg width="666" height="116" viewBox="0 0 666 116" fill="none" xmlns="http://www.w3.org/2000/svg">
<line x1="443.674" y1="1.65176e-08" x2="443.674" y2="116" stroke="#171515" stroke-width="0.8"/>
<line x1="591.393" y1="1.65176e-08" x2="591.393" y2="116" stroke="#171515" stroke-width="0.8"/>
<line x1="295.958" y1="1.65176e-08" x2="295.958" y2="116" stroke="#171515" stroke-width="0.8"/>
<line x1="148.24" y1="1.65176e-08" x2="148.24" y2="116" stroke="#171515" stroke-width="0.8"/>
<line x1="468.295" y1="1.65176e-08" x2="468.295" y2="116" stroke="#171515" stroke-width="0.8"/>
<line x1="616.013" y1="1.65176e-08" x2="616.013" y2="116" stroke="#171515" stroke-width="0.8"/>
<line x1="172.858" y1="1.65176e-08" x2="172.858" y2="116" stroke="#171515" stroke-width="0.8"/>
<line x1="320.578" y1="1.65176e-08" x2="320.578" y2="116" stroke="#171515" stroke-width="0.8"/>
<line x1="25.1402" y1="1.65176e-08" x2="25.1402" y2="116" stroke="#171515" stroke-width="0.8"/>
<line x1="492.917" y1="1.65176e-08" x2="492.917" y2="116" stroke="#171515" stroke-width="0.8"/>
<line x1="640.631" y1="1.65176e-08" x2="640.631" y2="116" stroke="#171515" stroke-width="0.8"/>
<line x1="197.479" y1="1.65176e-08" x2="197.479" y2="116" stroke="#171515" stroke-width="0.8"/>
<line x1="345.197" y1="1.65176e-08" x2="345.197" y2="116" stroke="#171515" stroke-width="0.8"/>
<line x1="49.7604" y1="1.65176e-08" x2="49.7603" y2="116" stroke="#171515" stroke-width="0.8"/>
<line x1="517.535" y1="1.65176e-08" x2="517.535" y2="116" stroke="#171515" stroke-width="0.8"/>
<line x1="222.099" y1="1.65176e-08" x2="222.099" y2="116" stroke="#171515" stroke-width="0.8"/>
<line x1="369.818" y1="1.65176e-08" x2="369.818" y2="116" stroke="#171515" stroke-width="0.8"/>
<line x1="74.3805" y1="1.65176e-08" x2="74.3805" y2="116" stroke="#171515" stroke-width="0.8"/>
<line x1="542.155" y1="1.65176e-08" x2="542.155" y2="116" stroke="#171515" stroke-width="0.8"/>
<line x1="246.716" y1="1.65176e-08" x2="246.716" y2="116" stroke="#171515" stroke-width="0.8"/>
<line x1="394.437" y1="1.65176e-08" x2="394.437" y2="116" stroke="#171515" stroke-width="0.8"/>
<line x1="98.9986" y1="1.65176e-08" x2="98.9986" y2="116" stroke="#171515" stroke-width="0.8"/>
<line x1="271.338" y1="1.65176e-08" x2="271.337" y2="116" stroke="#171515" stroke-width="0.8"/>
<line x1="566.776" y1="1.65176e-08" x2="566.776" y2="116" stroke="#171515" stroke-width="0.8"/>
<line x1="419.055" y1="1.65176e-08" x2="419.055" y2="116" stroke="#171515" stroke-width="0.8"/>
<line x1="123.62" y1="1.65176e-08" x2="123.62" y2="116" stroke="#171515" stroke-width="0.8"/>
<line y1="72.6" x2="666" y2="72.6" stroke="#171515" stroke-width="0.8"/>
<line y1="97.6" x2="666" y2="97.6" stroke="#171515" stroke-width="0.8"/>
<line y1="48.6" x2="666" y2="48.6" stroke="#171515" stroke-width="0.8"/>
<line y1="23.6" x2="666" y2="23.6" stroke="#171515" stroke-width="0.8"/>
</svg>
