<svg width="442" height="117" viewBox="0 0 442 117" fill="none" xmlns="http://www.w3.org/2000/svg">
<path d="M199.517 21.6453C192.888 14.9593 189.125 11.4832 189.125 6.59C189.125 1.69677 194.142 1.5721 199.875 7.66572" stroke="#171515" stroke-width="0.8" stroke-linecap="round"/>
<path d="M199.517 52.781C192.888 46.095 189.125 42.619 189.125 37.7257C189.125 32.8325 194.142 32.7078 199.875 38.8015" stroke="#171515" stroke-width="0.8" stroke-linecap="round"/>
<path d="M199.517 84.8904C192.888 78.2044 189.125 74.7283 189.125 69.8351C189.125 64.9419 194.142 64.8172 199.875 70.9108" stroke="#171515" stroke-width="0.8" stroke-linecap="round"/>
<path d="M199.517 116C192.888 109.314 189.125 105.838 189.125 100.944C189.125 96.0513 194.142 95.9266 199.875 102.02" stroke="#171515" stroke-width="0.8" stroke-linecap="round"/>
<path d="M180.704 21.6453C174.075 14.9593 170.313 11.4832 170.312 6.59C170.312 1.69677 175.329 1.5721 181.063 7.66572" stroke="#171515" stroke-width="0.8" stroke-linecap="round"/>
<path d="M180.704 52.781C174.075 46.095 170.313 42.619 170.312 37.7257C170.312 32.8325 175.329 32.7078 181.063 38.8015" stroke="#171515" stroke-width="0.8" stroke-linecap="round"/>
<path d="M180.704 84.8904C174.075 78.2044 170.313 74.7283 170.312 69.8351C170.312 64.9419 175.329 64.8172 181.063 70.9108" stroke="#171515" stroke-width="0.8" stroke-linecap="round"/>
<path d="M180.704 116C174.075 109.314 170.313 105.838 170.312 100.944C170.312 96.0513 175.329 95.9266 181.063 102.02" stroke="#171515" stroke-width="0.8" stroke-linecap="round"/>
<path d="M161.892 21.6453C155.263 14.9593 151.5 11.4832 151.5 6.59C151.5 1.69677 156.517 1.5721 162.251 7.66572" stroke="#171515" stroke-width="0.8" stroke-linecap="round"/>
<path d="M161.892 52.781C155.263 46.095 151.5 42.619 151.5 37.7257C151.5 32.8325 156.517 32.7078 162.251 38.8015" stroke="#171515" stroke-width="0.8" stroke-linecap="round"/>
<path d="M161.892 84.8904C155.263 78.2044 151.5 74.7283 151.5 69.8351C151.5 64.9419 156.517 64.8172 162.251 70.9108" stroke="#171515" stroke-width="0.8" stroke-linecap="round"/>
<path d="M161.892 116C155.263 109.314 151.5 105.838 151.5 100.944C151.5 96.0513 156.517 95.9266 162.251 102.02" stroke="#171515" stroke-width="0.8" stroke-linecap="round"/>
<path d="M143.08 21.6453C136.451 14.9593 132.688 11.4832 132.688 6.59C132.688 1.69677 137.705 1.5721 143.438 7.66572" stroke="#171515" stroke-width="0.8" stroke-linecap="round"/>
<path d="M143.08 52.781C136.451 46.095 132.688 42.619 132.688 37.7257C132.688 32.8325 137.705 32.7078 143.438 38.8015" stroke="#171515" stroke-width="0.8" stroke-linecap="round"/>
<path d="M143.08 84.8904C136.451 78.2044 132.688 74.7283 132.688 69.8351C132.688 64.9419 137.705 64.8172 143.438 70.9108" stroke="#171515" stroke-width="0.8" stroke-linecap="round"/>
<path d="M143.08 116C136.451 109.314 132.688 105.838 132.688 100.944C132.688 96.0513 137.705 95.9266 143.438 102.02" stroke="#171515" stroke-width="0.8" stroke-linecap="round"/>
<path d="M124.267 21.6453C117.638 14.9593 113.875 11.4832 113.875 6.59C113.875 1.69677 118.892 1.5721 124.626 7.66572" stroke="#171515" stroke-width="0.8" stroke-linecap="round"/>
<path d="M124.267 52.781C117.638 46.095 113.875 42.619 113.875 37.7257C113.875 32.8325 118.892 32.7078 124.626 38.8015" stroke="#171515" stroke-width="0.8" stroke-linecap="round"/>
<path d="M124.267 84.8904C117.638 78.2044 113.875 74.7283 113.875 69.8351C113.875 64.9419 118.892 64.8172 124.626 70.9108" stroke="#171515" stroke-width="0.8" stroke-linecap="round"/>
<path d="M124.267 116C117.638 109.314 113.875 105.838 113.875 100.944C113.875 96.0513 118.892 95.9266 124.626 102.02" stroke="#171515" stroke-width="0.8" stroke-linecap="round"/>
<path d="M105.454 21.6453C98.825 14.9593 95.0625 11.4832 95.0625 6.59C95.0625 1.69677 100.079 1.5721 105.813 7.66572" stroke="#171515" stroke-width="0.8" stroke-linecap="round"/>
<path d="M105.454 52.781C98.825 46.095 95.0625 42.619 95.0625 37.7257C95.0625 32.8325 100.079 32.7078 105.813 38.8015" stroke="#171515" stroke-width="0.8" stroke-linecap="round"/>
<path d="M105.454 84.8904C98.825 78.2044 95.0625 74.7283 95.0625 69.8351C95.0625 64.9419 100.079 64.8172 105.813 70.9108" stroke="#171515" stroke-width="0.8" stroke-linecap="round"/>
<path d="M105.454 116C98.825 109.314 95.0625 105.838 95.0625 100.944C95.0625 96.0513 100.079 95.9266 105.813 102.02" stroke="#171515" stroke-width="0.8" stroke-linecap="round"/>
<path d="M86.6418 21.6453C80.0125 14.9593 76.25 11.4832 76.25 6.59C76.25 1.69677 81.2667 1.5721 87.0001 7.66572" stroke="#171515" stroke-width="0.8" stroke-linecap="round"/>
<path d="M86.6418 52.781C80.0125 46.095 76.25 42.619 76.25 37.7257C76.25 32.8325 81.2667 32.7078 87.0001 38.8015" stroke="#171515" stroke-width="0.8" stroke-linecap="round"/>
<path d="M86.6418 84.8904C80.0125 78.2044 76.25 74.7283 76.25 69.8351C76.25 64.9419 81.2667 64.8172 87.0001 70.9108" stroke="#171515" stroke-width="0.8" stroke-linecap="round"/>
<path d="M86.6418 116C80.0125 109.314 76.25 105.838 76.25 100.944C76.25 96.0513 81.2667 95.9266 87.0001 102.02" stroke="#171515" stroke-width="0.8" stroke-linecap="round"/>
<path d="M67.8293 21.6453C61.2 14.9593 57.4375 11.4832 57.4375 6.59C57.4375 1.69677 62.4542 1.5721 68.1876 7.66572" stroke="#171515" stroke-width="0.8" stroke-linecap="round"/>
<path d="M67.8293 52.781C61.2 46.095 57.4375 42.619 57.4375 37.7257C57.4375 32.8325 62.4542 32.7078 68.1876 38.8015" stroke="#171515" stroke-width="0.8" stroke-linecap="round"/>
<path d="M67.8293 84.8904C61.2 78.2044 57.4375 74.7283 57.4375 69.8351C57.4375 64.9419 62.4542 64.8172 68.1876 70.9108" stroke="#171515" stroke-width="0.8" stroke-linecap="round"/>
<path d="M67.8293 116C61.2 109.314 57.4375 105.838 57.4375 100.944C57.4375 96.0513 62.4542 95.9266 68.1876 102.02" stroke="#171515" stroke-width="0.8" stroke-linecap="round"/>
<path d="M49.0168 21.6453C42.3875 14.9593 38.625 11.4832 38.625 6.59C38.625 1.69677 43.6417 1.5721 49.3751 7.66572" stroke="#171515" stroke-width="0.8" stroke-linecap="round"/>
<path d="M49.0168 52.781C42.3875 46.095 38.625 42.619 38.625 37.7257C38.625 32.8325 43.6417 32.7078 49.3751 38.8015" stroke="#171515" stroke-width="0.8" stroke-linecap="round"/>
<path d="M49.0168 84.8904C42.3875 78.2044 38.625 74.7283 38.625 69.8351C38.625 64.9419 43.6417 64.8172 49.3751 70.9108" stroke="#171515" stroke-width="0.8" stroke-linecap="round"/>
<path d="M49.0168 116C42.3875 109.314 38.625 105.838 38.625 100.944C38.625 96.0513 43.6417 95.9266 49.3751 102.02" stroke="#171515" stroke-width="0.8" stroke-linecap="round"/>
<path d="M30.2043 21.6453C23.575 14.9593 19.8125 11.4832 19.8125 6.59C19.8125 1.69677 24.8292 1.5721 30.5626 7.66572" stroke="#171515" stroke-width="0.8" stroke-linecap="round"/>
<path d="M30.2043 52.781C23.575 46.095 19.8125 42.619 19.8125 37.7257C19.8125 32.8325 24.8292 32.7078 30.5626 38.8015" stroke="#171515" stroke-width="0.8" stroke-linecap="round"/>
<path d="M30.2043 84.8904C23.575 78.2044 19.8125 74.7283 19.8125 69.8351C19.8125 64.9419 24.8292 64.8172 30.5626 70.9108" stroke="#171515" stroke-width="0.8" stroke-linecap="round"/>
<path d="M30.2043 116C23.575 109.314 19.8125 105.838 19.8125 100.944C19.8125 96.0513 24.8292 95.9266 30.5626 102.02" stroke="#171515" stroke-width="0.8" stroke-linecap="round"/>
<path d="M11.3918 21.6452C4.76255 14.9592 1 11.4832 1 6.58994C1 1.69671 6.01673 1.57204 11.7501 7.66566" stroke="#171515" stroke-width="0.8" stroke-linecap="round"/>
<path d="M11.3918 52.781C4.76254 46.095 1 42.619 1 37.7257C1 32.8325 6.01673 32.7078 11.7501 38.8015" stroke="#171515" stroke-width="0.8" stroke-linecap="round"/>
<path d="M11.3918 84.8904C4.76254 78.2044 1 74.7283 1 69.8351C1 64.9419 6.01673 64.8172 11.7501 70.9108" stroke="#171515" stroke-width="0.8" stroke-linecap="round"/>
<path d="M11.3918 116C4.76254 109.314 1 105.838 1 100.944C1 96.0513 6.01673 95.9266 11.7501 102.02" stroke="#171515" stroke-width="0.8" stroke-linecap="round"/>
<path d="M217.283 21.6453C210.654 14.9593 206.891 11.4832 206.891 6.59C206.891 1.69677 211.908 1.5721 217.641 7.66572" stroke="#171515" stroke-width="0.8" stroke-linecap="round"/>
<path d="M223.671 21.6453C230.3 14.9593 234.063 11.4832 234.063 6.59C234.063 1.69677 229.046 1.5721 223.312 7.66572" stroke="#171515" stroke-width="0.8" stroke-linecap="round"/>
<path d="M217.283 52.781C210.654 46.095 206.891 42.619 206.891 37.7257C206.891 32.8325 211.908 32.7078 217.641 38.8015" stroke="#171515" stroke-width="0.8" stroke-linecap="round"/>
<path d="M223.671 52.781C230.3 46.095 234.063 42.619 234.063 37.7257C234.063 32.8325 229.046 32.7078 223.312 38.8015" stroke="#171515" stroke-width="0.8" stroke-linecap="round"/>
<path d="M217.283 84.8904C210.654 78.2044 206.891 74.7283 206.891 69.8351C206.891 64.9419 211.908 64.8172 217.641 70.9108" stroke="#171515" stroke-width="0.8" stroke-linecap="round"/>
<path d="M223.671 84.8904C230.3 78.2044 234.063 74.7283 234.063 69.8351C234.063 64.9419 229.046 64.8172 223.312 70.9108" stroke="#171515" stroke-width="0.8" stroke-linecap="round"/>
<path d="M217.283 116C210.654 109.314 206.891 105.838 206.891 100.944C206.891 96.0513 211.908 95.9266 217.641 102.02" stroke="#171515" stroke-width="0.8" stroke-linecap="round"/>
<path d="M223.671 116C230.3 109.314 234.063 105.838 234.063 100.944C234.063 96.0513 229.046 95.9266 223.312 102.02" stroke="#171515" stroke-width="0.8" stroke-linecap="round"/>
<path d="M242.483 21.6453C249.112 14.9593 252.875 11.4832 252.875 6.59C252.875 1.69677 247.858 1.5721 242.125 7.66572" stroke="#171515" stroke-width="0.8" stroke-linecap="round"/>
<path d="M242.483 52.781C249.112 46.095 252.875 42.619 252.875 37.7257C252.875 32.8325 247.858 32.7078 242.125 38.8015" stroke="#171515" stroke-width="0.8" stroke-linecap="round"/>
<path d="M242.483 84.8904C249.112 78.2044 252.875 74.7283 252.875 69.8351C252.875 64.9419 247.858 64.8172 242.125 70.9108" stroke="#171515" stroke-width="0.8" stroke-linecap="round"/>
<path d="M242.483 116C249.112 109.314 252.875 105.838 252.875 100.944C252.875 96.0513 247.858 95.9266 242.125 102.02" stroke="#171515" stroke-width="0.8" stroke-linecap="round"/>
<path d="M261.296 21.6453C267.925 14.9593 271.688 11.4832 271.688 6.59C271.688 1.69677 266.671 1.5721 260.937 7.66572" stroke="#171515" stroke-width="0.8" stroke-linecap="round"/>
<path d="M261.296 52.781C267.925 46.095 271.688 42.619 271.688 37.7257C271.688 32.8325 266.671 32.7078 260.937 38.8015" stroke="#171515" stroke-width="0.8" stroke-linecap="round"/>
<path d="M261.296 84.8904C267.925 78.2044 271.688 74.7283 271.688 69.8351C271.688 64.9419 266.671 64.8172 260.937 70.9108" stroke="#171515" stroke-width="0.8" stroke-linecap="round"/>
<path d="M261.296 116C267.925 109.314 271.688 105.838 271.688 100.944C271.688 96.0513 266.671 95.9266 260.937 102.02" stroke="#171515" stroke-width="0.8" stroke-linecap="round"/>
<path d="M280.108 21.6453C286.737 14.9593 290.5 11.4832 290.5 6.59C290.5 1.69677 285.483 1.5721 279.749 7.66572" stroke="#171515" stroke-width="0.8" stroke-linecap="round"/>
<path d="M280.108 52.781C286.737 46.095 290.5 42.619 290.5 37.7257C290.5 32.8325 285.483 32.7078 279.749 38.8015" stroke="#171515" stroke-width="0.8" stroke-linecap="round"/>
<path d="M280.108 84.8904C286.737 78.2044 290.5 74.7283 290.5 69.8351C290.5 64.9419 285.483 64.8172 279.749 70.9108" stroke="#171515" stroke-width="0.8" stroke-linecap="round"/>
<path d="M280.108 116C286.737 109.314 290.5 105.838 290.5 100.944C290.5 96.0513 285.483 95.9266 279.749 102.02" stroke="#171515" stroke-width="0.8" stroke-linecap="round"/>
<path d="M298.92 21.6453C305.549 14.9593 309.312 11.4832 309.312 6.59C309.312 1.69677 304.295 1.5721 298.562 7.66572" stroke="#171515" stroke-width="0.8" stroke-linecap="round"/>
<path d="M298.92 52.781C305.549 46.095 309.312 42.619 309.312 37.7257C309.312 32.8325 304.295 32.7078 298.562 38.8015" stroke="#171515" stroke-width="0.8" stroke-linecap="round"/>
<path d="M298.92 84.8904C305.549 78.2044 309.312 74.7283 309.312 69.8351C309.312 64.9419 304.295 64.8172 298.562 70.9108" stroke="#171515" stroke-width="0.8" stroke-linecap="round"/>
<path d="M298.92 116C305.549 109.314 309.312 105.838 309.312 100.944C309.312 96.0513 304.295 95.9266 298.562 102.02" stroke="#171515" stroke-width="0.8" stroke-linecap="round"/>
<path d="M317.733 21.6453C324.362 14.9593 328.125 11.4832 328.125 6.59C328.125 1.69677 323.108 1.5721 317.374 7.66572" stroke="#171515" stroke-width="0.8" stroke-linecap="round"/>
<path d="M317.733 52.781C324.362 46.095 328.125 42.619 328.125 37.7257C328.125 32.8325 323.108 32.7078 317.374 38.8015" stroke="#171515" stroke-width="0.8" stroke-linecap="round"/>
<path d="M317.733 84.8904C324.362 78.2044 328.125 74.7283 328.125 69.8351C328.125 64.9419 323.108 64.8172 317.374 70.9108" stroke="#171515" stroke-width="0.8" stroke-linecap="round"/>
<path d="M317.733 116C324.362 109.314 328.125 105.838 328.125 100.944C328.125 96.0513 323.108 95.9266 317.374 102.02" stroke="#171515" stroke-width="0.8" stroke-linecap="round"/>
<path d="M336.546 21.6453C343.175 14.9593 346.938 11.4832 346.938 6.59C346.938 1.69677 341.921 1.5721 336.187 7.66572" stroke="#171515" stroke-width="0.8" stroke-linecap="round"/>
<path d="M336.546 52.781C343.175 46.095 346.938 42.619 346.938 37.7257C346.938 32.8325 341.921 32.7078 336.187 38.8015" stroke="#171515" stroke-width="0.8" stroke-linecap="round"/>
<path d="M336.546 84.8904C343.175 78.2044 346.938 74.7283 346.938 69.8351C346.938 64.9419 341.921 64.8172 336.187 70.9108" stroke="#171515" stroke-width="0.8" stroke-linecap="round"/>
<path d="M336.546 116C343.175 109.314 346.938 105.838 346.938 100.944C346.938 96.0513 341.921 95.9266 336.187 102.02" stroke="#171515" stroke-width="0.8" stroke-linecap="round"/>
<path d="M355.358 21.6453C361.987 14.9593 365.75 11.4832 365.75 6.59C365.75 1.69677 360.733 1.5721 355 7.66572" stroke="#171515" stroke-width="0.8" stroke-linecap="round"/>
<path d="M355.358 52.781C361.987 46.095 365.75 42.619 365.75 37.7257C365.75 32.8325 360.733 32.7078 355 38.8015" stroke="#171515" stroke-width="0.8" stroke-linecap="round"/>
<path d="M355.358 84.8904C361.987 78.2044 365.75 74.7283 365.75 69.8351C365.75 64.9419 360.733 64.8172 355 70.9108" stroke="#171515" stroke-width="0.8" stroke-linecap="round"/>
<path d="M355.358 116C361.987 109.314 365.75 105.838 365.75 100.944C365.75 96.0513 360.733 95.9266 355 102.02" stroke="#171515" stroke-width="0.8" stroke-linecap="round"/>
<path d="M374.171 21.6453C380.8 14.9593 384.563 11.4832 384.563 6.59C384.563 1.69677 379.546 1.5721 373.812 7.66572" stroke="#171515" stroke-width="0.8" stroke-linecap="round"/>
<path d="M374.171 52.781C380.8 46.095 384.563 42.619 384.563 37.7257C384.563 32.8325 379.546 32.7078 373.812 38.8015" stroke="#171515" stroke-width="0.8" stroke-linecap="round"/>
<path d="M374.171 84.8904C380.8 78.2044 384.563 74.7283 384.563 69.8351C384.563 64.9419 379.546 64.8172 373.812 70.9108" stroke="#171515" stroke-width="0.8" stroke-linecap="round"/>
<path d="M374.171 116C380.8 109.314 384.563 105.838 384.563 100.944C384.563 96.0513 379.546 95.9266 373.812 102.02" stroke="#171515" stroke-width="0.8" stroke-linecap="round"/>
<path d="M392.983 21.6453C399.612 14.9593 403.375 11.4832 403.375 6.59C403.375 1.69677 398.358 1.5721 392.625 7.66572" stroke="#171515" stroke-width="0.8" stroke-linecap="round"/>
<path d="M392.983 52.781C399.612 46.095 403.375 42.619 403.375 37.7257C403.375 32.8325 398.358 32.7078 392.625 38.8015" stroke="#171515" stroke-width="0.8" stroke-linecap="round"/>
<path d="M392.983 84.8904C399.612 78.2044 403.375 74.7283 403.375 69.8351C403.375 64.9419 398.358 64.8172 392.625 70.9108" stroke="#171515" stroke-width="0.8" stroke-linecap="round"/>
<path d="M392.983 116C399.612 109.314 403.375 105.838 403.375 100.944C403.375 96.0513 398.358 95.9266 392.625 102.02" stroke="#171515" stroke-width="0.8" stroke-linecap="round"/>
<path d="M411.796 21.6453C418.425 14.9593 422.188 11.4832 422.188 6.59C422.188 1.69677 417.171 1.5721 411.437 7.66572" stroke="#171515" stroke-width="0.8" stroke-linecap="round"/>
<path d="M411.796 52.781C418.425 46.095 422.188 42.619 422.188 37.7257C422.188 32.8325 417.171 32.7078 411.437 38.8015" stroke="#171515" stroke-width="0.8" stroke-linecap="round"/>
<path d="M411.796 84.8904C418.425 78.2044 422.188 74.7283 422.188 69.8351C422.188 64.9419 417.171 64.8172 411.437 70.9108" stroke="#171515" stroke-width="0.8" stroke-linecap="round"/>
<path d="M411.796 116C418.425 109.314 422.188 105.838 422.188 100.944C422.188 96.0513 417.171 95.9266 411.437 102.02" stroke="#171515" stroke-width="0.8" stroke-linecap="round"/>
<path d="M430.608 21.6453C437.237 14.9593 441 11.4832 441 6.59C441 1.69677 435.983 1.5721 430.25 7.66572" stroke="#171515" stroke-width="0.8" stroke-linecap="round"/>
<path d="M430.608 52.781C437.237 46.095 441 42.619 441 37.7257C441 32.8325 435.983 32.7078 430.25 38.8015" stroke="#171515" stroke-width="0.8" stroke-linecap="round"/>
<path d="M430.608 84.8904C437.237 78.2044 441 74.7283 441 69.8351C441 64.9419 435.983 64.8172 430.25 70.9108" stroke="#171515" stroke-width="0.8" stroke-linecap="round"/>
<path d="M430.608 116C437.237 109.314 441 105.838 441 100.944C441 96.0513 435.983 95.9266 430.25 102.02" stroke="#171515" stroke-width="0.8" stroke-linecap="round"/>
</svg>
