<svg width="440" height="116" viewBox="0 0 440 116" fill="none" xmlns="http://www.w3.org/2000/svg">
<line y1="111" x2="41.81" y2="111" stroke="#171515" stroke-width="0.8"/>
<line y1="103" x2="41.81" y2="103" stroke="#171515" stroke-width="0.8"/>
<line y1="95.0004" x2="41.81" y2="95.0004" stroke="#171515" stroke-width="0.8"/>
<line y1="87.0004" x2="41.81" y2="87.0004" stroke="#171515" stroke-width="0.8"/>
<line y1="79.0004" x2="41.81" y2="79.0004" stroke="#171515" stroke-width="0.8"/>
<line y1="71.0004" x2="41.81" y2="71.0004" stroke="#171515" stroke-width="0.8"/>
<line x1="99.5474" y1="111" x2="141.357" y2="111" stroke="#171515" stroke-width="0.8"/>
<line x1="99.5474" y1="103" x2="141.357" y2="103" stroke="#171515" stroke-width="0.8"/>
<line x1="99.5474" y1="95.0004" x2="141.357" y2="95.0004" stroke="#171515" stroke-width="0.8"/>
<line x1="99.5474" y1="87.0004" x2="141.357" y2="87.0004" stroke="#171515" stroke-width="0.8"/>
<line x1="99.5474" y1="79.0004" x2="141.357" y2="79.0004" stroke="#171515" stroke-width="0.8"/>
<line x1="99.5474" y1="71.0004" x2="141.357" y2="71.0004" stroke="#171515" stroke-width="0.8"/>
<line x1="50" y1="111" x2="91.81" y2="111" stroke="#171515" stroke-width="0.8"/>
<line x1="50" y1="103" x2="91.81" y2="103" stroke="#171515" stroke-width="0.8"/>
<line x1="50" y1="95.0004" x2="91.81" y2="95.0004" stroke="#171515" stroke-width="0.8"/>
<line x1="50" y1="87.0004" x2="91.81" y2="87.0004" stroke="#171515" stroke-width="0.8"/>
<line x1="50" y1="79.0004" x2="91.81" y2="79.0004" stroke="#171515" stroke-width="0.8"/>
<line x1="50" y1="71.0004" x2="91.81" y2="71.0004" stroke="#171515" stroke-width="0.8"/>
<line x1="199.095" y1="111" x2="240.905" y2="111" stroke="#171515" stroke-width="0.8"/>
<line x1="199.095" y1="103" x2="240.905" y2="103" stroke="#171515" stroke-width="0.8"/>
<line x1="199.095" y1="95.0004" x2="240.905" y2="95.0004" stroke="#171515" stroke-width="0.8"/>
<line x1="199.095" y1="87.0004" x2="240.905" y2="87.0004" stroke="#171515" stroke-width="0.8"/>
<line x1="199.095" y1="79.0004" x2="240.905" y2="79.0004" stroke="#171515" stroke-width="0.8"/>
<line x1="199.095" y1="71.0004" x2="240.905" y2="71.0004" stroke="#171515" stroke-width="0.8"/>
<line x1="149.321" y1="111" x2="191.131" y2="111" stroke="#171515" stroke-width="0.8"/>
<line x1="149.321" y1="103" x2="191.131" y2="103" stroke="#171515" stroke-width="0.8"/>
<line x1="149.321" y1="95.0004" x2="191.131" y2="95.0004" stroke="#171515" stroke-width="0.8"/>
<line x1="149.321" y1="87.0004" x2="191.131" y2="87.0004" stroke="#171515" stroke-width="0.8"/>
<line x1="149.321" y1="79.0004" x2="191.131" y2="79.0004" stroke="#171515" stroke-width="0.8"/>
<line x1="149.321" y1="71.0004" x2="191.131" y2="71.0004" stroke="#171515" stroke-width="0.8"/>
<line x1="248.869" y1="111" x2="290.679" y2="111" stroke="#171515" stroke-width="0.8"/>
<line x1="248.869" y1="103" x2="290.679" y2="103" stroke="#171515" stroke-width="0.8"/>
<line x1="248.869" y1="95.0004" x2="290.679" y2="95.0004" stroke="#171515" stroke-width="0.8"/>
<line x1="248.869" y1="87.0004" x2="290.679" y2="87.0004" stroke="#171515" stroke-width="0.8"/>
<line x1="248.869" y1="79.0004" x2="290.679" y2="79.0004" stroke="#171515" stroke-width="0.8"/>
<line x1="248.869" y1="71.0004" x2="290.679" y2="71.0004" stroke="#171515" stroke-width="0.8"/>
<line x1="298.643" y1="111" x2="340.453" y2="111" stroke="#171515" stroke-width="0.8"/>
<line x1="298.643" y1="103" x2="340.453" y2="103" stroke="#171515" stroke-width="0.8"/>
<line x1="298.643" y1="95.0004" x2="340.453" y2="95.0004" stroke="#171515" stroke-width="0.8"/>
<line x1="298.643" y1="87.0004" x2="340.453" y2="87.0004" stroke="#171515" stroke-width="0.8"/>
<line x1="298.643" y1="79.0004" x2="340.453" y2="79.0004" stroke="#171515" stroke-width="0.8"/>
<line x1="298.643" y1="71.0004" x2="340.453" y2="71.0004" stroke="#171515" stroke-width="0.8"/>
<line x1="398.19" y1="111" x2="440" y2="111" stroke="#171515" stroke-width="0.8"/>
<line x1="398.19" y1="103" x2="440" y2="103" stroke="#171515" stroke-width="0.8"/>
<line x1="398.19" y1="95.0004" x2="440" y2="95.0004" stroke="#171515" stroke-width="0.8"/>
<line x1="398.19" y1="87.0004" x2="440" y2="87.0004" stroke="#171515" stroke-width="0.8"/>
<line x1="398.19" y1="79.0004" x2="440" y2="79.0004" stroke="#171515" stroke-width="0.8"/>
<line x1="398.19" y1="71.0004" x2="440" y2="71.0004" stroke="#171515" stroke-width="0.8"/>
<line x1="348.416" y1="87.0004" x2="390.226" y2="87.0004" stroke="#171515" stroke-width="0.8"/>
<line x1="348.416" y1="79.0004" x2="390.226" y2="79.0004" stroke="#171515" stroke-width="0.8"/>
<line x1="348.416" y1="71.0004" x2="390.226" y2="71.0004" stroke="#171515" stroke-width="0.8"/>
<line x1="348.416" y1="63.0004" x2="390.226" y2="63.0004" stroke="#171515" stroke-width="0.8"/>
<line x1="348.416" y1="55.0004" x2="390.226" y2="55.0004" stroke="#171515" stroke-width="0.8"/>
<line x1="348.416" y1="47.0004" x2="390.226" y2="47.0004" stroke="#171515" stroke-width="0.8"/>
</svg>
