<svg width="45" height="43" viewBox="0 0 45 43" fill="none" xmlns="http://www.w3.org/2000/svg">
<g clipPath="url(#clip0)">
<path d="M0 21.5935C0 5.70879 7.77368 0.408203 21.9383 0.408203C36.339 0.408203 44.1127 5.70879 44.1127 21.5935C44.1127 36.7988 36.5751 43.0167 21.9383 43.0167C6.39094 42.9998 0 37.4783 0 21.5935Z" fill="#FFEEDD"/>
<path d="M22.7596 30.9297C27.7489 30.9297 30.2557 29.3721 30.2557 25.9404V25.9161C30.2557 23.677 29.1605 22.5331 27.0431 22.022C28.9414 21.4379 29.8663 20.2696 29.8663 18.1522V18.0792C29.8663 14.9883 27.5542 13.5767 22.5162 13.5767H14.6793V30.9297H22.7596ZM22.6866 16.3999C25.3151 16.3999 26.3859 16.911 26.3859 18.4686V18.5173C26.3859 20.1479 25.023 20.6347 22.7596 20.6347H18.1353V16.3999H22.6866ZM22.4675 23.4336C25.4854 23.4336 26.6293 23.969 26.6293 25.6483V25.6727C26.6293 27.2546 25.6558 27.9361 22.3215 27.9361H18.1353V23.4336H22.4675Z" fill="#FFA51F"/>
</g>
<defs>
<clipPath id="clip0">
<rect width="44.1127" height="42.5915" fill="white" transform="translate(0 0.408203)"/>
</clipPath>
</defs>
</svg>
