<svg width="45" height="43" viewBox="0 0 45 43" fill="none" xmlns="http://www.w3.org/2000/svg">
<g clipPath="url(#clip0)">
<path d="M0.445312 21.1853C0.445312 5.30058 8.21899 0 22.3836 0C36.7843 0 44.558 5.30058 44.558 21.1853C44.558 36.3905 37.0204 42.6085 22.3836 42.6085C6.83625 42.5916 0.445312 37.0701 0.445312 21.1853Z" fill="#FB4E00"/>
<path d="M24.1134 23.9502V20.7619H14.6946V16.3081H24.5515V13.1685H11.2143V30.5215H14.6946V23.9502H24.1134ZM30.212 30.5215V24.7777C30.212 21.2 31.1125 19.9588 34.8362 19.9588H36.4182V16.4054H35.1283C32.2564 16.4054 30.6744 17.6953 30.066 20.0318L29.6279 16.5271H26.6587V30.5215H30.212Z" fill="#EDB2E7"/>
</g>
<defs>
<clipPath id="clip0">
<rect width="44.1127" height="42.5915" fill="white" transform="translate(0.445312)"/>
</clipPath>
</defs>
</svg>
