<?xml version="1.0" standalone="no"?>
<!DOCTYPE svg PUBLIC "-//W3C//DTD SVG 20010904//EN"
 "http://www.w3.org/TR/2001/REC-SVG-20010904/DTD/svg10.dtd">
<svg version="1.0" xmlns="http://www.w3.org/2000/svg"
 width="260.000000pt" height="260.000000pt" viewBox="0 0 260.000000 260.000000"
 preserveAspectRatio="xMidYMid meet">
<metadata>
Created by potrace 1.11, written by Peter Selinger 2001-2013
</metadata>
<g transform="translate(0.000000,260.000000) scale(0.100000,-0.100000)"
fill="#000000" stroke="none">
<path d="M976 2573 c-129 -24 -301 -71 -406 -111 l-105 -39 -3 -1206 -2 -1207
220 0 220 0 0 549 0 549 49 21 c145 62 338 69 440 17 41 -22 178 -66 250 -81
135 -28 348 -13 432 30 l26 14 0 190 c0 105 -3 191 -7 191 -4 0 -23 -7 -42
-15 -20 -8 -48 -17 -64 -20 -53 -12 -238 -14 -294 -4 -60 11 -186 51 -238 75
-144 67 -352 67 -499 -1 l-53 -24 0 288 c0 219 3 291 13 298 16 14 162 69 214
83 65 16 171 19 228 5 27 -7 92 -29 143 -49 200 -77 430 -96 585 -47 l67 22 0
194 c0 107 -4 195 -9 195 -5 0 -28 -7 -51 -15 -24 -8 -55 -18 -69 -21 -46 -10
-201 -11 -249 -2 -81 15 -86 16 -117 24 -16 4 -69 22 -117 41 -49 18 -121 41
-160 49 -93 21 -310 25 -402 7z"/>
</g>
</svg>
