<svg width="27" height="26" viewBox="0 0 27 26" fill="none" xmlns="http://www.w3.org/2000/svg">
<g clip-path="url(#clip0_938_1940)">
<path d="M0 12.47C0 3.12 4.61 0 13.01 0C21.55 0 26.16 3.12 26.16 12.47C26.16 21.42 21.69 25.08 13.01 25.08C3.79 25.07 0 21.82 0 12.47Z" fill="url(#paint0_linear_938_1940)"/>
<path d="M13.8002 7.86967C16.2702 8.95967 17.7302 8.10967 17.7302 8.10967V5.96967C17.7302 5.96967 16.3602 6.77967 14.1302 5.77967C13.2102 5.36967 11.9602 5.44967 10.8702 5.66967C10.0402 5.82967 9.2202 6.07967 8.4502 6.42967V10.2097V19.6097H10.8702V13.5997C11.0702 13.4797 12.4102 12.8797 13.5002 13.3697C15.9602 14.4697 17.4302 13.6097 17.4302 13.6097V11.4697C17.4302 11.4697 16.0502 12.2997 13.8302 11.2797C12.4602 10.6497 11.0802 11.3297 10.8702 11.4597V8.25967C11.9602 7.66967 12.9902 7.51967 13.8002 7.86967Z" fill="white"/>
</g>
<defs>
<linearGradient id="paint0_linear_938_1940" x1="10" y1="-2.5" x2="26" y2="25" gradientUnits="userSpaceOnUse">
<stop offset="0.0729167" stop-color="#FF9A62"/>
<stop offset="0.447917" stop-color="#85B6FF"/>
<stop offset="0.759168" stop-color="#EDB2E7"/>
<stop offset="0.760417" stop-color="#EDB2E7"/>
</linearGradient>
<clipPath id="clip0_938_1940">
<rect width="26.16" height="25.07" fill="white"/>
</clipPath>
</defs>
</svg>
