<svg width="53" height="50" viewBox="0 0 53 50" fill="none" xmlns="http://www.w3.org/2000/svg">
<g clipPath="url(#clip0)">
<path d="M0 24.7727C0 6.13636 9.09091 0 25.9091 0C42.9545 0 52.2727 6.13636 52.2727 24.7727C52.2727 42.7273 43.1818 50 25.9091 50C7.5 50 0 43.4091 0 24.7727Z" fill="black"/>
<path d="M27.5021 15.6821C32.5021 17.9548 35.2294 16.1366 35.2294 16.1366V11.8185C35.2294 11.8185 32.5021 13.4094 27.9567 11.3639C26.3658 10.6821 23.8658 10.9094 21.593 11.3639C20.0021 11.5912 18.4112 12.0457 16.8203 12.7275V20.2275V38.8639H21.593V26.8185C22.0476 26.5912 24.5476 25.4548 26.8203 26.3639C31.8203 28.6366 34.5476 26.8185 34.5476 26.8185V22.7275C34.5476 22.7275 31.8203 24.3185 27.2749 22.273C24.5476 20.9094 21.8203 22.273 21.3658 22.7275V16.3639C23.8658 15.2275 25.9112 15.0003 27.5021 15.6821Z" fill="white"/>
</g>
<defs>
<clipPath id="clip0">
<rect width="52.2727" height="50" fill="white"/>
</clipPath>
</defs>
</svg>
