<svg id="Layer_1" data-name="Layer 1" xmlns="http://www.w3.org/2000/svg" viewBox="0 0 102.35 26.33"><path id="Path_210" data-name="Path 210" d="M20.12,25.8V8h4.65V25.8Z"/><path id="Path_211" data-name="Path 211" d="M33.41,25.8H28.83V8H32.7l.4,3.72a7,7,0,0,1,6.82-4.22c4.83,0,7.5,3.07,7.5,7.84V25.8H42.83V16.44c0-3.19-1.11-5.15-4.4-5.15s-5,2.14-5,5.77Z"/><path id="Path_212" data-name="Path 212" d="M65.89,2.06V11c-1.24-2.2-3.5-3.47-6.63-3.47-5.27,0-8.77,3.29-8.77,9.24V17c0,6.26,3.6,9.23,8.62,9.23,3.53,0,5.86-1.55,7-4l.4,3.6h3.84V2.06ZM66.05,17c0,3.44-2,5.45-5.58,5.45-3.41,0-5.3-1.77-5.3-5.42v-.22c0-3.5,1.77-5.58,5.43-5.58,3.37,0,5.45,2.14,5.45,5.58Z"/><path id="Path_213" data-name="Path 213" d="M74.42,25.8V8h4.65V25.8Z"/><path id="Path_214" data-name="Path 214" d="M92.21,26.33c-7,0-10-3.6-10-9V17c0-5.52,3.72-9.52,10.2-9.52s9.92,4.06,9.92,9.18v1.89H86.63c.44,2.7,2.33,4.12,5.83,4.12,2.57,0,4-.74,4.71-2.14h5C100.7,24.44,97.32,26.33,92.21,26.33ZM86.69,15.14H97.85c-.4-2.7-2.11-4.12-5.33-4.12S87.25,12.53,86.69,15.14Z"/><path id="Path_215" data-name="Path 215" d="M73.83,2.86c0-2.14,1-2.85,3-2.85s3,.71,3,2.85-1,2.89-3,2.89S73.83,5,73.83,2.86Z"/><path id="Path_216" data-name="Path 216" d="M19.53,2.86c0-2.14,1-2.85,3-2.85s3,.71,3,2.85-1,2.89-3,2.89S19.53,5,19.53,2.86Z"/><path id="Path_217" data-name="Path 217" d="M9.8,4.38c4.52,2,7.19.43,7.19.43V.9S14.48,2.39,10.4.55a10.38,10.38,0,0,0-6-.21A20.32,20.32,0,0,0,0,1.72v6.9H0V25.8H4.43v-11c.37-.22,2.81-1.31,4.81-.42,4.51,2,7.19.43,7.19.43V10.92s-2.52,1.51-6.59-.35a6.24,6.24,0,0,0-5.41.34V5.08C6.45,4,8.33,3.73,9.8,4.38Z"/></svg>
