<svg width="165" height="43" viewBox="0 0 165 43" fill="none" xmlns="http://www.w3.org/2000/svg">
<path d="M32.4304 41.6075V12.855H39.9259V41.6075H32.4304Z" fill="white"/>
<path d="M53.8674 41.6075H46.4719V12.855H52.7181L53.3677 18.8555C55.1667 14.7552 58.8644 12.0549 64.3611 12.0549C72.1564 12.0549 76.4538 17.0054 76.4538 24.706V41.6075H69.0582V26.5062C69.0582 21.3557 67.2593 18.2055 61.9625 18.2055C56.4159 18.2055 53.8674 21.6558 53.8674 27.5063V41.6075Z" fill="white"/>
<path d="M106.236 3.30418V17.7054C104.237 14.1551 100.589 12.1049 95.5421 12.1049C87.0472 12.1049 81.4006 17.4054 81.4006 27.0062V27.4063C81.4006 37.5071 87.1971 42.3075 95.2922 42.3075C100.989 42.3075 104.736 39.8073 106.535 35.807L107.185 41.6075H113.381V3.30418H106.236ZM106.485 27.3563C106.485 32.9067 103.237 36.157 97.4909 36.157C91.9942 36.157 88.9461 33.3068 88.9461 27.4063V27.0562C88.9461 21.4057 91.7943 18.0555 97.6908 18.0555C103.137 18.0555 106.485 21.5058 106.485 27.0562V27.3563Z" fill="white"/>
<path d="M119.977 41.6075V12.855H127.473V41.6075H119.977Z" fill="white"/>
<path d="M148.66 42.4576C137.367 42.4576 132.57 36.6571 132.57 27.8563V27.4063C132.57 18.5055 138.566 12.0549 149.01 12.0549C159.703 12.0549 165 18.6055 165 26.8562V29.9065H139.665C140.365 34.2568 143.413 36.557 149.06 36.557C153.207 36.557 155.506 35.3569 156.655 33.1067H164.65C162.352 39.4073 156.905 42.4576 148.66 42.4576ZM139.765 24.406H157.754C157.105 20.0556 154.356 17.7554 149.16 17.7554C143.813 17.7554 140.665 20.2056 139.765 24.406Z" fill="white"/>
<path d="M15.8071 7.03861C23.086 10.2472 27.3834 7.74701 27.3834 7.74701V1.43813C27.3834 1.43813 23.3442 3.83834 16.7648 0.871413C14.0581 -0.353692 10.377 -0.112005 7.154 0.529717C3.43125 1.27145 0.316475 2.54656 0 2.75491C0 4.01335 0 12.7474 0 13.8975V41.6166H7.14567V28.1154V23.8901C7.74531 23.54 11.6763 21.7732 14.9076 23.2067C22.1699 26.4403 26.484 23.9151 26.484 23.9151V17.6062C26.484 17.6062 22.4197 20.0481 15.8654 17.0395C11.8262 15.1893 7.75364 17.1895 7.154 17.5812V8.18038C10.3854 6.43856 13.4335 5.99686 15.8071 7.03861Z" fill="white"/>
<path d="M119.028 4.60425C119.028 1.15395 120.727 0.00384903 123.825 0.00384903C126.973 0.00384903 128.672 1.15395 128.672 4.60425C128.672 7.90453 127.023 9.25465 123.825 9.25465C120.427 9.25465 119.028 8.05455 119.028 4.60425Z" fill="white"/>
<path d="M31.481 4.60425C31.481 1.15395 33.1799 0.00384903 36.2781 0.00384903C39.4261 0.00384903 41.1251 1.15395 41.1251 4.60425C41.1251 7.90453 39.4761 9.25465 36.2781 9.25465C32.8801 9.25465 31.481 8.05455 31.481 4.60425Z" fill="white"/>
</svg>
