<?xml version="1.0" encoding="UTF-8"?><svg id="a" xmlns="http://www.w3.org/2000/svg" viewBox="0 0 27 27"><defs><style>.d{fill:none;stroke:#000;stroke-miterlimit:10;stroke-width:.75px;}</style></defs><path id="b" class="d" d="M1,13.25C1,4.32,5.4,1.34,13.44,1.34s12.56,2.98,12.56,11.92-4.27,12.05-12.56,12.05C4.63,25.3,1,22.19,1,13.25Z"/><path id="c" d="M14.19,8.86c2.36,1.04,3.75,.23,3.75,.23v-2.04s-1.31,.78-3.44-.18c-.88-.4-2.07-.32-3.12-.11-.8,.15-1.57,.39-2.32,.72v3.61h0v8.98h2.32v-5.74c.19-.11,1.47-.69,2.52-.22,2.36,1.05,3.75,.23,3.75,.23v-2.04s-1.32,.79-3.44-.18c-1.31-.6-2.63,.05-2.83,.17v-3.04c1.05-.56,2.04-.71,2.81-.37Z"/></svg>