<svg width="665" height="116" viewBox="0 0 665 116" fill="none" xmlns="http://www.w3.org/2000/svg">
<circle cx="108.5" cy="17.5" r="9.1" stroke="white" stroke-width="0.8"/>
<circle cx="140.5" cy="17.5" r="9.1" stroke="white" stroke-width="0.8"/>
<circle cx="172.5" cy="17.5" r="9.1" stroke="white" stroke-width="0.8"/>
<circle cx="204.5" cy="17.5" r="9.1" stroke="white" stroke-width="0.8"/>
<circle cx="44.5" cy="17.5" r="9.1" stroke="white" stroke-width="0.8"/>
<circle cx="12.5" cy="17.5" r="9.1" stroke="white" stroke-width="0.8"/>
<circle cx="236.5" cy="17.5" r="9.1" stroke="white" stroke-width="0.8"/>
<circle cx="76.5" cy="17.5" r="9.1" stroke="white" stroke-width="0.8"/>
<circle cx="268.5" cy="17.5" r="9.1" stroke="white" stroke-width="0.8"/>
<circle cx="300.5" cy="17.5" r="9.1" stroke="white" stroke-width="0.8"/>
<circle cx="332.5" cy="17.5" r="9.1" stroke="white" stroke-width="0.8"/>
<circle cx="556.5" cy="17.5" r="9.1" stroke="white" stroke-width="0.8"/>
<circle cx="620.5" cy="17.5" r="9.1" stroke="white" stroke-width="0.8"/>
<circle cx="652.5" cy="17.5" r="9.1" stroke="white" stroke-width="0.8"/>
<circle cx="364.5" cy="17.5" r="9.1" stroke="white" stroke-width="0.8"/>
<circle cx="588.5" cy="17.5" r="9.1" stroke="white" stroke-width="0.8"/>
<circle cx="396.5" cy="17.5" r="9.1" stroke="white" stroke-width="0.8"/>
<circle cx="428.5" cy="17.5" r="9.1" stroke="white" stroke-width="0.8"/>
<circle cx="460.5" cy="17.5" r="9.1" stroke="white" stroke-width="0.8"/>
<circle cx="492.5" cy="17.5" r="9.1" stroke="white" stroke-width="0.8"/>
<circle cx="524.5" cy="17.5" r="9.1" fill="white" stroke="white" stroke-width="0.8"/>
<circle cx="108.5" cy="44.5" r="9.1" stroke="white" stroke-width="0.8"/>
<circle cx="108.5" cy="71.5" r="9.1" stroke="white" stroke-width="0.8"/>
<circle cx="108.5" cy="98.5" r="9.1" stroke="white" stroke-width="0.8"/>
<circle cx="140.5" cy="44.5" r="9.1" stroke="white" stroke-width="0.8"/>
<circle cx="140.5" cy="71.5" r="9.1" fill="white" stroke="white" stroke-width="0.8"/>
<circle cx="140.5" cy="98.5" r="9.1" stroke="white" stroke-width="0.8"/>
<circle cx="172.5" cy="44.5" r="9.1" stroke="white" stroke-width="0.8"/>
<circle cx="172.5" cy="71.5" r="9.1" stroke="white" stroke-width="0.8"/>
<circle cx="172.5" cy="98.5" r="9.1" stroke="white" stroke-width="0.8"/>
<circle cx="204.5" cy="44.5" r="9.1" stroke="white" stroke-width="0.8"/>
<circle cx="44.5" cy="44.5" r="9.1" stroke="white" stroke-width="0.8"/>
<circle cx="12.5" cy="44.5" r="9.1" stroke="white" stroke-width="0.8"/>
<circle cx="204.5" cy="71.5" r="9.1" stroke="white" stroke-width="0.8"/>
<circle cx="44.5" cy="71.5" r="9.1" stroke="white" stroke-width="0.8"/>
<circle cx="12.5" cy="71.5" r="9.1" stroke="white" stroke-width="0.8"/>
<circle cx="204.5" cy="98.5" r="9.1" stroke="white" stroke-width="0.8"/>
<circle cx="44.5" cy="98.5" r="9.1" stroke="white" stroke-width="0.8"/>
<circle cx="12.5" cy="98.5" r="9.1" stroke="white" stroke-width="0.8"/>
<circle cx="236.5" cy="44.5" r="9.1" stroke="white" stroke-width="0.8"/>
<circle cx="76.5" cy="44.5" r="9.1" stroke="white" stroke-width="0.8"/>
<circle cx="236.5" cy="71.5" r="9.1" stroke="white" stroke-width="0.8"/>
<circle cx="76.5" cy="71.5" r="9.1" stroke="white" stroke-width="0.8"/>
<circle cx="236.5" cy="98.5" r="9.1" stroke="white" stroke-width="0.8"/>
<circle cx="76.5" cy="98.5" r="9.1" stroke="white" stroke-width="0.8"/>
<circle cx="268.5" cy="44.5" r="9.1" stroke="white" stroke-width="0.8"/>
<circle cx="268.5" cy="71.5" r="9.1" stroke="white" stroke-width="0.8"/>
<circle cx="268.5" cy="98.5" r="9.1" stroke="white" stroke-width="0.8"/>
<circle cx="300.5" cy="44.5" r="9.1" fill="white" stroke="white" stroke-width="0.8"/>
<circle cx="300.5" cy="71.5" r="9.1" stroke="white" stroke-width="0.8"/>
<circle cx="300.5" cy="98.5" r="9.1" stroke="white" stroke-width="0.8"/>
<circle cx="332.5" cy="44.5" r="9.1" stroke="white" stroke-width="0.8"/>
<circle cx="556.5" cy="44.5" r="9.1" stroke="white" stroke-width="0.8"/>
<circle cx="620.5" cy="44.5" r="9.1" stroke="white" stroke-width="0.8"/>
<circle cx="652.5" cy="44.5" r="9.1" stroke="white" stroke-width="0.8"/>
<circle cx="332.5" cy="71.5" r="9.1" stroke="white" stroke-width="0.8"/>
<circle cx="556.5" cy="71.5" r="9.1" stroke="white" stroke-width="0.8"/>
<circle cx="620.5" cy="71.5" r="9.1" stroke="white" stroke-width="0.8"/>
<circle cx="652.5" cy="71.5" r="9.1" stroke="white" stroke-width="0.8"/>
<circle cx="332.5" cy="98.5" r="9.1" stroke="white" stroke-width="0.8"/>
<circle cx="556.5" cy="98.5" r="9.1" stroke="white" stroke-width="0.8"/>
<circle cx="620.5" cy="98.5" r="9.1" stroke="white" stroke-width="0.8"/>
<circle cx="652.5" cy="98.5" r="9.1" stroke="white" stroke-width="0.8"/>
<circle cx="364.5" cy="44.5" r="9.1" stroke="white" stroke-width="0.8"/>
<circle cx="588.5" cy="44.5" r="9.1" stroke="white" stroke-width="0.8"/>
<circle cx="364.5" cy="71.5" r="9.1" stroke="white" stroke-width="0.8"/>
<circle cx="588.5" cy="71.5" r="9.1" stroke="white" stroke-width="0.8"/>
<circle cx="364.5" cy="98.5" r="9.1" stroke="white" stroke-width="0.8"/>
<circle cx="588.5" cy="98.5" r="9.1" stroke="white" stroke-width="0.8"/>
<circle cx="396.5" cy="44.5" r="9.1" stroke="white" stroke-width="0.8"/>
<circle cx="396.5" cy="71.5" r="9.1" stroke="white" stroke-width="0.8"/>
<circle cx="396.5" cy="98.5" r="9.1" stroke="white" stroke-width="0.8"/>
<circle cx="428.5" cy="44.5" r="9.1" stroke="white" stroke-width="0.8"/>
<circle cx="428.5" cy="71.5" r="9.1" stroke="white" stroke-width="0.8"/>
<circle cx="428.5" cy="98.5" r="9.1" stroke="white" stroke-width="0.8"/>
<circle cx="460.5" cy="44.5" r="9.1" stroke="white" stroke-width="0.8"/>
<circle cx="460.5" cy="71.5" r="9.1" stroke="white" stroke-width="0.8"/>
<circle cx="460.5" cy="98.5" r="9.1" fill="white" stroke="white" stroke-width="0.8"/>
<circle cx="492.5" cy="44.5" r="9.1" stroke="white" stroke-width="0.8"/>
<circle cx="492.5" cy="71.5" r="9.1" stroke="white" stroke-width="0.8"/>
<circle cx="492.5" cy="98.5" r="9.1" stroke="white" stroke-width="0.8"/>
<circle cx="524.5" cy="44.5" r="9.1" stroke="white" stroke-width="0.8"/>
<circle cx="524.5" cy="71.5" r="9.1" stroke="white" stroke-width="0.8"/>
<circle cx="524.5" cy="98.5" r="9.1" stroke="white" stroke-width="0.8"/>
</svg>
