<svg width="320" height="59" viewBox="0 0 320 59" fill="none" xmlns="http://www.w3.org/2000/svg">
<path d="M49.5087 5.65826C49.5087 8.56744 47.1143 10.9317 44.1533 10.9317C41.1923 10.9317 38.7979 8.56744 38.7979 5.65826C38.7979 2.74908 41.1923 0.384816 44.1533 0.384816C47.1143 0.384816 49.5087 2.74908 49.5087 5.65826Z" stroke="white" stroke-width="0.470805"/>
<path d="M30.2275 5.65826C30.2275 8.56744 27.8331 10.9317 24.8721 10.9317C21.9111 10.9317 19.5167 8.56744 19.5167 5.65826C19.5167 2.74908 21.9111 0.384816 24.8721 0.384816C27.8331 0.384816 30.2275 2.74908 30.2275 5.65826Z" stroke="white" stroke-width="0.470805"/>
<path d="M10.9462 5.65826C10.9462 8.56744 8.5518 10.9317 5.5908 10.9317C2.62981 10.9317 0.235402 8.56744 0.235402 5.65826C0.235402 2.74908 2.62981 0.384816 5.5908 0.384816C8.5518 0.384816 10.9462 2.74908 10.9462 5.65826Z" stroke="white" stroke-width="0.470805"/>
<path d="M68.79 5.65826C68.79 8.56744 66.3956 10.9317 63.4346 10.9317C60.4736 10.9317 58.0792 8.56744 58.0792 5.65826C58.0792 2.74908 60.4736 0.384816 63.4346 0.384816C66.3956 0.384816 68.79 2.74908 68.79 5.65826Z" stroke="white" stroke-width="0.470805"/>
<path d="M88.0712 5.65826C88.0712 8.56744 85.6768 10.9317 82.7158 10.9317C79.7548 10.9317 77.3604 8.56744 77.3604 5.65826C77.3604 2.74908 79.7548 0.384816 82.7158 0.384816C85.6768 0.384816 88.0712 2.74908 88.0712 5.65826Z" stroke="white" stroke-width="0.470805"/>
<path d="M107.352 5.65826C107.352 8.56744 104.958 10.9317 101.997 10.9317C99.0361 10.9317 96.6417 8.56744 96.6417 5.65826C96.6417 2.74908 99.0361 0.384816 101.997 0.384816C104.958 0.384816 107.352 2.74908 107.352 5.65826Z" stroke="white" stroke-width="0.470805"/>
<path d="M126.634 5.65826C126.634 8.56744 124.239 10.9317 121.278 10.9317C118.317 10.9317 115.923 8.56744 115.923 5.65826C115.923 2.74908 118.317 0.384816 121.278 0.384816C124.239 0.384816 126.634 2.74908 126.634 5.65826Z" stroke="white" stroke-width="0.470805"/>
<path d="M145.915 5.65826C145.915 8.56744 143.521 10.9317 140.56 10.9317C137.599 10.9317 135.204 8.56744 135.204 5.65826C135.204 2.74908 137.599 0.384816 140.56 0.384816C143.521 0.384816 145.915 2.74908 145.915 5.65826Z" stroke="white" stroke-width="0.470805"/>
<path d="M165.196 5.65826C165.196 8.56744 162.802 10.9317 159.841 10.9317C156.88 10.9317 154.485 8.56744 154.485 5.65826C154.485 2.74908 156.88 0.384816 159.841 0.384816C162.802 0.384816 165.196 2.74908 165.196 5.65826Z" stroke="white" stroke-width="0.470805"/>
<path d="M184.477 5.65826C184.477 8.56744 182.083 10.9317 179.122 10.9317C176.161 10.9317 173.767 8.56744 173.767 5.65826C173.767 2.74908 176.161 0.384816 179.122 0.384816C182.083 0.384816 184.477 2.74908 184.477 5.65826Z" stroke="white" stroke-width="0.470805"/>
<path d="M203.759 5.65826C203.759 8.56744 201.364 10.9317 198.403 10.9317C195.442 10.9317 193.048 8.56744 193.048 5.65826C193.048 2.74908 195.442 0.384816 198.403 0.384816C201.364 0.384816 203.759 2.74908 203.759 5.65826Z" stroke="white" stroke-width="0.470805"/>
<path d="M223.04 5.65826C223.04 8.56744 220.646 10.9317 217.685 10.9317C214.724 10.9317 212.329 8.56744 212.329 5.65826C212.329 2.74908 214.724 0.384816 217.685 0.384816C220.646 0.384816 223.04 2.74908 223.04 5.65826Z" stroke="white" stroke-width="0.470805"/>
<path d="M242.321 5.65826C242.321 8.56744 239.927 10.9317 236.966 10.9317C234.005 10.9317 231.61 8.56744 231.61 5.65826C231.61 2.74908 234.005 0.384816 236.966 0.384816C239.927 0.384816 242.321 2.74908 242.321 5.65826Z" stroke="white" stroke-width="0.470805"/>
<path d="M261.602 5.65826C261.602 8.56744 259.208 10.9317 256.247 10.9317C253.286 10.9317 250.892 8.56744 250.892 5.65826C250.892 2.74908 253.286 0.384816 256.247 0.384816C259.208 0.384816 261.602 2.74908 261.602 5.65826Z" stroke="white" stroke-width="0.470805"/>
<path d="M280.884 5.65826C280.884 8.56744 278.489 10.9317 275.528 10.9317C272.567 10.9317 270.173 8.56744 270.173 5.65826C270.173 2.74908 272.567 0.384816 275.528 0.384816C278.489 0.384816 280.884 2.74908 280.884 5.65826Z" stroke="white" stroke-width="0.470805"/>
<path d="M319.446 5.65826C319.446 8.56744 317.052 10.9317 314.091 10.9317C311.13 10.9317 308.735 8.56744 308.735 5.65826C308.735 2.74908 311.13 0.384816 314.091 0.384816C317.052 0.384816 319.446 2.74908 319.446 5.65826Z" stroke="white" stroke-width="0.470805"/>
<path d="M49.5087 21.6026C49.5087 24.5118 47.1143 26.876 44.1533 26.876C41.1923 26.876 38.7979 24.5118 38.7979 21.6026C38.7979 18.6934 41.1923 16.3292 44.1533 16.3292C47.1143 16.3292 49.5087 18.6934 49.5087 21.6026Z" stroke="white" stroke-width="0.470805"/>
<path d="M49.5087 37.5469C49.5087 40.4561 47.1143 42.8204 44.1533 42.8204C41.1923 42.8204 38.7979 40.4561 38.7979 37.5469C38.7979 34.6378 41.1923 32.2735 44.1533 32.2735C47.1143 32.2735 49.5087 34.6378 49.5087 37.5469Z" stroke="white" stroke-width="0.470805"/>
<path d="M49.5087 53.4913C49.5087 56.4004 47.1143 58.7647 44.1533 58.7647C41.1923 58.7647 38.7979 56.4004 38.7979 53.4913C38.7979 50.5821 41.1923 48.2178 44.1533 48.2178C47.1143 48.2178 49.5087 50.5821 49.5087 53.4913Z" stroke="white" stroke-width="0.470805"/>
<path d="M30.2275 21.6026C30.2275 24.5118 27.8331 26.876 24.8721 26.876C21.9111 26.876 19.5167 24.5118 19.5167 21.6026C19.5167 18.6934 21.9111 16.3292 24.8721 16.3292C27.8331 16.3292 30.2275 18.6934 30.2275 21.6026Z" stroke="white" stroke-width="0.470805"/>
<path d="M30.2275 37.5469C30.2275 40.4561 27.8331 42.8204 24.8721 42.8204C21.9111 42.8204 19.5167 40.4561 19.5167 37.5469C19.5167 34.6378 21.9111 32.2735 24.8721 32.2735C27.8331 32.2735 30.2275 34.6378 30.2275 37.5469Z" stroke="white" stroke-width="0.470805"/>
<path d="M30.2275 53.4913C30.2275 56.4004 27.8331 58.7647 24.8721 58.7647C21.9111 58.7647 19.5167 56.4004 19.5167 53.4913C19.5167 50.5821 21.9111 48.2178 24.8721 48.2178C27.8331 48.2178 30.2275 50.5821 30.2275 53.4913Z" stroke="white" stroke-width="0.470805"/>
<path d="M300.165 5.65826C300.165 8.56744 297.771 10.9317 294.81 10.9317C291.849 10.9317 289.454 8.56744 289.454 5.65826C289.454 2.74908 291.849 0.384816 294.81 0.384816C297.771 0.384816 300.165 2.74908 300.165 5.65826Z" fill="white" stroke="white" stroke-width="0.470805"/>
<path d="M10.9462 21.6026C10.9462 24.5118 8.5518 26.876 5.5908 26.876C2.62981 26.876 0.235402 24.5118 0.235402 21.6026C0.235402 18.6934 2.62981 16.3292 5.5908 16.3292C8.5518 16.3292 10.9462 18.6934 10.9462 21.6026Z" stroke="white" stroke-width="0.470805"/>
<path d="M10.9462 37.5469C10.9462 40.4561 8.5518 42.8204 5.5908 42.8204C2.62981 42.8204 0.235402 40.4561 0.235402 37.5469C0.235402 34.6378 2.62981 32.2735 5.5908 32.2735C8.5518 32.2735 10.9462 34.6378 10.9462 37.5469Z" stroke="white" stroke-width="0.470805"/>
<path d="M10.9462 53.4913C10.9462 56.4004 8.5518 58.7647 5.5908 58.7647C2.62981 58.7647 0.235402 56.4004 0.235402 53.4913C0.235402 50.5821 2.62981 48.2178 5.5908 48.2178C8.5518 48.2178 10.9462 50.5821 10.9462 53.4913Z" stroke="white" stroke-width="0.470805"/>
<path d="M68.79 21.6026C68.79 24.5118 66.3956 26.876 63.4346 26.876C60.4736 26.876 58.0792 24.5118 58.0792 21.6026C58.0792 18.6934 60.4736 16.3292 63.4346 16.3292C66.3956 16.3292 68.79 18.6934 68.79 21.6026Z" stroke="white" stroke-width="0.470805"/>
<path d="M68.79 37.5469C68.79 40.4561 66.3956 42.8204 63.4346 42.8204C60.4736 42.8204 58.0792 40.4561 58.0792 37.5469C58.0792 34.6378 60.4736 32.2735 63.4346 32.2735C66.3956 32.2735 68.79 34.6378 68.79 37.5469Z" fill="white" stroke="white" stroke-width="0.470805"/>
<path d="M68.79 53.4913C68.79 56.4004 66.3956 58.7647 63.4346 58.7647C60.4736 58.7647 58.0792 56.4004 58.0792 53.4913C58.0792 50.5821 60.4736 48.2178 63.4346 48.2178C66.3956 48.2178 68.79 50.5821 68.79 53.4913Z" stroke="white" stroke-width="0.470805"/>
<path d="M88.0712 21.6026C88.0712 24.5118 85.6768 26.876 82.7158 26.876C79.7548 26.876 77.3604 24.5118 77.3604 21.6026C77.3604 18.6934 79.7548 16.3292 82.7158 16.3292C85.6768 16.3292 88.0712 18.6934 88.0712 21.6026Z" stroke="white" stroke-width="0.470805"/>
<path d="M88.0712 37.5469C88.0712 40.4561 85.6768 42.8204 82.7158 42.8204C79.7548 42.8204 77.3604 40.4561 77.3604 37.5469C77.3604 34.6378 79.7548 32.2735 82.7158 32.2735C85.6768 32.2735 88.0712 34.6378 88.0712 37.5469Z" stroke="white" stroke-width="0.470805"/>
<path d="M88.0712 53.4913C88.0712 56.4004 85.6768 58.7647 82.7158 58.7647C79.7548 58.7647 77.3604 56.4004 77.3604 53.4913C77.3604 50.5821 79.7548 48.2178 82.7158 48.2178C85.6768 48.2178 88.0712 50.5821 88.0712 53.4913Z" stroke="white" stroke-width="0.470805"/>
<path d="M107.352 21.6026C107.352 24.5118 104.958 26.876 101.997 26.876C99.0361 26.876 96.6417 24.5118 96.6417 21.6026C96.6417 18.6934 99.0361 16.3292 101.997 16.3292C104.958 16.3292 107.352 18.6934 107.352 21.6026Z" stroke="white" stroke-width="0.470805"/>
<path d="M107.352 37.5469C107.352 40.4561 104.958 42.8204 101.997 42.8204C99.0361 42.8204 96.6417 40.4561 96.6417 37.5469C96.6417 34.6378 99.0361 32.2735 101.997 32.2735C104.958 32.2735 107.352 34.6378 107.352 37.5469Z" stroke="white" stroke-width="0.470805"/>
<path d="M107.352 53.4913C107.352 56.4004 104.958 58.7647 101.997 58.7647C99.0361 58.7647 96.6417 56.4004 96.6417 53.4913C96.6417 50.5821 99.0361 48.2178 101.997 48.2178C104.958 48.2178 107.352 50.5821 107.352 53.4913Z" stroke="white" stroke-width="0.470805"/>
<path d="M126.634 21.6026C126.634 24.5118 124.239 26.876 121.278 26.876C118.317 26.876 115.923 24.5118 115.923 21.6026C115.923 18.6934 118.317 16.3292 121.278 16.3292C124.239 16.3292 126.634 18.6934 126.634 21.6026Z" stroke="white" stroke-width="0.470805"/>
<path d="M126.634 37.5469C126.634 40.4561 124.239 42.8204 121.278 42.8204C118.317 42.8204 115.923 40.4561 115.923 37.5469C115.923 34.6378 118.317 32.2735 121.278 32.2735C124.239 32.2735 126.634 34.6378 126.634 37.5469Z" stroke="white" stroke-width="0.470805"/>
<path d="M126.634 53.4913C126.634 56.4004 124.239 58.7647 121.278 58.7647C118.317 58.7647 115.923 56.4004 115.923 53.4913C115.923 50.5821 118.317 48.2178 121.278 48.2178C124.239 48.2178 126.634 50.5821 126.634 53.4913Z" stroke="white" stroke-width="0.470805"/>
<path d="M145.915 21.6026C145.915 24.5118 143.521 26.876 140.56 26.876C137.599 26.876 135.204 24.5118 135.204 21.6026C135.204 18.6934 137.599 16.3292 140.56 16.3292C143.521 16.3292 145.915 18.6934 145.915 21.6026Z" stroke="white" stroke-width="0.470805"/>
<path d="M145.915 37.5469C145.915 40.4561 143.521 42.8204 140.56 42.8204C137.599 42.8204 135.204 40.4561 135.204 37.5469C135.204 34.6378 137.599 32.2735 140.56 32.2735C143.521 32.2735 145.915 34.6378 145.915 37.5469Z" stroke="white" stroke-width="0.470805"/>
<path d="M145.915 53.4913C145.915 56.4004 143.521 58.7647 140.56 58.7647C137.599 58.7647 135.204 56.4004 135.204 53.4913C135.204 50.5821 137.599 48.2178 140.56 48.2178C143.521 48.2178 145.915 50.5821 145.915 53.4913Z" stroke="white" stroke-width="0.470805"/>
<path d="M165.196 21.6026C165.196 24.5118 162.802 26.876 159.841 26.876C156.88 26.876 154.485 24.5118 154.485 21.6026C154.485 18.6934 156.88 16.3292 159.841 16.3292C162.802 16.3292 165.196 18.6934 165.196 21.6026Z" fill="white" stroke="white" stroke-width="0.470805"/>
<path d="M165.196 37.5469C165.196 40.4561 162.802 42.8204 159.841 42.8204C156.88 42.8204 154.485 40.4561 154.485 37.5469C154.485 34.6378 156.88 32.2735 159.841 32.2735C162.802 32.2735 165.196 34.6378 165.196 37.5469Z" stroke="white" stroke-width="0.470805"/>
<path d="M165.196 53.4913C165.196 56.4004 162.802 58.7647 159.841 58.7647C156.88 58.7647 154.485 56.4004 154.485 53.4913C154.485 50.5821 156.88 48.2178 159.841 48.2178C162.802 48.2178 165.196 50.5821 165.196 53.4913Z" stroke="white" stroke-width="0.470805"/>
<path d="M184.477 21.6026C184.477 24.5118 182.083 26.876 179.122 26.876C176.161 26.876 173.767 24.5118 173.767 21.6026C173.767 18.6934 176.161 16.3292 179.122 16.3292C182.083 16.3292 184.477 18.6934 184.477 21.6026Z" stroke="white" stroke-width="0.470805"/>
<path d="M184.477 37.5469C184.477 40.4561 182.083 42.8204 179.122 42.8204C176.161 42.8204 173.767 40.4561 173.767 37.5469C173.767 34.6378 176.161 32.2735 179.122 32.2735C182.083 32.2735 184.477 34.6378 184.477 37.5469Z" stroke="white" stroke-width="0.470805"/>
<path d="M184.477 53.4913C184.477 56.4004 182.083 58.7647 179.122 58.7647C176.161 58.7647 173.767 56.4004 173.767 53.4913C173.767 50.5821 176.161 48.2178 179.122 48.2178C182.083 48.2178 184.477 50.5821 184.477 53.4913Z" stroke="white" stroke-width="0.470805"/>
<path d="M203.759 21.6026C203.759 24.5118 201.364 26.876 198.403 26.876C195.442 26.876 193.048 24.5118 193.048 21.6026C193.048 18.6934 195.442 16.3292 198.403 16.3292C201.364 16.3292 203.759 18.6934 203.759 21.6026Z" stroke="white" stroke-width="0.470805"/>
<path d="M203.759 37.5469C203.759 40.4561 201.364 42.8204 198.403 42.8204C195.442 42.8204 193.048 40.4561 193.048 37.5469C193.048 34.6378 195.442 32.2735 198.403 32.2735C201.364 32.2735 203.759 34.6378 203.759 37.5469Z" stroke="white" stroke-width="0.470805"/>
<path d="M203.759 53.4913C203.759 56.4004 201.364 58.7647 198.403 58.7647C195.442 58.7647 193.048 56.4004 193.048 53.4913C193.048 50.5821 195.442 48.2178 198.403 48.2178C201.364 48.2178 203.759 50.5821 203.759 53.4913Z" stroke="white" stroke-width="0.470805"/>
<path d="M223.04 21.6026C223.04 24.5118 220.646 26.876 217.685 26.876C214.724 26.876 212.329 24.5118 212.329 21.6026C212.329 18.6934 214.724 16.3292 217.685 16.3292C220.646 16.3292 223.04 18.6934 223.04 21.6026Z" stroke="white" stroke-width="0.470805"/>
<path d="M223.04 37.5469C223.04 40.4561 220.646 42.8204 217.685 42.8204C214.724 42.8204 212.329 40.4561 212.329 37.5469C212.329 34.6378 214.724 32.2735 217.685 32.2735C220.646 32.2735 223.04 34.6378 223.04 37.5469Z" stroke="white" stroke-width="0.470805"/>
<path d="M223.04 53.4913C223.04 56.4004 220.646 58.7647 217.685 58.7647C214.724 58.7647 212.329 56.4004 212.329 53.4913C212.329 50.5821 214.724 48.2178 217.685 48.2178C220.646 48.2178 223.04 50.5821 223.04 53.4913Z" stroke="white" stroke-width="0.470805"/>
<path d="M242.321 21.6026C242.321 24.5118 239.927 26.876 236.966 26.876C234.005 26.876 231.61 24.5118 231.61 21.6026C231.61 18.6934 234.005 16.3292 236.966 16.3292C239.927 16.3292 242.321 18.6934 242.321 21.6026Z" stroke="white" stroke-width="0.470805"/>
<path d="M242.321 37.5469C242.321 40.4561 239.927 42.8204 236.966 42.8204C234.005 42.8204 231.61 40.4561 231.61 37.5469C231.61 34.6378 234.005 32.2735 236.966 32.2735C239.927 32.2735 242.321 34.6378 242.321 37.5469Z" stroke="white" stroke-width="0.470805"/>
<path d="M242.321 53.4913C242.321 56.4004 239.927 58.7647 236.966 58.7647C234.005 58.7647 231.61 56.4004 231.61 53.4913C231.61 50.5821 234.005 48.2178 236.966 48.2178C239.927 48.2178 242.321 50.5821 242.321 53.4913Z" stroke="white" stroke-width="0.470805"/>
<path d="M261.602 21.6026C261.602 24.5118 259.208 26.876 256.247 26.876C253.286 26.876 250.892 24.5118 250.892 21.6026C250.892 18.6934 253.286 16.3292 256.247 16.3292C259.208 16.3292 261.602 18.6934 261.602 21.6026Z" stroke="white" stroke-width="0.470805"/>
<path d="M261.602 37.5469C261.602 40.4561 259.208 42.8204 256.247 42.8204C253.286 42.8204 250.892 40.4561 250.892 37.5469C250.892 34.6378 253.286 32.2735 256.247 32.2735C259.208 32.2735 261.602 34.6378 261.602 37.5469Z" stroke="white" stroke-width="0.470805"/>
<path d="M261.602 53.4913C261.602 56.4004 259.208 58.7647 256.247 58.7647C253.286 58.7647 250.892 56.4004 250.892 53.4913C250.892 50.5821 253.286 48.2178 256.247 48.2178C259.208 48.2178 261.602 50.5821 261.602 53.4913Z" fill="white" stroke="white" stroke-width="0.470805"/>
<path d="M280.884 21.6026C280.884 24.5118 278.489 26.876 275.528 26.876C272.567 26.876 270.173 24.5118 270.173 21.6026C270.173 18.6934 272.567 16.3292 275.528 16.3292C278.489 16.3292 280.884 18.6934 280.884 21.6026Z" stroke="white" stroke-width="0.470805"/>
<path d="M319.446 21.6026C319.446 24.5118 317.052 26.876 314.091 26.876C311.13 26.876 308.735 24.5118 308.735 21.6026C308.735 18.6934 311.13 16.3292 314.091 16.3292C317.052 16.3292 319.446 18.6934 319.446 21.6026Z" stroke="white" stroke-width="0.470805"/>
<path d="M280.884 37.5469C280.884 40.4561 278.489 42.8204 275.528 42.8204C272.567 42.8204 270.173 40.4561 270.173 37.5469C270.173 34.6378 272.567 32.2735 275.528 32.2735C278.489 32.2735 280.884 34.6378 280.884 37.5469Z" stroke="white" stroke-width="0.470805"/>
<path d="M319.446 37.5469C319.446 40.4561 317.052 42.8204 314.091 42.8204C311.13 42.8204 308.735 40.4561 308.735 37.5469C308.735 34.6378 311.13 32.2735 314.091 32.2735C317.052 32.2735 319.446 34.6378 319.446 37.5469Z" stroke="white" stroke-width="0.470805"/>
<path d="M280.884 53.4913C280.884 56.4004 278.489 58.7647 275.528 58.7647C272.567 58.7647 270.173 56.4004 270.173 53.4913C270.173 50.5821 272.567 48.2178 275.528 48.2178C278.489 48.2178 280.884 50.5821 280.884 53.4913Z" stroke="white" stroke-width="0.470805"/>
<path d="M319.446 53.4913C319.446 56.4004 317.052 58.7647 314.091 58.7647C311.13 58.7647 308.735 56.4004 308.735 53.4913C308.735 50.5821 311.13 48.2178 314.091 48.2178C317.052 48.2178 319.446 50.5821 319.446 53.4913Z" stroke="white" stroke-width="0.470805"/>
<path d="M300.165 21.6026C300.165 24.5118 297.771 26.876 294.81 26.876C291.849 26.876 289.454 24.5118 289.454 21.6026C289.454 18.6934 291.849 16.3292 294.81 16.3292C297.771 16.3292 300.165 18.6934 300.165 21.6026Z" stroke="white" stroke-width="0.470805"/>
<path d="M300.165 37.5469C300.165 40.4561 297.771 42.8204 294.81 42.8204C291.849 42.8204 289.454 40.4561 289.454 37.5469C289.454 34.6378 291.849 32.2735 294.81 32.2735C297.771 32.2735 300.165 34.6378 300.165 37.5469Z" stroke="white" stroke-width="0.470805"/>
<path d="M300.165 53.4913C300.165 56.4004 297.771 58.7647 294.81 58.7647C291.849 58.7647 289.454 56.4004 289.454 53.4913C289.454 50.5821 291.849 48.2178 294.81 48.2178C297.771 48.2178 300.165 50.5821 300.165 53.4913Z" stroke="white" stroke-width="0.470805"/>
</svg>
