<svg width="441" height="118" viewBox="0 0 441 118" fill="none" xmlns="http://www.w3.org/2000/svg">
<path d="M440.5 52.9184C436.157 49.3892 424.063 44.4483 410.432 52.9184C396.801 61.3885 384.706 56.4476 380.363 52.9184C376.02 49.5967 363.926 44.9463 350.295 52.9184C336.664 60.8905 323.567 56.2401 318.723 52.9184C313.879 49.3891 301.083 44.4481 288.655 52.9184C276.226 61.3887 264.433 56.4477 260.09 52.9184C255.913 49.1815 244.253 43.9499 231.023 52.9184C217.793 61.8868 206.468 56.6552 202.458 52.9184C197.948 49.1816 186.322 43.9501 175.898 52.9184C165.474 61.8867 155.184 56.6552 151.342 52.9184C146.999 49.1816 136.208 43.9501 127.788 52.9184C119.369 61.8867 107.91 56.6552 103.233 52.9184C99.5576 48.974 89.3009 43.4518 77.6745 52.9184C66.048 62.385 54.7891 56.8628 50.6129 52.9184C46.9379 48.974 37.1823 43.4519 27.5604 52.9184C17.9386 62.3849 5.84437 56.8628 1.00001 52.9184" stroke="white" stroke-width="0.801824"/>
<path d="M440.5 111.773C436.157 108.244 424.063 103.303 410.432 111.773C396.801 120.243 384.706 115.302 380.363 111.773C376.02 108.451 363.926 103.801 350.295 111.773C336.664 119.745 323.567 115.095 318.723 111.773C313.879 108.244 301.083 103.303 288.655 111.773C276.226 120.243 264.433 115.302 260.09 111.773C255.913 108.036 244.253 102.804 231.023 111.773C217.793 120.741 206.468 115.51 202.458 111.773C197.948 108.036 186.322 102.805 175.898 111.773C165.474 120.741 155.184 115.51 151.342 111.773C146.999 108.036 136.208 102.805 127.788 111.773C119.369 120.741 107.91 115.51 103.233 111.773C99.5576 107.828 89.3009 102.306 77.6745 111.773C66.048 121.239 54.7891 115.717 50.6129 111.773C46.9379 107.829 37.1823 102.306 27.5604 111.773C17.9386 121.239 5.84437 115.717 1.00001 111.773" stroke="white" stroke-width="0.801824"/>
<path d="M440.5 29.3764C436.157 25.8472 424.063 20.9063 410.432 29.3764C396.801 37.8465 384.706 32.9056 380.363 29.3764C376.02 26.0547 363.926 21.4043 350.295 29.3764C336.664 37.3485 323.567 32.6981 318.723 29.3764C313.879 25.8471 301.083 20.9061 288.655 29.3764C276.226 37.8467 264.433 32.9057 260.09 29.3764C255.913 25.6395 244.253 20.408 231.023 29.3764C217.793 38.3448 206.468 33.1132 202.458 29.3764C197.948 25.6396 186.322 20.4081 175.898 29.3764C165.474 38.3447 155.184 33.1132 151.342 29.3764C146.999 25.6396 136.208 20.4081 127.788 29.3764C119.369 38.3447 107.91 33.1132 103.233 29.3764C99.5576 25.432 89.3009 19.9098 77.6745 29.3764C66.048 38.843 54.7891 33.3208 50.6129 29.3764C46.9379 25.432 37.1823 19.9099 27.5604 29.3764C17.9386 38.8429 5.84437 33.3208 1.00001 29.3764" stroke="white" stroke-width="0.801824"/>
<path d="M440.5 88.2309C436.157 84.7017 424.063 79.7608 410.432 88.2309C396.801 96.701 384.706 91.7601 380.363 88.2309C376.02 84.9092 363.926 80.2588 350.295 88.2309C336.664 96.203 323.567 91.5526 318.723 88.2309C313.879 84.7016 301.083 79.7606 288.655 88.2309C276.226 96.7012 264.433 91.7602 260.09 88.2309C255.913 84.494 244.253 79.2624 231.023 88.2309C217.793 97.1993 206.468 91.9677 202.458 88.2309C197.948 84.4941 186.322 79.2626 175.898 88.2309C165.474 97.1992 155.184 91.9677 151.342 88.2309C146.999 84.4941 136.208 79.2626 127.788 88.2309C119.369 97.1992 107.91 91.9677 103.233 88.2309C99.5576 84.2865 89.3009 78.7643 77.6745 88.2309C66.048 97.6975 54.7891 92.1753 50.6129 88.2309C46.9379 84.2865 37.1823 78.7644 27.5604 88.2309C17.9386 97.6974 5.84437 92.1753 1.00001 88.2309" stroke="white" stroke-width="0.801824"/>
<path d="M440.5 6.22698C436.157 2.69779 424.063 -2.24308 410.432 6.22698C396.801 14.697 384.706 9.75618 380.363 6.22698C376.02 2.90529 363.926 -1.74509 350.295 6.22698C336.664 14.1991 323.567 9.54868 318.723 6.22698C313.879 2.69769 301.083 -2.24333 288.655 6.22698C276.226 14.6973 264.433 9.75628 260.09 6.22698C255.913 2.49013 244.253 -2.74146 231.023 6.22698C217.793 15.1954 206.468 9.96384 202.458 6.22698C197.948 2.49018 186.322 -2.74135 175.898 6.22698C165.474 15.1953 155.184 9.96379 151.342 6.22698C146.999 2.49018 136.208 -2.74135 127.788 6.22698C119.369 15.1953 107.91 9.96379 103.233 6.22698C99.5576 2.28258 89.3009 -3.23959 77.6745 6.22698C66.048 15.6936 54.7891 10.1714 50.6129 6.22698C46.9379 2.28262 37.1823 -3.23948 27.5604 6.22698C17.9386 15.6934 5.84437 10.1713 1.00001 6.22698" stroke="white" stroke-width="0.801824"/>
<path d="M440.5 64.6889C436.157 61.1597 424.063 56.2188 410.432 64.6889C396.801 73.159 384.706 68.2181 380.363 64.6889C376.02 61.3672 363.926 56.7168 350.295 64.6889C336.664 72.661 323.567 68.0106 318.723 64.6889C313.879 61.1596 301.083 56.2186 288.655 64.6889C276.226 73.1592 264.433 68.2182 260.09 64.6889C255.913 60.952 244.253 55.7205 231.023 64.6889C217.793 73.6573 206.468 68.4257 202.458 64.6889C197.948 60.9521 186.322 55.7206 175.898 64.6889C165.474 73.6572 155.184 68.4257 151.342 64.6889C146.999 60.9521 136.208 55.7206 127.788 64.6889C119.369 73.6572 107.91 68.4257 103.233 64.6889C99.5576 60.7445 89.3009 55.2223 77.6745 64.6889C66.048 74.1555 54.7891 68.6333 50.6129 64.6889C46.9379 60.7445 37.1823 55.2224 27.5604 64.6889C17.9386 74.1554 5.84437 68.6333 1.00001 64.6889" stroke="white" stroke-width="0.801824"/>
<path d="M440.5 41.1469C436.157 37.6177 424.063 32.6768 410.432 41.1469C396.801 49.617 384.706 44.6761 380.363 41.1469C376.02 37.8252 363.926 33.1748 350.295 41.1469C336.664 49.119 323.567 44.4686 318.723 41.1469C313.879 37.6176 301.083 32.6766 288.655 41.1469C276.226 49.6172 264.433 44.6762 260.09 41.1469C255.913 37.4101 244.253 32.1785 231.023 41.1469C217.793 50.1153 206.468 44.8838 202.458 41.1469C197.948 37.4101 186.322 32.1786 175.898 41.1469C165.474 50.1152 155.184 44.8837 151.342 41.1469C146.999 37.4101 136.208 32.1786 127.788 41.1469C119.369 50.1152 107.91 44.8837 103.233 41.1469C99.5576 37.2025 89.3009 31.6803 77.6745 41.1469C66.048 50.6135 54.7891 45.0913 50.6129 41.1469C46.9379 37.2025 37.1823 31.6804 27.5604 41.1469C17.9386 50.6134 5.84437 45.0913 1.00001 41.1469" stroke="white" stroke-width="0.801824"/>
<path d="M440.5 100.001C436.157 96.4722 424.063 91.5313 410.432 100.001C396.801 108.471 384.706 103.531 380.363 100.001C376.02 96.6797 363.926 92.0293 350.295 100.001C336.664 107.973 323.567 103.323 318.723 100.001C313.879 96.4721 301.083 91.5311 288.655 100.001C276.226 108.472 264.433 103.531 260.09 100.001C255.913 96.2645 244.253 91.033 231.023 100.001C217.793 108.97 206.468 103.738 202.458 100.001C197.948 96.2646 186.322 91.0331 175.898 100.001C165.474 108.97 155.184 103.738 151.342 100.001C146.999 96.2646 136.208 91.0331 127.788 100.001C119.369 108.97 107.91 103.738 103.233 100.001C99.5576 96.057 89.3009 90.5348 77.6745 100.001C66.048 109.468 54.7891 103.946 50.6129 100.001C46.9379 96.057 37.1823 90.5349 27.5604 100.001C17.9386 109.468 5.84437 103.946 1.00001 100.001" stroke="white" stroke-width="0.801824"/>
<path d="M440.5 17.6049C436.157 14.0757 424.063 9.13485 410.432 17.6049C396.801 26.075 384.706 21.1341 380.363 17.6049C376.02 14.2832 363.926 9.63284 350.295 17.6049C336.664 25.577 323.567 20.9266 318.723 17.6049C313.879 14.0756 301.083 9.1346 288.655 17.6049C276.226 26.0752 264.433 21.1342 260.09 17.6049C255.913 13.8681 244.253 8.63647 231.023 17.6049C217.793 26.5734 206.468 21.3418 202.458 17.6049C197.948 13.8681 186.322 8.63658 175.898 17.6049C165.474 26.5732 155.184 21.3417 151.342 17.6049C146.999 13.8681 136.208 8.63658 127.788 17.6049C119.369 26.5732 107.91 21.3417 103.233 17.6049C99.5576 13.6605 89.3009 8.13834 77.6745 17.6049C66.048 27.0715 54.7891 21.5493 50.6129 17.6049C46.9379 13.6606 37.1823 8.13845 27.5604 17.6049C17.9386 27.0714 5.84437 21.5493 1.00001 17.6049" stroke="white" stroke-width="0.801824"/>
<path d="M440.5 76.4594C436.157 72.9302 424.063 67.9893 410.432 76.4594C396.801 84.9295 384.706 79.9886 380.363 76.4594C376.02 73.1377 363.926 68.4873 350.295 76.4594C336.664 84.4315 323.567 79.7811 318.723 76.4594C313.879 72.9301 301.083 67.9891 288.655 76.4594C276.226 84.9297 264.433 79.9887 260.09 76.4594C255.913 72.7226 244.253 67.491 231.023 76.4594C217.793 85.4278 206.468 80.1963 202.458 76.4594C197.948 72.7226 186.322 67.4911 175.898 76.4594C165.474 85.4277 155.184 80.1962 151.342 76.4594C146.999 72.7226 136.208 67.4911 127.788 76.4594C119.369 85.4277 107.91 80.1962 103.233 76.4594C99.5576 72.515 89.3009 66.9928 77.6745 76.4594C66.048 85.926 54.7891 80.4038 50.6129 76.4594C46.9379 72.515 37.1823 66.9929 27.5604 76.4594C17.9386 85.9259 5.84437 80.4038 1.00001 76.4594" stroke="white" stroke-width="0.801824"/>
</svg>
