<svg width="440" height="116" viewBox="0 0 440 116" fill="none" xmlns="http://www.w3.org/2000/svg">
<line x1="3.49691e-08" y1="4.6" x2="440" y2="4.60004" stroke="white" stroke-width="0.8"/>
<line x1="3.49691e-08" y1="57.6" x2="440" y2="57.6" stroke="white" stroke-width="0.8"/>
<line x1="3.49691e-08" y1="110.6" x2="440" y2="110.6" stroke="white" stroke-width="0.8"/>
<line x1="4.37114e-08" y1="10.5" x2="440" y2="10.5" stroke="white"/>
<line x1="4.37114e-08" y1="63.5" x2="440" y2="63.5" stroke="white"/>
<line x1="4.37114e-08" y1="51.5" x2="440" y2="51.5" stroke="white"/>
<line x1="4.37114e-08" y1="104.5" x2="440" y2="104.5" stroke="white"/>
<line x1="7.86805e-08" y1="16.1" x2="440" y2="16.1" stroke="white" stroke-width="1.8"/>
<line x1="7.86805e-08" y1="69.1" x2="440" y2="69.1" stroke="white" stroke-width="1.8"/>
<line x1="7.86805e-08" y1="46.1" x2="440" y2="46.1" stroke="white" stroke-width="1.8"/>
<line x1="7.86805e-08" y1="99.1" x2="440" y2="99.1" stroke="white" stroke-width="1.8"/>
<line x1="1.22392e-07" y1="22.6" x2="440" y2="22.6" stroke="white" stroke-width="2.8"/>
<line x1="1.22392e-07" y1="75.6" x2="440" y2="75.6" stroke="white" stroke-width="2.8"/>
<line x1="1.22392e-07" y1="38.6" x2="440" y2="38.6" stroke="white" stroke-width="2.8"/>
<line x1="1.22392e-07" y1="91.6" x2="440" y2="91.6" stroke="white" stroke-width="2.8"/>
<line x1="2.09815e-07" y1="30.6" x2="440" y2="30.6" stroke="white" stroke-width="4.8"/>
<line x1="2.09815e-07" y1="83.6" x2="440" y2="83.6" stroke="white" stroke-width="4.8"/>
</svg>
