<svg width="321" height="61" viewBox="0 0 321 61" fill="none" xmlns="http://www.w3.org/2000/svg">
<rect x="0.5" y="1.5" width="320" height="58" stroke="white"/>
<line x1="2.55115e-08" y1="0.777273" x2="321" y2="0.777294" stroke="white" stroke-width="0.445454"/>
<line x1="2.55115e-08" y1="30.289" x2="321" y2="30.289" stroke="white" stroke-width="0.445454"/>
<line x1="2.55115e-08" y1="59.7997" x2="321" y2="59.7998" stroke="white" stroke-width="0.445454"/>
<line x1="3.18894e-08" y1="4.06241" x2="321" y2="4.06243" stroke="white" stroke-width="0.556818"/>
<line x1="3.18894e-08" y1="33.5741" x2="321" y2="33.5742" stroke="white" stroke-width="0.556818"/>
<line x1="3.18894e-08" y1="26.8925" x2="321" y2="26.8925" stroke="white" stroke-width="0.556818"/>
<line x1="3.18894e-08" y1="56.4032" x2="321" y2="56.4033" stroke="white" stroke-width="0.556818"/>
<line x1="5.74009e-08" y1="7.1805" x2="321" y2="7.18053" stroke="white" stroke-width="1.00227"/>
<line x1="5.74009e-08" y1="36.6922" x2="321" y2="36.6922" stroke="white" stroke-width="1.00227"/>
<line x1="5.74009e-08" y1="23.8846" x2="321" y2="23.8846" stroke="white" stroke-width="1.00227"/>
<line x1="5.74009e-08" y1="53.3963" x2="321" y2="53.3963" stroke="white" stroke-width="1.00227"/>
<line x1="8.92904e-08" y1="10.8005" x2="321" y2="10.8006" stroke="white" stroke-width="1.55909"/>
<line x1="8.92904e-08" y1="40.3113" x2="321" y2="40.3113" stroke="white" stroke-width="1.55909"/>
<line x1="8.92904e-08" y1="19.7097" x2="321" y2="19.7097" stroke="white" stroke-width="1.55909"/>
<line x1="8.92904e-08" y1="49.2205" x2="321" y2="49.2205" stroke="white" stroke-width="1.55909"/>
<line x1="1.53069e-07" y1="15.2545" x2="321" y2="15.2545" stroke="white" stroke-width="2.67272"/>
<line x1="1.53069e-07" y1="44.7652" x2="321" y2="44.7652" stroke="white" stroke-width="2.67272"/>
</svg>
