<svg width="440" height="116" viewBox="0 0 440 116" fill="none" xmlns="http://www.w3.org/2000/svg">
<circle cx="11.5" cy="17.5" r="9.1" stroke="white" stroke-width="0.8"/>
<circle cx="43.5" cy="17.5" r="9.1" stroke="white" stroke-width="0.8"/>
<circle cx="75.5" cy="17.5" r="9.1" stroke="white" stroke-width="0.8"/>
<circle cx="107.5" cy="17.5" r="9.1" stroke="white" stroke-width="0.8"/>
<circle cx="139.5" cy="17.5" r="9.1" stroke="white" stroke-width="0.8"/>
<circle cx="171.5" cy="17.5" r="9.1" stroke="white" stroke-width="0.8"/>
<circle cx="203.5" cy="17.5" r="9.1" stroke="white" stroke-width="0.8"/>
<circle cx="235.5" cy="17.5" r="9.1" stroke="white" stroke-width="0.8"/>
<circle cx="267.5" cy="17.5" r="9.1" stroke="white" stroke-width="0.8"/>
<circle cx="299.5" cy="17.5" r="9.1" stroke="white" stroke-width="0.8"/>
<circle cx="331.5" cy="17.5" r="9.1" stroke="white" stroke-width="0.8"/>
<circle cx="363.5" cy="17.5" r="9.1" stroke="white" stroke-width="0.8"/>
<circle cx="395.5" cy="17.5" r="9.1" stroke="white" stroke-width="0.8"/>
<circle cx="427.5" cy="17.5" r="9.1" fill="white" stroke="white" stroke-width="0.8"/>
<circle cx="11.5" cy="44.5" r="9.1" stroke="white" stroke-width="0.8"/>
<circle cx="11.5" cy="71.5" r="9.1" stroke="white" stroke-width="0.8"/>
<circle cx="11.5" cy="98.5" r="9.1" stroke="white" stroke-width="0.8"/>
<circle cx="43.5" cy="44.5" r="9.1" stroke="white" stroke-width="0.8"/>
<circle cx="43.5" cy="71.5" r="9.1" fill="white" stroke="white" stroke-width="0.8"/>
<circle cx="43.5" cy="98.5" r="9.1" stroke="white" stroke-width="0.8"/>
<circle cx="75.5" cy="44.5" r="9.1" stroke="white" stroke-width="0.8"/>
<circle cx="75.5" cy="71.5" r="9.1" stroke="white" stroke-width="0.8"/>
<circle cx="75.5" cy="98.5" r="9.1" stroke="white" stroke-width="0.8"/>
<circle cx="107.5" cy="44.5" r="9.1" stroke="white" stroke-width="0.8"/>
<circle cx="107.5" cy="71.5" r="9.1" stroke="white" stroke-width="0.8"/>
<circle cx="107.5" cy="98.5" r="9.1" stroke="white" stroke-width="0.8"/>
<circle cx="139.5" cy="44.5" r="9.1" stroke="white" stroke-width="0.8"/>
<circle cx="139.5" cy="71.5" r="9.1" stroke="white" stroke-width="0.8"/>
<circle cx="139.5" cy="98.5" r="9.1" stroke="white" stroke-width="0.8"/>
<circle cx="171.5" cy="44.5" r="9.1" stroke="white" stroke-width="0.8"/>
<circle cx="171.5" cy="71.5" r="9.1" stroke="white" stroke-width="0.8"/>
<circle cx="171.5" cy="98.5" r="9.1" stroke="white" stroke-width="0.8"/>
<circle cx="203.5" cy="44.5" r="9.1" fill="white" stroke="white" stroke-width="0.8"/>
<circle cx="203.5" cy="71.5" r="9.1" stroke="white" stroke-width="0.8"/>
<circle cx="203.5" cy="98.5" r="9.1" stroke="white" stroke-width="0.8"/>
<circle cx="235.5" cy="44.5" r="9.1" stroke="white" stroke-width="0.8"/>
<circle cx="235.5" cy="71.5" r="9.1" stroke="white" stroke-width="0.8"/>
<circle cx="235.5" cy="98.5" r="9.1" stroke="white" stroke-width="0.8"/>
<circle cx="267.5" cy="44.5" r="9.1" stroke="white" stroke-width="0.8"/>
<circle cx="267.5" cy="71.5" r="9.1" stroke="white" stroke-width="0.8"/>
<circle cx="267.5" cy="98.5" r="9.1" stroke="white" stroke-width="0.8"/>
<circle cx="299.5" cy="44.5" r="9.1" stroke="white" stroke-width="0.8"/>
<circle cx="299.5" cy="71.5" r="9.1" stroke="white" stroke-width="0.8"/>
<circle cx="299.5" cy="98.5" r="9.1" stroke="white" stroke-width="0.8"/>
<circle cx="331.5" cy="44.5" r="9.1" stroke="white" stroke-width="0.8"/>
<circle cx="331.5" cy="71.5" r="9.1" stroke="white" stroke-width="0.8"/>
<circle cx="331.5" cy="98.5" r="9.1" stroke="white" stroke-width="0.8"/>
<circle cx="363.5" cy="44.5" r="9.1" stroke="white" stroke-width="0.8"/>
<circle cx="363.5" cy="71.5" r="9.1" stroke="white" stroke-width="0.8"/>
<circle cx="363.5" cy="98.5" r="9.1" fill="white" stroke="white" stroke-width="0.8"/>
<circle cx="395.5" cy="44.5" r="9.1" stroke="white" stroke-width="0.8"/>
<circle cx="395.5" cy="71.5" r="9.1" stroke="white" stroke-width="0.8"/>
<circle cx="395.5" cy="98.5" r="9.1" stroke="white" stroke-width="0.8"/>
<circle cx="427.5" cy="44.5" r="9.1" stroke="white" stroke-width="0.8"/>
<circle cx="427.5" cy="71.5" r="9.1" stroke="white" stroke-width="0.8"/>
<circle cx="427.5" cy="98.5" r="9.1" stroke="white" stroke-width="0.8"/>
</svg>
