<svg width="667" height="117" viewBox="0 0 667 117" fill="none" xmlns="http://www.w3.org/2000/svg">
<path d="M666 104.117C659.428 96.6111 641.129 86.1022 620.504 104.117C599.879 122.133 581.58 111.624 575.008 104.117C568.436 97.0524 550.137 87.1613 529.512 104.117C508.887 121.074 489.071 111.183 481.741 104.117C474.411 96.6109 455.05 86.1016 436.245 104.117C417.44 122.133 399.596 111.624 393.024 104.117C386.705 96.1694 369.063 85.0421 349.044 104.117C329.026 123.193 311.889 112.066 305.823 104.117C298.999 96.1695 281.407 85.0424 265.635 104.117C249.863 123.193 234.293 112.065 228.48 104.117C221.908 96.1695 205.58 85.0424 192.842 104.117C180.103 123.193 162.764 112.065 155.686 104.117C150.126 95.728 134.607 83.9826 117.015 104.117C99.423 124.252 82.3873 112.507 76.0684 104.117C70.5078 95.7281 55.7469 83.9829 41.1882 104.117C26.6294 124.252 8.32992 112.507 1.00001 104.117" stroke="white" stroke-width="1.20999"/>
<path d="M666 58.1175C659.428 50.6111 641.129 40.1022 620.504 58.1175C599.879 76.1328 581.58 65.6239 575.008 58.1175C568.436 51.0524 550.137 41.1613 529.512 58.1175C508.887 75.0737 489.071 65.1826 481.741 58.1175C474.411 50.6109 455.05 40.1016 436.245 58.1175C417.44 76.1334 399.596 65.6241 393.024 58.1175C386.705 50.1694 369.063 39.0421 349.044 58.1175C329.026 77.1929 311.889 66.0656 305.823 58.1175C298.999 50.1695 281.407 39.0424 265.635 58.1175C249.863 77.1926 234.293 66.0655 228.48 58.1175C221.908 50.1695 205.58 39.0424 192.842 58.1175C180.103 77.1926 162.764 66.0655 155.686 58.1175C150.126 49.728 134.607 37.9826 117.015 58.1175C99.423 78.2524 82.3873 66.507 76.0684 58.1175C70.5078 49.7281 55.7469 37.9829 41.1882 58.1175C26.6294 78.2521 8.32992 66.5069 1.00001 58.1175" stroke="white" stroke-width="1.20999"/>
<path d="M666 12.1175C659.428 4.61111 641.129 -5.89785 620.504 12.1175C599.879 30.1328 581.58 19.6239 575.008 12.1175C568.436 5.05244 550.137 -4.83865 529.512 12.1175C508.887 29.0737 489.071 19.1826 481.741 12.1175C474.411 4.61088 455.05 -5.89838 436.245 12.1175C417.44 30.1334 399.596 19.6241 393.024 12.1175C386.705 4.16943 369.063 -6.95787 349.044 12.1175C329.026 31.1929 311.889 20.0656 305.823 12.1175C298.999 4.16953 281.407 -6.95764 265.635 12.1175C249.863 31.1926 234.293 20.0655 228.48 12.1175C221.908 4.16953 205.58 -6.95764 192.842 12.1175C180.103 31.1926 162.764 20.0655 155.686 12.1175C150.126 3.72797 134.607 -8.01737 117.015 12.1175C99.423 32.2524 82.3873 20.507 76.0684 12.1175C70.5078 3.72807 55.7469 -8.01713 41.1882 12.1175C26.6294 32.2521 8.32992 20.5069 1.00001 12.1175" stroke="white" stroke-width="1.20999"/>
<path d="M666 81.1175C659.428 73.6111 641.129 63.1022 620.504 81.1175C599.879 99.1328 581.58 88.6239 575.008 81.1175C568.436 74.0524 550.137 64.1613 529.512 81.1175C508.887 98.0737 489.071 88.1826 481.741 81.1175C474.411 73.6109 455.05 63.1016 436.245 81.1175C417.44 99.1334 399.596 88.6241 393.024 81.1175C386.705 73.1694 369.063 62.0421 349.044 81.1175C329.026 100.193 311.889 89.0656 305.823 81.1175C298.999 73.1695 281.407 62.0424 265.635 81.1175C249.863 100.193 234.293 89.0655 228.48 81.1175C221.908 73.1695 205.58 62.0424 192.842 81.1175C180.103 100.193 162.764 89.0655 155.686 81.1175C150.126 72.728 134.607 60.9826 117.015 81.1175C99.423 101.252 82.3873 89.507 76.0684 81.1175C70.5078 72.7281 55.7469 60.9829 41.1882 81.1175C26.6294 101.252 8.32992 89.5069 1.00001 81.1175" stroke="white" stroke-width="1.20999"/>
<path d="M666 35.1175C659.428 27.6111 641.129 17.1022 620.504 35.1175C599.879 53.1328 581.58 42.6239 575.008 35.1175C568.436 28.0524 550.137 18.1613 529.512 35.1175C508.887 52.0737 489.071 42.1826 481.741 35.1175C474.411 27.6109 455.05 17.1016 436.245 35.1175C417.44 53.1334 399.596 42.6241 393.024 35.1175C386.705 27.1694 369.063 16.0421 349.044 35.1175C329.026 54.1929 311.889 43.0656 305.823 35.1175C298.999 27.1695 281.407 16.0424 265.635 35.1175C249.863 54.1926 234.293 43.0655 228.48 35.1175C221.908 27.1695 205.58 16.0424 192.842 35.1175C180.103 54.1926 162.764 43.0655 155.686 35.1175C150.126 26.728 134.607 14.9826 117.015 35.1175C99.423 55.2524 82.3873 43.507 76.0684 35.1175C70.5078 26.7281 55.7469 14.9829 41.1882 35.1175C26.6294 55.2521 8.32992 43.5069 1.00001 35.1175" stroke="white" stroke-width="1.20999"/>
</svg>
