<svg width="323" height="61" viewBox="0 0 323 61" fill="none" xmlns="http://www.w3.org/2000/svg">
<path d="M321.929 54.346C303.47 64.0483 287.668 58.3886 282.075 54.346C275.782 50.3035 259.561 44.6439 245.018 54.346C230.475 64.0482 216.118 58.3886 210.757 54.346C204.698 50.3035 189.642 44.6439 177.895 54.346C166.149 64.0482 150.161 58.3886 143.635 54.346C138.508 50.0789 124.198 44.1049 107.976 54.346C91.7552 64.5872 76.0467 58.6132 70.2201 54.346C65.0927 50.079 51.4818 44.1051 38.0573 54.346C24.6329 64.587 7.75909 58.6131 1.00025 54.346" stroke="white" stroke-width="0.58"/>
<path d="M321.929 30.0912C303.47 39.7934 287.668 34.1338 282.075 30.0912C275.782 26.0486 259.561 20.3891 245.018 30.0912C230.475 39.7933 216.118 34.1337 210.757 30.0912C204.698 26.0486 189.642 20.3891 177.895 30.0912C166.149 39.7933 150.161 34.1337 143.635 30.0912C138.508 25.824 124.198 19.8501 107.976 30.0912C91.7552 40.3323 76.0467 34.3583 70.2201 30.0912C65.0927 25.8241 51.4818 19.8502 38.0573 30.0912C24.6329 40.3322 7.75909 34.3582 1.00025 30.0912" stroke="white" stroke-width="0.58"/>
<path d="M321.929 6.65464C303.47 16.3569 287.668 10.6972 282.075 6.65464C275.782 2.6121 259.561 -3.04746 245.018 6.65464C230.475 16.3567 216.118 10.6972 210.757 6.65464C204.698 2.6121 189.642 -3.04746 177.895 6.65464C166.149 16.3567 150.161 10.6972 143.635 6.65464C138.508 2.38752 124.198 -3.58646 107.976 6.65464C91.7552 16.8957 76.0467 10.9218 70.2201 6.65464C65.0927 2.38757 51.4818 -3.58634 38.0573 6.65464C24.6329 16.8956 7.75909 10.9217 1.00024 6.65464" stroke="white" stroke-width="0.58"/>
<path d="M321.929 41.6908C303.47 51.393 287.668 45.7334 282.075 41.6908C275.782 37.6482 259.561 31.9887 245.018 41.6908C230.475 51.3929 216.118 45.7333 210.757 41.6908C204.698 37.6482 189.642 31.9887 177.895 41.6908C166.149 51.3929 150.161 45.7333 143.635 41.6908C138.508 37.4236 124.198 31.4497 107.976 41.6908C91.7552 51.9319 76.0467 45.9579 70.2201 41.6908C65.0927 37.4237 51.4818 31.4498 38.0573 41.6908C24.6329 51.9318 7.75909 45.9579 1.00025 41.6908" stroke="white" stroke-width="0.58"/>
<path d="M321.929 19.6C303.47 29.3022 287.668 23.6425 282.075 19.6C275.782 15.5574 259.561 9.89785 245.018 19.6C230.475 29.3021 216.118 23.6425 210.757 19.6C204.698 15.5574 189.642 9.89785 177.895 19.6C166.149 29.3021 150.161 23.6425 143.635 19.6C138.508 15.3328 124.198 9.35885 107.976 19.6C91.7552 29.8411 76.0467 23.8671 70.2201 19.6C65.0927 15.3329 51.4818 9.35897 38.0573 19.6C24.6329 29.8409 7.75909 23.867 1.00025 19.6" stroke="white" stroke-width="0.58"/>
</svg>
